<svg xmlns="http://www.w3.org/2000/svg" viewBox="0 0 182.72 106.54"><defs><style>.b56d7e2c-87aa-4cd5-8205-3f2c7e425a22{fill:#fff;}.af378666-a2bc-4938-a187-189aea4181ca{fill:#232628;}.b954040c-c3c2-471e-96e0-4ea83f137e75{fill:#00bada;}</style></defs><title>Asset 8FG_TextLogo</title><g id="bcf98cf3-8769-49f3-a8ed-c89c54a286fa" data-name="Layer 2"><g id="ee434d7e-3708-468b-9a8a-8f8e3d6e2dcd" data-name="Layer 1"><path class="b56d7e2c-87aa-4cd5-8205-3f2c7e425a22" d="M182.71,30.62a7.79,7.79,0,0,0-4-7.18,19.26,19.26,0,0,0-7.94-2.26c-.82-.07-1.63-.12-2.44-.16a12.48,12.48,0,0,0,.65-2.44c0-.06,0-.11,0-.18.05-.25.09-.49.12-.7a8.2,8.2,0,0,0,.61-5.14,13.06,13.06,0,0,0-.48-5.09A10,10,0,0,0,161.53.39a8.82,8.82,0,0,0-7.1,1.79,15.07,15.07,0,0,0-4.78,7.06c-.8,2.28-1.5,4.52-2.32,7.19-.5,1.66-1,3.33-1.49,5l-1.46.17A9.11,9.11,0,0,0,136.49,31a8.78,8.78,0,0,0,4.6,8c-.28,1.24-.55,2.51-.8,3.8a9.49,9.49,0,0,0-1.55-1.62,12.23,12.23,0,0,0-8.1-2.83,11.47,11.47,0,0,0-5.38,1.53,8,8,0,0,0-2.12-1.36l-.33-.15a9,9,0,0,0-6-.8q-.44.1-.84.24c-.21-.06-.43-.11-.65-.15a22.22,22.22,0,0,0-2.54-.43,8.71,8.71,0,0,0-6.53,2,10.14,10.14,0,0,0,.55-2,8,8,0,0,0,.73-2.25V34.9c0-.06,0-.13,0-.2a7.84,7.84,0,0,0,1-2.64,8.31,8.31,0,0,0,.3-1.4l.06-.16a7.58,7.58,0,0,0,.43-1.72A12,12,0,0,0,110,27a7.9,7.9,0,0,0,.56-2.48c.07-.23.13-.45.17-.63a7.82,7.82,0,0,0,.45-1.42l.12-.49c.17-.64.35-1.31.51-2s.28-1.33.38-1.89l.06-.34c.05-.28.08-.55.1-.8a13.86,13.86,0,0,0,.56-7.17,10.32,10.32,0,0,0-10.22-8.3A11.37,11.37,0,0,0,99,2.22a8.71,8.71,0,0,0-5,4.37c-.25.52-.5,1-.76,1.54-.83,1.68-1.69,3.42-2.48,5.27-3.56,8.36-5.37,16.93-6.92,25a13.08,13.08,0,0,0-4.28,2.76,13.2,13.2,0,0,0-8.32-3.32,11.37,11.37,0,0,0-8.33,3c-.24-.2-.49-.38-.75-.56a13.79,13.79,0,0,0-6.62-2.42,11.71,11.71,0,0,0-4.16.37c1-2.18,1.93-4.4,2.86-6.64,1-2.44,1.92-4.9,2.8-7.27l.81-2.18a19,19,0,0,0,.8-2.88c.12-.58.22-1.12.31-1.65s.17-1,.26-1.38a19.86,19.86,0,0,0,.43-5.71A11.2,11.2,0,0,0,51.61.36a8.87,8.87,0,0,0-8.93,2.33l0,0a15,15,0,0,0-1.09,1,45,45,0,0,0-6.91,10.62c-.32.62-.64,1.24-1,1.86a6.53,6.53,0,0,0-.39.85Q32,20.51,30.83,23.82l-.29-.15A8.73,8.73,0,0,0,19.8,25.39l-.05.05a11.36,11.36,0,0,0-1.49,1.8c-.27.44-.56.87-.84,1.3-.89,1.36-1.8,2.76-2.68,4.28-.8,1.36-1.44,2.68-2.07,4a37,37,0,0,1-1.95,3.66,11.91,11.91,0,0,0-1,1.87l-.29.62c-.28.63-.58,1.29-.87,2-.09.21-.17.42-.23.6A15.42,15.42,0,0,0,7.53,47,8.36,8.36,0,0,0,0,55.48a8.9,8.9,0,0,0,2.28,6,46.6,46.6,0,0,0-1.12,5.07,32.69,32.69,0,0,0-.47,9.25c0,.21.06.42.1.61l0,.27A12.5,12.5,0,0,0,1.28,79l.06.18c.8,2.57,2.28,7.38,7.55,9.91a10.91,10.91,0,0,0,7.59.8,17.72,17.72,0,0,0,8.68-5.86A13.71,13.71,0,0,0,27,81.5c.28-.5.53-1,.78-1.43s.48-.9.71-1.29c.13-.22.27-.48.41-.74a15.69,15.69,0,0,0,22.77,6.85,7.63,7.63,0,0,0,2.67,1.67,4.86,4.86,0,0,0,.9,1.31,5,5,0,0,0,2.68,1.41,4.8,4.8,0,0,0,.85.07h1.33a6.91,6.91,0,0,0,1.79-.23,5.06,5.06,0,0,0,.67.17,4.8,4.8,0,0,0,.85.08h.5a4.92,4.92,0,0,0,.67,0,5,5,0,0,0,.67,0h.6a4.56,4.56,0,0,0,1.11-.13,2.68,2.68,0,0,0,.27.07,4.8,4.8,0,0,0,.85.08h.51a4.84,4.84,0,0,0,1.66-.3,6.57,6.57,0,0,0,1,.27,6.12,6.12,0,0,0,1.14.1h0a6.72,6.72,0,0,0,2-.29,6.17,6.17,0,0,0,.74.19,6,6,0,0,0,.85.08h.5a5.22,5.22,0,0,0,.69,0,5.09,5.09,0,0,0,.69,0h.5a5.09,5.09,0,0,0,1.52-.25,4.73,4.73,0,0,0,.74.19,4.8,4.8,0,0,0,.85.08h.51a4.83,4.83,0,0,0,2-.39,5.88,5.88,0,0,0,1.24.36,7.1,7.1,0,0,0,1.14.11,6.56,6.56,0,0,0,1.47-.17,11.15,11.15,0,0,0,.55,2.82,26.75,26.75,0,0,0,4,8,15,15,0,0,0,8.68,5.85l.12,0a12.49,12.49,0,0,0,3,.4,9.35,9.35,0,0,0,3.35-.62A19.12,19.12,0,0,0,117.21,98a11.91,11.91,0,0,0,1.59-2.51l0,0a10.59,10.59,0,0,0,.66-1.1,7.87,7.87,0,0,0,1.11-2c.12-.18.25-.38.38-.61a12.21,12.21,0,0,0,.88-1.91l0-.09a7.5,7.5,0,0,0,1.15-.21,5.5,5.5,0,0,0,.58.16,4.69,4.69,0,0,0,.84.08H125a4.58,4.58,0,0,0,1-.09,4.43,4.43,0,0,0,1,.1h.54a4.93,4.93,0,0,0,1.09-.13,1.8,1.8,0,0,0,.22.06,4.71,4.71,0,0,0,.85.08h.5a4.2,4.2,0,0,0,.79,0,5.16,5.16,0,0,0,.79.06h.42a5,5,0,0,0,5-4.21,7.79,7.79,0,0,0,4.34,1.31h2.66a7.92,7.92,0,0,0,3.6-.89,7.75,7.75,0,0,0,3.6.87h2.65a7.79,7.79,0,0,0,7.77-7.8l0-14A8.92,8.92,0,0,0,164,63.9c.19-.1.37-.21.55-.32A7.82,7.82,0,0,0,168,60.73l.1-.06a10.33,10.33,0,0,0,3-2.27l.06,0a9.7,9.7,0,0,0,1.5-1.36h0a7.79,7.79,0,0,0,.25-10.62l-.1-.11a7.54,7.54,0,0,0-2.72-2,8.78,8.78,0,0,0-1.86-4A8.37,8.37,0,0,0,167,38.72a8.35,8.35,0,0,0,1.32,0,9,9,0,0,0,1.47,0,7.54,7.54,0,0,0,.83-.06,8.47,8.47,0,0,0,1,0,8,8,0,0,0,2.23-.44,6.78,6.78,0,0,0,1.28-.15,9,9,0,0,0,2.94-.73A7.8,7.8,0,0,0,182.71,30.62Zm-39.46-.25h0Z"/><path class="af378666-a2bc-4938-a187-189aea4181ca" d="M43.08,79.56A7.81,7.81,0,0,1,43.16,64a7.92,7.92,0,0,1,5.91,2.34l-1.7,2a6,6,0,0,0-4.23-1.87,5.39,5.39,0,0,0,0,10.74,5.93,5.93,0,0,0,4.33-2l1.71,1.72A7.78,7.78,0,0,1,43.08,79.56Z"/><path class="af378666-a2bc-4938-a187-189aea4181ca" d="M59.67,72.91v6.36H57l0-15.09h2.65v6.28l7.2,0V64.17H69.5l0,15.09H66.88V72.9Z"/><path class="af378666-a2bc-4938-a187-189aea4181ca" d="M91.12,72.68c0,4.51-2.53,6.78-6.47,6.78s-6.43-2.25-6.44-6.62l0-8.69h2.65l0,8.58c0,2.81,1.45,4.31,3.82,4.31s3.8-1.43,3.79-4.21l0-8.69h2.66Z"/><path class="af378666-a2bc-4938-a187-189aea4181ca" d="M109.5,79.18l-3.72-5.25h-3.32v5.26H99.82l0-15.09,6.73,0c3.47,0,5.61,1.82,5.62,4.78a4.54,4.54,0,0,1-3.6,4.6l4.09,5.7Zm-3.19-12.67h-3.86v5.06h3.88c1.9,0,3.1-1,3.1-2.55S108.27,66.5,106.31,66.51Z"/><path class="af378666-a2bc-4938-a187-189aea4181ca" d="M127.46,79.4a7.81,7.81,0,0,1,.08-15.61,7.92,7.92,0,0,1,5.91,2.34l-1.7,2a6,6,0,0,0-4.23-1.87,5.39,5.39,0,0,0,0,10.74,5.93,5.93,0,0,0,4.33-2l1.71,1.72A7.77,7.77,0,0,1,127.46,79.4Z"/><path class="af378666-a2bc-4938-a187-189aea4181ca" d="M144.05,72.75v6.36h-2.65l0-15.09H144l0,6.28,7.2,0,0-6.27h2.66l0,15.1h-2.65V72.74Z"/><path class="b954040c-c3c2-471e-96e0-4ea83f137e75" d="M49.09,53.44l.32-.88-1,.85-.16-.2a3.71,3.71,0,0,1,.84-.62c.39-.13.45-.42.59-.71.24-.53.51-1.05.76-1.57-.88.26-1.17,1.24-1.92,1.72a24.85,24.85,0,0,0-2,1.61l.07.11-3.09,2.79.15.18c.25-.21.51-.4.74-.62a1.55,1.55,0,0,1,1.33-.64l-1.06,1,.07.09,1.66-1.38c-.88,1.35-2.49,1.94-3.32,3.35l.47-.26s.06.06.05.06a3.84,3.84,0,0,1-.64,1.06,19.7,19.7,0,0,1-2.46,1.81c-2.55,1.54-4.8.87-6.69-1.24a8.73,8.73,0,0,1-1.81-4.71,12.38,12.38,0,0,1,.27-3A5.28,5.28,0,0,0,32,49.91c-.63.21-1,1-1.82.79l-.05.34-.22-.33c-2.31,1.51-5.06,1.89-7.59,2.88,0,0-.14-.1-.17-.12a2,2,0,0,1-.39.3c-.36.13-.74.22-1.1.36-.6.22-1.18.48-1.78.69s-1.22.4-1.85.57a5.85,5.85,0,0,0-2.27,1l.43.13c.37.09.75.2,1.12.28.7.15,1.26.6,1.94.81a6.14,6.14,0,0,1,1.94,1.16,10.59,10.59,0,0,1,1.64,1.57,10.7,10.7,0,0,1,1.27,1.88A12.29,12.29,0,0,1,24,64.38a8.72,8.72,0,0,1-.06,5c-.13.46-.17,1-.3,1.42a17.83,17.83,0,0,1-1.85,4.1c-.54.92-1,1.87-1.54,2.8a5.71,5.71,0,0,1-.77,1.12c-1.4,1.53-2.82,3-4.93,3.6a3.08,3.08,0,0,1-2.24-.29C10,81,9.38,78.84,8.72,76.71a5,5,0,0,1-.18-.95,1.44,1.44,0,0,1,.08-.38,1.6,1.6,0,0,1-.2-.46,25.09,25.09,0,0,1,.42-7.08,93.93,93.93,0,0,1,2.47-9.64c0-.15.07-.3.11-.47-.67-.2-1.31-.36-1.93-.58a4.85,4.85,0,0,1-1.07-.53,1.29,1.29,0,0,1-.64-1.09c0-.67.18-.8.83-.81a26.26,26.26,0,0,0,3.08-.21,2.15,2.15,0,0,0,1.76-1.29c.1-.25.17-.51.26-.76a10.84,10.84,0,0,1,1.62-3.33,4.79,4.79,0,0,0,.43-1.19c.33-.79.7-1.56,1-2.34a6.47,6.47,0,0,1,.45-1c1.62-2.52,2.71-5.33,4.21-7.91,1-1.8,2.21-3.52,3.34-5.27a3.92,3.92,0,0,1,.58-.65A1.06,1.06,0,0,1,27,30.58l1.2.61c.27.13.38.59.14.75-2.06,1.39-3.16,3.53-4.39,5.57-.71,1.18-1.45,2.33-2.15,3.51-.23.37-.37.79-.58,1.17-.33.6-.7,1.19-1,1.8-.1.18,0,.45-.13.63-.22.45-.51.86-.74,1.3s-.44.89-.66,1.33c-.11.21-.25.39-.35.59a4.1,4.1,0,0,0-.21.48,1,1,0,0,1-.3.42c.26,1.41-1.14,2.14-1.38,3.35l.3-.35.07,0c-.1.21-.23.41-.31.62a.51.51,0,0,0,0,.42c.05.08.26.09.39.09a3.19,3.19,0,0,0,.62-.08.82.82,0,0,0,.42-.27L19,52.25l-.26.31a8.94,8.94,0,0,0,3.58-.73c0-.2,0-.36.09-.43a.42.42,0,0,1,.35,0s.05.17.05.43l3.67-1.23-.11-.1.32-.64.23.48.12,0c.77-.24,1.54-.47,2.31-.73A11.07,11.07,0,0,0,30.68,49a2.14,2.14,0,0,1,1.39-.44c.12,0,.27-.15.41-.24l-.07-.1L29.49,49l-.06-.19,1.79-.6c.15-.05.31-.06.47-.1,1-.24,1.14-.39,1.3-1.38,0-.32.06-.64.14-.95s-.08-.52.32-.48c0-.26.06-.52.06-.79s-.11-.4-.07-.59a143.52,143.52,0,0,1,7.1-24c2-3.76,3.75-7.67,6.7-10.83.32-.34.71-.62,1-1a1.14,1.14,0,0,1,1.28-.25A3.49,3.49,0,0,1,52,11.13a11.83,11.83,0,0,1-.27,3.46c-.23,1-.37,2.09-.59,3.13a12.83,12.83,0,0,1-.46,1.72c-1.16,3.07-2.26,6.17-3.52,9.2-1.61,3.88-3.35,7.71-5,11.56a1.13,1.13,0,0,1-.24.36c-.18.17-.37.3-.22.6,0,.06,0,.18-.09.26-.9,1.66-1.79,3.32-2.71,5a12.18,12.18,0,0,1-3.41,4.11c-.55.4-.54,1.06-.64,1.66-.08.42-.18.84-.27,1.27a.88.88,0,0,0-.07.23c.05,1.54.07,3.09.16,4.64A4.27,4.27,0,0,0,35,59.5l.12,0,0-.23h.13l.09.65s.12,0,.15,0c.4.54.86.24,1.3.11a11.27,11.27,0,0,0,4.14-2.44q4.84-4.16,9.66-8.33a1.82,1.82,0,0,0,.49-.89,3.51,3.51,0,0,1,3.87-2.71,6.2,6.2,0,0,1,2.91,1.09A3.3,3.3,0,0,1,59,50.85c-.05.14-.11.29-.19.48a40.76,40.76,0,0,0,7.38-2.28c.09,0,.17-.09.26-.12a1.5,1.5,0,0,0,1.13-1.14A3.3,3.3,0,0,1,71,45.61a5.25,5.25,0,0,1,3.76,1.67,3.2,3.2,0,0,1,.52,3.52c0,.15-.13.29-.26.6,1.75-.51,3.37-.94,5-1.46,1.09-.36,2.15-.8,3.2-1.26a1.93,1.93,0,0,0,.74-.62,5.79,5.79,0,0,1,3.52-2.64,4.8,4.8,0,0,1,2.3.2,4.8,4.8,0,0,1-1.38,4.14c-.36-.07-.44-.33-.44-.64,0-.48,0-1,0-1.45a1.5,1.5,0,0,0-.14-.44l-.51.21a.25.25,0,0,0-.11.15c-.77,1.84-1.59,3.67-2.29,5.54a6.53,6.53,0,0,0-.29,3.14,8.44,8.44,0,0,0,2.55-2.06c1.06-1.38,2-2.84,3.08-4.23a2.39,2.39,0,0,0,.56-2.07,5.94,5.94,0,0,1,.13-1.66c0-.3,0-.61,0-.91.16-1.56.32-3.11.49-4.67,0-.25.05-.51.09-.76,1.53-8,3.24-15.93,6.45-23.45.93-2.19,2-4.32,3.08-6.46a1,1,0,0,1,.52-.44,4.53,4.53,0,0,1,1.26-.29,2.62,2.62,0,0,1,2.38,2.05,7.82,7.82,0,0,1-.71,4.31l0-.44h-.09l-.23,1.05.29-.27a2.9,2.9,0,0,1,0,.42c-.11.62-.21,1.24-.36,1.85-.2.88-.44,1.76-.67,2.64,0,0,0,0,0,.05-.43.69-.25,1.63-1,2.21l.21.1-.3.91.08.05.2-.15a.2.2,0,0,1,0,.08c-.32.64-.31,1.4-.82,2-.2.24-.14.7-.21,1.06,0,.07-.07.12-.08.18a1.72,1.72,0,0,1,0,.46,4,4,0,0,1-.36.71c0,.07-.17.11-.18.19a4.68,4.68,0,0,0,0,.61c.25.21.11.73-.41,1l.27.42-.48-.05.16.6c-.53.05-.49.47-.5.9a13.43,13.43,0,0,1-.19,1.52.46.46,0,0,1-.22.27c-.35.16-.37.43-.41.76-.08.69.06,1.46-.5,2a2.48,2.48,0,0,1-.61.31l0-.52H98l-.14.5.64.27c0,.62-1,1-.44,1.68a4,4,0,0,0-.39.54c-.1.18-.11.41-.21.58s-.22.13-.34.19L97,40.22l-.43,1.09a1.34,1.34,0,0,1-.26,1.93.77.77,0,0,0-.32.69c0,.15-.12.3-.17.45s-.09.27-.15.44c-.76-.11-.16.48-.27.75-.22,0-.58-.06-.29.37-.46.44-.1,1.4-1,1.51.24.77-.24,1.23-.63,1.69a.69.69,0,0,0-.17.71c.16.61.27,1.25.39,1.87,0,.08,0,.17,0,.24.44,1.07.88,2.13,1.29,3.09a2,2,0,0,1,.54.14,2,2,0,0,0,2.13.17,10.09,10.09,0,0,1,1.78-.46,19.8,19.8,0,0,0,6.45-3.63c1.44-1.1,2.3-2.64,3.42-4a29.47,29.47,0,0,1,2-2.15.92.92,0,0,1,.67-.2,17.48,17.48,0,0,1,1.76.3,1.3,1.3,0,0,1,1.18,1.51,4.11,4.11,0,0,1-.13,1.41,1.76,1.76,0,0,1-2.39,1,.66.66,0,0,1-.4-.9,1.59,1.59,0,0,0,0-.69c-2.66,2.64-3.74,6-4.68,9.53a10.82,10.82,0,0,0,2.92-2.37,49.41,49.41,0,0,0,3.81-4.64,30.61,30.61,0,0,1,3.5-4.19c1.06-1.11,1-.89,2.42-.27.12,0,.19.24.24.39a15.1,15.1,0,0,1,.76,5.33c0,1.7,0,3.4-.07,5.09,0,.57.1.59.67.59.73,0,1-.31,1.2-1a14.4,14.4,0,0,1,2.46-4.9c.8-1.12,1.53-2.3,2.43-3.33a4.09,4.09,0,0,1,6.09-.62,2.4,2.4,0,0,1,.5,2.56c-.12.28-.28.55-.46.91a2.78,2.78,0,0,0,.57-.14c1.06-.65,2-.16,2.23,1.19a2.53,2.53,0,0,1-.33,2c0,.07-.11.18-.08.25a3.83,3.83,0,0,1-.17,2c-.07.37-.08.74-.14,1.26.73-.16,1.32-.27,1.9-.44a18,18,0,0,0,6.86-4,21.84,21.84,0,0,0,2.09-2.21,2,2,0,0,0,.25-.9,135.7,135.7,0,0,1,3.81-17.61c0-.11,0-.22.07-.33s0-.06,0-.21c-.56.06-1.15.09-1.73.19-1,.16-2.06.38-3.09.55a2.49,2.49,0,0,1-.72,0c-.85-.13-1-.39-1-1.36s.36-1.51,1.07-1.6c1.37-.17,2.75-.3,4.12-.45l2-.22c.31,0,.4-.23.48-.49.93-3.15,1.85-6.31,2.8-9.45.71-2.31,1.43-4.62,2.23-6.89a7.72,7.72,0,0,1,2.31-3.58,1.15,1.15,0,0,1,.78-.2,2.23,2.23,0,0,1,1.73,1.71,6.26,6.26,0,0,1,.06,2.92,1.74,1.74,0,0,0,.1,1.14c.19.26.2.48.08.64a5.31,5.31,0,0,0-.68,2.45,4,4,0,0,1-.68,2c-.17.19-.11.58-.15.89A26,26,0,0,1,159,25.38c-.33,1-.59,2-.91,3.11l2.89.06c1.25,0,2.49.05,3.73.1,1.81.08,3.62.14,5.42.28a11.39,11.39,0,0,1,4.78,1.32c-.59.26-1.09,0-1.6-.08-.18-.06-.35-.14-.53-.19a43.49,43.49,0,0,0-7.8-.76l-6.3-.3c-.56,0-.8.14-.87.76l.71.14.18-.39c.29.35.59.5,1,.24.08-.05.21,0,.32,0a7.53,7.53,0,0,0,.95,0c.36,0,.68-.09.78.42l.45-.18c.11,0,.22-.13.32-.11a4.92,4.92,0,0,0,.81.23c.95,0,1.89,0,2.84,0l-.34-.25h.53c.15.14.24.3.36.33a3.11,3.11,0,0,0,.86.09c.67,0,1.34,0,2-.06l.05.16c.19,0,.35,0,.44,0a.92.92,0,0,1,.21.33,3.36,3.36,0,0,1,1-.53,19.3,19.3,0,0,1,2,0l.27.15-.06.18c-.5,0-1,0-1.5,0-.25,0-.48-.11-.63.24s-.38.26-.57-.09l-1.18.33-.07-.14L169,31l0-.27c-.28.12-.65-.29-.9.15-.05.09-.28.12-.41.1a68.08,68.08,0,0,0-9.79-.12c-.34,0-.48.13-.58.49-.37,1.3-.89,2.57-1.22,3.89-.87,3.36-2.27,6.54-3.43,9.8a38.83,38.83,0,0,1-2.26,4.69,14.26,14.26,0,0,0-1.81,4.81c-.15,1.34-.16,2.7-.24,4,0,.61-.13,1.22-.14,1.83,0,2.53.11,5,1.48,7.29.19.31.45.58.72.93a3.06,3.06,0,0,1-1.66-.62,6.17,6.17,0,0,1-2.14-3.79c-.1-.44-.29-.87-.39-1.31a2.49,2.49,0,0,1,0-.6c-.05-1.3-.17-2.61-.13-3.91,0-.46.28-.93.19-1.42a1.67,1.67,0,0,1-.11-.34c0-.61.07-1.21.15-1.82a4.6,4.6,0,0,1,.23-.78l-.14-.07c-.44.39-.87.79-1.32,1.16A28.22,28.22,0,0,1,138,59.46a2.54,2.54,0,0,1-3.42-2.16c0-1.3,0-2.6,0-4-1.13.88-2.27,1.71-3.33,2.64s-2.09,2-3.06,2.9c.55.82,1.12,1.65,1.66,2.49.11.17.25.33.06.61-.09.12.16.47.25.72s.31.4,0,.64c-.07.05.07.32.08.49a5.44,5.44,0,0,1,0,.57h-.14c-.08-.5-.13-1-.24-1.49a5.22,5.22,0,0,0-2.16-3.17.68.68,0,0,0-.86,0,3.41,3.41,0,0,1-2,.6c-.75,0-1.39-.18-1.58-1-.09-.43-.38-.5-.75-.44a4.83,4.83,0,0,0-1.08.23.74.74,0,0,0-.34.54c-.12,1.14-.21,2.28-.29,3.42a12.28,12.28,0,0,1-.63,3.61c0,.06-.07.13,0,.18a10.31,10.31,0,0,1-.5,4.74c-.06.25,0,.53-.09.78s-.17.67-.26,1c0,.14,0,.28-.07.42-.3,1.27-.55,2.56-.91,3.81a23.32,23.32,0,0,1-1,2.46c0,.09-.16.17-.14.24.19.9-.54,1.54-.65,2.36a5.68,5.68,0,0,1-.75,1.44,1.3,1.3,0,0,0-.09.4s0,.11,0,.14a5.71,5.71,0,0,0-.62,1.41c-.12.24-.22.47-.32.71a10.57,10.57,0,0,1-.49,1.14c-.23.4-.56.75-.82,1.14a1.36,1.36,0,0,0-.09.42c0,.1,0,.25-.07.31-.44.38-.55,1-.89,1.4-.53.71-.72,1.65-1.46,2.23a.68.68,0,0,0-.14.25,11.11,11.11,0,0,1-6.23,5.1,3.62,3.62,0,0,1-1.94-.13,7.38,7.38,0,0,1-4.22-3,19.86,19.86,0,0,1-2.77-5.82,6.78,6.78,0,0,1-.2-1.5c0-.06.06-.12.09-.18s.11-.28.17-.41l-.16-.07-.15.3c0-.06,0-.09,0-.13a20.53,20.53,0,0,1,2.81-12.67c.62-1.13,1.21-2.28,1.92-3.36s1.44-1.94,2.17-2.91l.15.11c-.22.31-.45.61-.66.92a42.49,42.49,0,0,0-4.32,7.33,23.72,23.72,0,0,0-1.66,5.64c-.18,1.17-.16,2.37-.23,3.56a1.17,1.17,0,0,0,.07.35c.15-1.1.27-2.07.42-3,.1-.66.25-1.32.34-2,.35-2.51,1.61-4.68,2.64-6.92a24.51,24.51,0,0,1,4.22-6.29A21.21,21.21,0,0,1,105.29,66c.56-.44,1.08-.95,1.62-1.4s1-1,1.46-1.43a4.54,4.54,0,0,1,.79-.57c.26-.15.54-.26.27-.73l.18.07.14.36c.47-.39.91-.75,1.34-1.12.08-.07.16-.25.22-.24.71.16.94-.62,1.5-.76.08,0,.12-.22.2-.37l.21.16c0-.12.09-.24.13-.36,1.74-.49,1.74-.49,1.86-.76.4.2.68-.1,1-.23.52-.22.86-.75,1.51-.82a2.78,2.78,0,0,0,1-.53.38.38,0,0,0,.11-.29l-.12-8.92-.08-.06c-.87,1.11-1.75,2.22-2.61,3.34a48.1,48.1,0,0,1-5.27,6.39l-1.11,1a2.47,2.47,0,0,1-3.4,0c-1-.85-.8-1.84-.75-2.86,0-.41.1-.82.18-1.37a4.66,4.66,0,0,0-.76.27,3.9,3.9,0,0,0-1.32.94c-.48.71-1.25.76-1.89,1.08a5.1,5.1,0,0,1-2.14.83,12.13,12.13,0,0,1-2.41.1,5.36,5.36,0,0,1-2.27-1A7.65,7.65,0,0,1,92.81,54l-.89-1.9-.87,1.5a12.47,12.47,0,0,1-3.33,3.93c-.46.33-1,.58-1.5.87a2.74,2.74,0,0,1-2.51,0,1.89,1.89,0,0,1-.63-.5c-.16-.16-.2-.38-.53-.35-.11,0-.31-.43-.4-.69-.56-1.61,0-3.17.24-4.75.08-.54.22-1.07.33-1.62l-.67,0c-.13.18-.35.39.08.55l-.38.35c-.47-.25-.49-.23-.57.55L81,51.36c-.13.12-.23.23-.35.32s-.28.41-.55.14c0,0-.17.14-.27.21-.2-.24-.44-.19-.64.06a1.6,1.6,0,0,1-.63.41c-.06,0-.2-.17-.35-.31l-.84.22c.15.25.13.41-.2.46-.59.08-1.18.16-1.76.29a3.64,3.64,0,0,0-1.13.41,3,3,0,0,0-.62.74s0,.1,0,.14c-.94,1.34-1.57,2.91-2.9,4a3,3,0,0,1-4.79-1.1,6.8,6.8,0,0,1,.34-6.19c.06-.13.14-.26.26-.48l-.85-.37V51h.11l-.35.31c-.45-.25-.46-.24-.58.54l-.15-.4c-.37,0-.46.82-1,.36L63.6,52a1.26,1.26,0,0,0-.5,0,1.09,1.09,0,0,0-.55.35c-.29.44-.43.24-.59-.11l-.9.24c.18.26.11.4-.2.45a17.67,17.67,0,0,0-1.77.3,4,4,0,0,0-1.21.46c-.22.12-.35.42-.51.65,0,0,0,.13,0,.18-1,1.32-1.56,2.88-2.87,3.93a3,3,0,0,1-4.86-1.12,5.93,5.93,0,0,1-.49-3.4,3.53,3.53,0,0,0,0-.46Zm99.82-11.95c.07-.06.18-.11.2-.19a14.94,14.94,0,0,0,.49-1.61,12.53,12.53,0,0,0,.18-1.5l-.16,0c-.05.27-.11.55-.15.83a3.23,3.23,0,0,1-.22,1.12,1.79,1.79,0,0,0-.25,1,2.21,2.21,0,0,1-.08.37l-.45,1.44.26.05ZM48.18,21.57c-.27,0-.39.12-.52.41-.28.61-.18,1.43-.89,1.83,0,0,0,.09,0,.14-.09.3-.16.61-.27.91-.21.55-.85.95-.59,1.66a4,4,0,0,1-.32.69A4,4,0,0,0,44.81,29a.69.69,0,0,1-.21.37c-.31.25-.36.52,0,.88-.55-.05-.58.28-.59.52l.35.38c-.28.06-.58-.32-.65.22a1.72,1.72,0,0,1-.15.56c-.21.38-.49.72-.7,1.1a1.78,1.78,0,0,0-.28,1.52s-.15.15-.22.23l-.19-.14L39.6,39.78l.15.1a3.41,3.41,0,0,0,.51-.64c.31-.67.58-1.36.92-2.16l.2.4.51-.4h-.11l.14-.86.45.2L42.14,36l.34,0v-.86h.09l.16.31,3-6.6.14.06c0-.17-.46-.36,0-.48l-.27-.2c.51.12.43-.3.51-.52a7.59,7.59,0,0,0,.24-.8l-.19.09c-.12-.18-.23-.33-.33-.49l.5-.08.07-.27.06,0,0,.44h.06l.33-.65h-.12l-.24-.62.08-.05.42.36c.06-.22.06-.43.17-.55.27-.3.52-.56.06-.87.19,0,.47,0,.49,0a4.13,4.13,0,0,0,.14-.8l.31-.16L47.5,23l.07-.18.64.18v-1.4c.61-.37.69-.53.41-.88l-.07.27-.11,0,.2-.78-.22-.12C48,20.68,48,20.68,48.18,21.57ZM23.42,64.5l.08-.16-.08,0-.08.18a6,6,0,0,0-.17.73c-.1.81-.18,1.63-.27,2.45a4.85,4.85,0,0,0-.08.53,1.08,1.08,0,0,1-.44,1.05c-.19.12-.24.47-.34.73,0,.1,0,.27-.09.31-.59.31-.68,1-1,1.44a5.78,5.78,0,0,1-.53.58l-.12-.1c.18-.4.39-.8.56-1.2a22.56,22.56,0,0,0,1-2.7,19.81,19.81,0,0,0,.43-2.88,8.21,8.21,0,0,0-.08-.84,9.73,9.73,0,0,0-.48-2.55,3.87,3.87,0,0,0-3.06-2.76c-1.23-.34-2.49-.52-3.74-.79-1.09-.23-1.09-.23-1.31.92a6.21,6.21,0,0,1-.34,1l-.13,0c.06-.59.47-1.11.35-1.73-.09.93-1,1.65-.71,2.76l.24-.72.1,0-.31,1.16-.09,0,0-.35-.13,0c-.23.66-.48,1.32-.68,2s-.35,1.41-.52,2.11l.22.05.47-1.94.14,0-.91,3.74-.17,0,.29-1.23-.22,0-.55,2.64.48.08c-.25.21-.51.32-.58.5a6.53,6.53,0,0,0-.22,1.17c-.09.67-.16,1.33-.24,2,0,0,0,0,0,0l.36-.13L10.34,75h0l-.09-.5c-.35.47-.31.81,0,1L10.1,76l.12,0,.23-.32a3,3,0,0,1,.07.66,1.86,1.86,0,0,1-.28.43l.06,0,.18-.16.15.08c-.09.18-.19.34-.26.52,0,0,.07.1.1.16s.15.31.23.46l-.23.09a2.2,2.2,0,0,0,.24.89c.15.18.38.29.31.55a.72.72,0,0,0,.55.92,3.37,3.37,0,0,0,1.18.16,4,4,0,0,0,3-1.6,3.6,3.6,0,0,1,.47-.39,3.86,3.86,0,0,0,.38-.3,3.8,3.8,0,0,1,.29-.38c.41-.34.83-.66.87-1.24l.3.12.06.6.13,0a1.36,1.36,0,0,1,.92-1.12s0-.13.08-.14c.29-.08.08-.9.71-.48l.06-.16.09.43.53-.9-.75.23c0-.44.05-.5.46-.74a1,1,0,0,0,.48-1c.15,0,.34.12.43-.21s.43-.37.51-.6a3.93,3.93,0,0,1,1.2-2s0-.17,0-.24l-.55.25,0-.11.54-.29a1.7,1.7,0,0,1,0-.35c.44-.13.4-.55.48-.85a6.87,6.87,0,0,0,.35-2c0-.65.47-1.39-.2-2,0,0,0-.15,0-.23A2.3,2.3,0,0,0,23.42,64.5Zm95.07-4.84a54,54,0,0,0-8.16,4.9,11.11,11.11,0,0,0-2.37,1.9c-1.54,2-3.71,3.5-4.88,5.83-.26.53-.78.94-1.07,1.48-.57,1-1.27,2-1.74,3.12a36.58,36.58,0,0,0-1.88,5.7c0,.2-.15.39-.21.59a4.77,4.77,0,0,0-.25,1,29.33,29.33,0,0,0,.19,6.14A11.41,11.41,0,0,0,100,95.42a1.37,1.37,0,0,0,.69.44,5.78,5.78,0,0,0,5.22-1.21c2.11-1.62,3.4-3.92,4.81-6.08a36.52,36.52,0,0,0,2.54-4.89c.76-1.68,1.42-3.41,2.05-5.14.42-1.16.7-2.37,1-3.56a18.87,18.87,0,0,0,.75-2.39,44.9,44.9,0,0,1,1.23-6.4c0-.09,0-.28,0-.31-.39-.2-.15-.43-.07-.67a8.27,8.27,0,0,0,.31-1.26c.13-1,.15-2.07.34-3.08C119,60.35,119,60,118.49,59.66ZM36.27,41.2l.07,0,.22-.18c-.13.55-.25,1-.37,1.51s-.26,1-.36,1.51-.15.94-.22,1.41l.16,0c.95-1.7,2-3.36,2.83-5.12q2.67-5.58,5.15-11.24a62,62,0,0,0,3.45-8.24c.73-2.61,1.87-5.11,2.2-7.84.09-.75.23-1.49.31-2.23,0-.32,0-.65,0-1s-.12-.55-.54-.36a1.13,1.13,0,0,0-.36.24c-.45.52-.88,1.06-1.33,1.58-.1.12-.25.33-.34.31-.61-.14-.49.42-.68.67l.24-.12.09.1-1.44,1.89c-.14.31-.26.61-.41.9s-.23.26-.33.41-.38.53.1.73a2.81,2.81,0,0,0-.85,2.34l-.49.35.14,0a2.75,2.75,0,0,1-.14.49,62.52,62.52,0,0,0-3,7.46A18.8,18.8,0,0,1,39.27,29a.4.4,0,0,0,0,.13l.42.24a10.1,10.1,0,0,0-.78,2.12c-.17,1.27-.81,2.4-1,3.66,0,.1-.12.19-.18.28a2.11,2.11,0,0,0-.21.46c-.19.85-.34,1.7-.55,2.54-.09.35-.49.64-.19,1.07,0,.05,0,.16,0,.23Zm59.36-3.35c.14-.28.27-.48.35-.69.14-.4.24-.82.39-1.23.09-.25.24-.49.34-.74.4-1.14.84-2.27,1.18-3.42s1.16-2.16,1-3.45c.42-.46.31-1.1.52-1.64s.26-.89.39-1.33c0-.05,0-.12,0-.14.43-.26.38-.71.45-1.12s.06-.58.12-.86a3.56,3.56,0,0,1,.22-.79,13.08,13.08,0,0,0,1-3.8c.16-1.28.57-2.53.86-3.8a6.17,6.17,0,0,0,.35-2.48l-.06-.32-.16,0c-.42.91-.83,1.83-1.25,2.75-.06.11-.14.22-.2.33a12.42,12.42,0,0,0-.83,1.52c-.65,1.7-1.25,3.42-1.88,5.13-.12.33-.33.62-.44.94-.18.51-.31,1-.46,1.55a3.33,3.33,0,0,0-.21.54A7.37,7.37,0,0,1,96.36,28c0,.21.12.33.1.43-.09.33-.22.65-.31,1A17.3,17.3,0,0,0,95.53,32c-.1,1.17-.91,2.18-.73,3.4,0,0,0,.05,0,.07,0,.28-.1.56-.14.85a5.71,5.71,0,0,1-.08.71c-.12.46-.29.92-.44,1.37a.57.57,0,0,0,0,.13,5.48,5.48,0,0,1,0,.91c0,.2-.26.36-.28.54-.07.67-.09,1.34-.13,2l.12,0c.26-.53.53-1,.76-1.58.34-.75.64-1.51,1-2.27a.83.83,0,0,1,.16-.17l.11.31.26-.51Zm64.58-27-.23-.06c-.25.5-.5,1-.74,1.5-.15.3-.29.59-.43.89l-.42,1c-.1.22-.31.46-.27.65.08.36-.13.57-.25.83-.05.08-.12.19-.1.26.21.57-.11,1.07-.25,1.57-1,3.35-2,6.69-3,10-.1.33-.17.66-.28,1.08a11.33,11.33,0,0,0,1.19-.12.56.56,0,0,0,.38-.3c.21-.65.37-1.3.56-2,1-3.47,2.05-6.91,3-10.4C159.78,14.19,159.93,12.5,160.21,10.83Zm-28,38a6.92,6.92,0,0,0-2.53,1.27c-2.35,1.86-3.5,4.51-4.77,7.25a2.3,2.3,0,0,0,.6-.11,5.36,5.36,0,0,0,1-.65l5.69-5Zm-22.59,14a1.58,1.58,0,0,1-.27.42c-.59.53-1.19,1-1.79,1.56a19.69,19.69,0,0,0-4,4.08,7,7,0,0,1-1,1s0,.1,0,.17c-.39.52-.78,1-1.2,1.52s-.77.75-1.16,1.13c0,0,0,.05,0,.11l.19,0c-.59,1.29-1.18,2.55-1.75,3.83a9.66,9.66,0,0,0-.49,1.26c-.32,1-.63,2.06-.92,3.1-.08.27,0,.64-.16.82a1.38,1.38,0,0,0-.26,1,1,1,0,0,1,0,.47.91.91,0,0,0-.06.94c.25-.9.5-1.69.68-2.51a14.2,14.2,0,0,1,1.22-3.75,7.07,7.07,0,0,0,.4-1.16,2.59,2.59,0,0,0,.21-.3c.19-.34.36-.68.55-1s.48-.72.65-1.1.22-1,.76-1.28c0,0,0-.06.06-.1a4,4,0,0,1,.23-.55c.14-.22.41-.38.47-.61a2.93,2.93,0,0,1,.82-1.17c.66-.69,1.17-1.51,1.78-2.25a5,5,0,0,1,.74-.63c.19-.18.28-.48.49-.66a25.54,25.54,0,0,1,3.24-3c.39-.24.68-.65,1-.93s1-.66,1.45-1l.18.28.1,0v-.49l.09,0,.17.29.46-.25-.41-.12c.39.15.15-.9.6-.43a3.68,3.68,0,0,1,.39-.28c.17-.09.4-.09.53-.22A4.31,4.31,0,0,1,115.2,60a18.39,18.39,0,0,0,2.44-1.29c.1-.05.15-.16.23-.25a.89.89,0,0,0-.45.08,32.24,32.24,0,0,0-7.22,3.89A4.52,4.52,0,0,1,109.66,62.74ZM71.58,51.9c.28-.11.74-.15.85-.36a9.06,9.06,0,0,0,.72-1.94,2.55,2.55,0,0,0-.29-2.27c-.19-.27-.38-.38-.71-.14a9,9,0,0,1-1,.56c-.55.33-1.13.75-1.19,1.39a2.65,2.65,0,0,1-.65,1.71c-.23.25-.18.55.23.64Zm-16.42,0,0-.09a4.26,4.26,0,0,0,.62,0c.12,0,.3-.11.33-.21a25.56,25.56,0,0,0,.81-2.71,1.75,1.75,0,0,0-.49-1.65c-.1-.09-.31-.18-.4-.13a9.64,9.64,0,0,0-1.61,1,1.91,1.91,0,0,0-.78,1.1A2.7,2.7,0,0,1,53,50.89c-.24.27-.15.55.24.63Zm13,.22c-.67,1.72-1.62,3.31-.86,5.19,2.24-.29,3-2.12,4-3.72A6.39,6.39,0,0,1,68.17,52.14ZM51,57.36c2.24-.28,3-2.11,4-3.72a6.43,6.43,0,0,1-3.19-1.47C51.2,53.88,50.24,55.47,51,57.36Zm99.65-14.65.16,0,4.13-11.49-.13-.15a5.89,5.89,0,0,0-1.29.21c-.17.07-.21.47-.29.73a4.84,4.84,0,0,0-.19.65c-.55,2.24-1.08,4.5-1.64,6.75-.24,1-.53,2-.78,2.94A1,1,0,0,0,150.65,42.71ZM158.79,23l-.14,0c.88-3.65,2.39-7.15,2.52-11a11.51,11.51,0,0,0-.39,1.74,5.67,5.67,0,0,1-.69,2.19,2,2,0,0,0-.32,1.66,2.43,2.43,0,0,0-.37.6c-.29,1.09-.56,2.18-.83,3.27a5.79,5.79,0,0,0-.07.77c-.37.2-1.85,4.7-2,6.42l.9-.49c-.05-.2-.2-.46-.13-.54.3-.35.13-1,.66-1.19.07,0,.08-.31,0-.44a1.43,1.43,0,0,1,.28-1.22c.23-.21.51-.44.31-.89l-.22.57c0-.42.07-.36.43-1a12.84,12.84,0,0,0,.76-2.16l-.19-.06Zm-4.74,13.89.37,0c0-.13-.06-.24,0-.21.17-.17.31-.25.35-.35.14-.36.25-.73.37-1.09s.22-.67.36-1.13c0,0,.19-.15.2-.29,0-.59.47-1.13.28-1.77,0-.06.13-.16.16-.26a1.77,1.77,0,0,0,.11-.6.48.48,0,0,0-.39-.14.65.65,0,0,0-.32.37c-.23.62-.41,1.26-.62,1.88-.5,1.41-1,2.81-1.52,4.22a1.88,1.88,0,0,0-.1.47c0,.35-.52.58-.25,1,0,0,0,0,0,.06l-.15-.1-1.42,3.75.42,0c.55-1.24,1.08-2.45,1.64-3.65.1-.23,0-.65.46-.63a2.68,2.68,0,0,0-.07-.27.9.9,0,0,0-.07-.14l.33-.06-.08-.58.46-.07Zm-42,16.5.14.12,6.26-6.67V46A62.49,62.49,0,0,0,112,53.39Zm27.45,3.29.16.2c.93-.55,1.89-1,2.77-1.65,1.25-.86,2.44-1.8,3.65-2.71.18-.14.42-.31.12-.57,0,0-.08,0-.1,0a39.32,39.32,0,0,1-5.28,4,2.26,2.26,0,0,1-.54.16ZM44.4,13.9a37.86,37.86,0,0,0-3.82,7.47ZM148.49,43.41a32.88,32.88,0,0,0-1.19,6.29c.08,0,.13-.05.14-.09q.57-2.93,1.13-5.86A.84.84,0,0,0,148.49,43.41Zm1.38-5.71.2,0,1.47-6.2-.1-.05a3,3,0,0,0-.15.31c-.56,1.62-.65,3.36-1.34,5A2.93,2.93,0,0,0,149.87,37.7ZM28,50.78c.26-.05.64.26.75-.25,0,0,.17-.05.27-.07.89-.26,1.79-.49,2.67-.78.24-.08.42-.33.63-.5l-.1-.18C30.92,50,29.2,49.75,28,50.78Zm111.92,6.78.08.11a9.15,9.15,0,0,0,3.55-2.28c-1,.53-1.95,1.09-2.92,1.66C140.34,57.2,140.12,57.39,139.88,57.56Zm6.49-4.74-2.69,2.33.06.06,2.3-1.47c0-.13,0-.3.05-.29C146.62,53.49,146.44,53.12,146.37,52.82ZM23.75,52.09,23.66,52l-2.9.85,0,.17.7-.13c.66-.15,1.33-.31,2-.48C23.6,52.35,23.67,52.19,23.75,52.09ZM152.42,28.15l.16.06,1-3.56-.18,0ZM26.7,51.34l0-.15a5.85,5.85,0,0,0-2.46.69l.05.16ZM93.25,40.75l-.16,0-.48,3.47.17,0Zm18.56,47.54.13.07c.34-.69.69-1.37,1-2.07.06-.14,0-.34,0-.5h-.16l-.34.63.45-.18Zm-2.46,4.86.14.11,1.42-2.13-.15-.1Zm3.42-5.44-.12-.06c-.43.77-.85,1.54-1.27,2.31l.15.09Zm42.66-58.28v-.16h-1.22A.74.74,0,0,0,155.43,29.43ZM49.85,15c0,.23-.05.45-.06.67s0,.37.05.63c0,0,.24-.05.24-.1C50.09,15.81,50.39,15.39,49.85,15ZM38.57,26.14l.15.05.94-2.42-.14-.06Zm55.75,9-.17,0-.41,2.15.17,0Zm62.59-5.92-.07-.18a1.54,1.54,0,0,0-.63.12c-.13.08-.16.33-.23.51l.15.09ZM48.84,18.78l-.27.68c-.12.31-.11.34.41.45-.46-.5.16-.6.23-.94Zm51.88,5.94-.18,0L100,26.55l.13,0Zm13.54,59-.2-.17-.75,1,.19.15Zm.57-23,0-.07.55-.24-.07-.15-1.06.45.06.22.8-.13s0,0,0-.08Zm-11.59-46.5a2.72,2.72,0,0,0,.21-1.92Zm-1.35,7.73a1.58,1.58,0,0,0,.39-1.52ZM62.78,51.19v.06H64.3l0-.19Zm16.31,0v.06h1.5V51ZM102.83,17l-.17,0-.48,1.66.15,0Zm-2.54,10,.19.06.48-1.5-.14-.05ZM77.41,51.61c.32.44.65.27,1,.11v-.16Zm-15.33,0h-1C61.41,52.1,61.75,51.9,62.08,51.63Zm38.34-24.26-.18-.07-.4,1.28.19.06ZM26.76,50.92c.81.33.81.33,1-.21ZM37.41,30.23l-.17-.06-.46,1.32.16.06Zm75.85,56.14.16.09.47-1.15-.16-.06Zm38.39-53.8c-.08.23-.16.46-.23.68s-.14.44-.2.66l.11,0C151.76,32.79,151.76,32.79,151.65,32.57ZM99.29,31.12,99.06,31l-.35,1,.18.08Zm7.94,35.41.34-.7-.15-.12-.67.71Zm2.3,26-.13-.11-.91,1.21.1.07Zm8.53-34,.87-.34C118.39,57.93,118.17,58,118.06,58.52ZM49.52,17.91c.22-.59.19-.72-.11-.79l-.14.65Zm55.63,35.76c-.53-.24-.7-.14-.77.37Zm48.52-29.9.16.05.34-1.08-.19-.06Zm-60.44,16,.15,0,.32-1.4-.12,0Z"/><path class="af378666-a2bc-4938-a187-189aea4181ca" d="M60.83,83.24a.68.68,0,0,1-.41.64.7.7,0,0,1,.56.71c0,.52-.42.79-1.06.78H58.59V82.49h1.29C60.47,82.5,60.84,82.79,60.83,83.24Zm-.5.08c0-.23-.18-.37-.51-.37H59.1v.77h.69C60.11,83.71,60.33,83.59,60.33,83.32Zm.15,1.21c0-.24-.19-.39-.59-.39h-.8v.79h.83C60.27,84.93,60.48,84.79,60.48,84.53Z"/><path class="af378666-a2bc-4938-a187-189aea4181ca" d="M65.07,85.41l-.7-1h-.64v1h-.51l0-2.87h1.28c.66,0,1.07.35,1.06.92a.86.86,0,0,1-.69.87l.77,1.09ZM64.48,83h-.74v1h.74c.36,0,.59-.18.59-.48S64.85,83,64.48,83Z"/><path class="af378666-a2bc-4938-a187-189aea4181ca" d="M68.42,82.55l0,2.88h-.51l0-2.87Z"/><path class="af378666-a2bc-4938-a187-189aea4181ca" d="M72.2,85.5A1.44,1.44,0,0,1,70.72,84a1.47,1.47,0,0,1,1.49-1.48,1.58,1.58,0,0,1,1.11.39L73,83.3a1.1,1.1,0,0,0-.8-.31,1,1,0,0,0-.94,1,1,1,0,0,0,1,1,1.21,1.21,0,0,0,.7-.22v-.53h-.73v-.44h1.22v1.21A1.84,1.84,0,0,1,72.2,85.5Z"/><path class="af378666-a2bc-4938-a187-189aea4181ca" d="M76.25,84.26v1.21h-.51l0-2.87h.51v1.19h1.37V82.61h.5l0,2.87h-.5V84.27Z"/><path class="af378666-a2bc-4938-a187-189aea4181ca" d="M81.74,85.51h-.51l0-2.4h-.91v-.47l2.33,0v.47h-.91Z"/><path class="af378666-a2bc-4938-a187-189aea4181ca" d="M86.08,85.58a1.45,1.45,0,0,1-1.49-1.49,1.5,1.5,0,1,1,1.49,1.49Zm0-2.51a1,1,0,0,0-1,1,1,1,0,0,0,1,1,1,1,0,0,0,1-1A1,1,0,0,0,86.09,83.07Z"/><path class="af378666-a2bc-4938-a187-189aea4181ca" d="M91.89,82.69h.5l0,2.87H92l-1.57-2.06v2h-.5l0-2.87h.46l1.53,2Z"/><path class="af378666-a2bc-4938-a187-189aea4181ca" d="M93.48,85.58h-.21V85h.55v.47a.6.6,0,0,1-.64.68L93.13,86C93.38,85.91,93.5,85.79,93.48,85.58Z"/><path class="af378666-a2bc-4938-a187-189aea4181ca" d="M100.4,84.91h0l-.89-1.35v2H99l0-2.87h.54l.86,1.36.89-1.35h.54l0,2.88h-.51l0-2.06Z"/><path class="af378666-a2bc-4938-a187-189aea4181ca" d="M104.77,82.77l0,2.88h-.5l0-2.87Z"/><path class="af378666-a2bc-4938-a187-189aea4181ca" d="M108.53,85.72a1.49,1.49,0,0,1,0-3,1.49,1.49,0,0,1,1.12.45l-.33.37a1.13,1.13,0,0,0-.8-.36,1,1,0,0,0,0,2,1.14,1.14,0,0,0,.83-.37l.32.33A1.46,1.46,0,0,1,108.53,85.72Z"/><path class="af378666-a2bc-4938-a187-189aea4181ca" d="M112.41,84.48v1.21h-.51l0-2.87h.5V84h1.37V82.83h.51l0,2.87h-.5V84.49Z"/><path class="af378666-a2bc-4938-a187-189aea4181ca" d="M117.25,82.85l0,2.87h-.51l0-2.88Z"/><path class="af378666-a2bc-4938-a187-189aea4181ca" d="M121,85.79a1.43,1.43,0,0,1-1.48-1.49A1.47,1.47,0,0,1,121,82.82a1.54,1.54,0,0,1,1.1.4l-.32.38a1.17,1.17,0,0,0-.8-.32,1,1,0,0,0-.94,1,1,1,0,0,0,1,1,1.14,1.14,0,0,0,.7-.21v-.54H121v-.44h1.22v1.2A1.78,1.78,0,0,1,121,85.79Z"/><path class="af378666-a2bc-4938-a187-189aea4181ca" d="M127.31,85.78h-.53l-.29-.7h-1.36l-.3.69h-.51l1.28-2.88h.47Zm-1.49-2.3-.5,1.15h1Z"/><path class="af378666-a2bc-4938-a187-189aea4181ca" d="M131.5,82.93h.5l0,2.87h-.42L130,83.75v2h-.5l0-2.87H130l1.53,2Z"/><path class="b954040c-c3c2-471e-96e0-4ea83f137e75" d="M153.88,52.18a5.21,5.21,0,0,0-.86,2.38c0,.09,0,.19-.05.29-.19.84-.19.86.64,1.16a5.22,5.22,0,0,0,3.2-.07c.89-.24,1.77-.57,2.64-.9a26.51,26.51,0,0,0,3.92-1.76c.76-.45,1.59-.78,2.39-1.17.41-.2.8-.43,1.21-.65l.09.11a4.81,4.81,0,0,1-.51.5c-.38.27-.86.36-1.11.89a2.32,2.32,0,0,1-1,.84c-1.3.69-2.63,1.34-4,2a.87.87,0,0,0-.39.29l1.68-.24-.55.38.29.19c-.76.1-1.11.91-1.91.78,0,0-.11.06-.11.08,0,.51-.45.5-.74.62a11,11,0,0,1-3.57,1,3.4,3.4,0,0,1-3.47-2.4,6.91,6.91,0,0,1,.07-4.64A16.08,16.08,0,0,1,156.5,45a8.92,8.92,0,0,1,1.75-1.11,2.91,2.91,0,0,1,3.07.21c.08,0,.12.17.17.26a4.92,4.92,0,0,0,.59.87,1,1,0,0,1,.32,1c-.09.67-.16,1.33-.86,1.68-.07,0-.11.16-.14.24a5,5,0,0,1-1.89,2.22,6.6,6.6,0,0,0-.85.65,5,5,0,0,1-2.34,1.25A2.69,2.69,0,0,1,153.88,52.18Zm1.68-3.12.11.14c1.81-1,3.65-2,4.85-4.05-1.06.46-2.14.61-2.75,1.59l.4-.24v0Zm3.17,7.38v-.09l-1.8.13c.23.65.77.16.92.35Z"/></g></g></svg>