<svg xmlns="http://www.w3.org/2000/svg" viewBox="0 0 301.92 116.18"><defs><style>.a03326c4-ea7b-4af9-844a-eb539a990fa6{font-size:27.42px;font-family:GothamHTF-Medium, Gotham HTF;font-weight:500;letter-spacing:0.23em;}.a03326c4-ea7b-4af9-844a-eb539a990fa6,.bf4c4c5e-e60d-4d1a-8cf8-c3b89d760930{fill:#fff;}</style></defs><title>Asset 9FG_Cross</title><g id="f764df93-53a3-4c15-af41-718e8a6be563" data-name="Layer 2"><g id="a7b345ab-88cb-40ac-b17c-44a1cbbc0930" data-name="Layer 1"><text class="a03326c4-ea7b-4af9-844a-eb539a990fa6" transform="translate(116.93 92.74)">CHURCH</text><path class="bf4c4c5e-e60d-4d1a-8cf8-c3b89d760930" d="M141.35,58.25l.4-1.13-1.34,1.09-.19-.25a4.17,4.17,0,0,1,1.07-.79c.49-.17.58-.53.75-.91.31-.67.65-1.33,1-2-1.13.32-1.5,1.57-2.45,2.18a29,29,0,0,0-2.58,2l.09.14-3.94,3.56.19.22c.31-.26.65-.5.94-.79a2,2,0,0,1,1.7-.81l-1.36,1.26.1.12,2.11-1.76c-1.13,1.72-3.18,2.46-4.24,4.27l.6-.33s.07.06.07.07a5,5,0,0,1-.83,1.35,24.21,24.21,0,0,1-3.13,2.3c-3.26,2-6.14,1.1-8.53-1.59-1.51-1.69-2-3.82-2.3-6a16.15,16.15,0,0,1,.35-3.89,6.81,6.81,0,0,0-.22-2.91c-.8.28-1.28,1.23-2.31,1l-.08.44-.28-.43c-2.94,1.92-6.46,2.4-9.68,3.66-.06,0-.18-.13-.21-.16a2.32,2.32,0,0,1-.51.38c-.46.17-.94.29-1.4.46-.76.28-1.51.62-2.27.88s-1.56.51-2.36.72A7.22,7.22,0,0,0,97.59,62l.55.16c.47.12,1,.26,1.43.36.89.19,1.6.77,2.47,1A8.07,8.07,0,0,1,104.51,65a14.2,14.2,0,0,1,2.09,2,13.25,13.25,0,0,1,1.61,2.4,14.22,14.22,0,0,1,1,2.7,11.09,11.09,0,0,1-.08,6.33c-.17.58-.22,1.2-.4,1.81a22.12,22.12,0,0,1-2.36,5.22c-.69,1.17-1.3,2.38-2,3.56a8.31,8.31,0,0,1-1,1.44c-1.79,1.94-3.6,3.87-6.3,4.57a4,4,0,0,1-2.86-.37c-2.9-1.4-3.67-4.15-4.51-6.87a7.09,7.09,0,0,1-.22-1.22,1.79,1.79,0,0,1,.1-.48,2.28,2.28,0,0,1-.25-.59,32.58,32.58,0,0,1,.55-9,123.06,123.06,0,0,1,3.17-12.29c.06-.19.1-.39.15-.59-.86-.26-1.67-.47-2.46-.75a5.87,5.87,0,0,1-1.37-.69,1.61,1.61,0,0,1-.81-1.38c0-.86.23-1,1.07-1a32,32,0,0,0,3.92-.25,2.74,2.74,0,0,0,2.25-1.65c.13-.32.22-.65.34-1a13.7,13.7,0,0,1,2.07-4.24,6.2,6.2,0,0,0,.55-1.52c.43-1,.89-2,1.34-3a9.77,9.77,0,0,1,.58-1.22c2.08-3.22,3.46-6.79,5.38-10.09,1.34-2.28,2.83-4.48,4.28-6.7a4.84,4.84,0,0,1,.74-.83,1.37,1.37,0,0,1,2-.3l1.53.79c.34.17.47.75.17.95-2.63,1.77-4,4.5-5.62,7.11-.9,1.49-1.85,3-2.75,4.46-.29.47-.47,1-.74,1.49-.42.77-.89,1.52-1.3,2.3-.13.23,0,.57-.17.8-.28.57-.65,1.1-1,1.66s-.56,1.13-.85,1.7c-.13.25-.31.49-.45.75s-.17.4-.26.61a1.15,1.15,0,0,1-.39.53c.33,1.8-1.46,2.73-1.76,4.27L100,56l.09.05c-.13.26-.29.51-.4.78a.68.68,0,0,0,0,.54c.07.11.33.12.5.11a3,3,0,0,0,.79-.1.92.92,0,0,0,.53-.34l1.4-.39-.33.4a11.37,11.37,0,0,0,4.57-.93c0-.25,0-.46.11-.55a.54.54,0,0,1,.44,0c.06,0,.06.21.07.54l4.69-1.55-.15-.13.41-.81.29.61a.9.9,0,0,0,.16,0c1-.31,2-.6,2.94-.93a14.21,14.21,0,0,0,1.77-.71,2.65,2.65,0,0,1,1.77-.55c.15,0,.35-.2.52-.3l-.09-.14-3.73,1-.07-.24c.76-.26,1.52-.52,2.28-.76.2-.06.4-.08.6-.13,1.28-.31,1.46-.5,1.66-1.76.07-.4.08-.82.19-1.22.06-.22-.1-.65.4-.6,0-.34.08-.67.08-1a3.91,3.91,0,0,1-.08-.75,183.52,183.52,0,0,1,9.11-30.62c2.56-4.78,4.8-9.76,8.57-13.79.41-.43.91-.78,1.31-1.22A1.43,1.43,0,0,1,142,.11a4.46,4.46,0,0,1,3.09,4.18,14.88,14.88,0,0,1-.35,4.41c-.29,1.32-.48,2.67-.76,4a13.63,13.63,0,0,1-.6,2.19c-1.47,3.92-2.89,7.87-4.5,11.73-2.06,4.95-4.29,9.83-6.46,14.74a1.31,1.31,0,0,1-.3.46c-.24.21-.48.38-.29.76,0,.08-.05.23-.11.34-1.16,2.11-2.3,4.22-3.48,6.32a15.27,15.27,0,0,1-4.35,5.23c-.71.51-.69,1.36-.83,2.12-.09.55-.23,1.08-.34,1.62a1.2,1.2,0,0,0-.09.29c0,2,.08,3.95.19,5.92a6.09,6.09,0,0,0,.52,1.54l.16,0,0-.29.15,0,.12.83s.15,0,.2,0c.5.69,1.09.3,1.65.14a14.27,14.27,0,0,0,5.29-3.1q6.2-5.28,12.33-10.6a2.23,2.23,0,0,0,.63-1.13,4.46,4.46,0,0,1,4.94-3.45,7.56,7.56,0,0,1,3.71,1.4A4.19,4.19,0,0,1,154,55c-.07.18-.15.36-.26.62a52,52,0,0,0,9.42-2.9,2.44,2.44,0,0,1,.34-.14,1.94,1.94,0,0,0,1.45-1.46,4.17,4.17,0,0,1,4.41-2.77,6.72,6.72,0,0,1,4.79,2.13,4.08,4.08,0,0,1,.65,4.5,8.1,8.1,0,0,1-.33.77c2.23-.65,4.31-1.2,6.35-1.86,1.39-.45,2.74-1,4.08-1.59a2.52,2.52,0,0,0,1-.8,7.41,7.41,0,0,1,4.49-3.35,6,6,0,0,1,2.93.25,6.1,6.1,0,0,1-1.76,5.28c-.47-.09-.57-.43-.57-.82,0-.61,0-1.23,0-1.84a2.06,2.06,0,0,0-.17-.57c-.22.09-.45.17-.66.27a.4.4,0,0,0-.14.19c-1,2.35-2,4.68-2.93,7.06a8.32,8.32,0,0,0-.38,4,10.55,10.55,0,0,0,3.25-2.62c1.37-1.76,2.6-3.61,3.94-5.38a3,3,0,0,0,.72-2.65,8.43,8.43,0,0,1,.17-2.1c0-.39,0-.79,0-1.17.2-2,.42-4,.63-6,0-.33.06-.66.12-1,2-10.18,4.17-20.31,8.28-29.89,1.2-2.8,2.6-5.5,3.94-8.23a1.28,1.28,0,0,1,.67-.56A5.23,5.23,0,0,1,210,2.05a3.31,3.31,0,0,1,3,2.62,10,10,0,0,1-.91,5.49l.05-.56-.11,0-.29,1.34.37-.34a4.8,4.8,0,0,1,0,.54c-.15.79-.28,1.58-.46,2.35-.27,1.13-.57,2.25-.86,3.37,0,0,0,0,0,.06-.55.88-.32,2.08-1.28,2.82l.27.13L209.45,21l.11.07.26-.19s.05.08,0,.1c-.41.82-.4,1.79-1,2.54-.27.3-.19.9-.28,1.36,0,.07-.09.14-.09.22a2.25,2.25,0,0,1,0,.59,6.3,6.3,0,0,1-.45.9c-.06.09-.22.15-.24.24a5.39,5.39,0,0,0-.06.78c.31.26.14.93-.53,1.31l.34.54-.61-.06.21.76c-.69.06-.63.59-.65,1.14a15.81,15.81,0,0,1-.24,1.94.56.56,0,0,1-.29.35c-.44.2-.47.54-.52,1-.1.88.08,1.86-.65,2.57a2.91,2.91,0,0,1-.77.39l0-.66h-.16l-.18.63.82.35c0,.78-1.33,1.31-.57,2.14a5.33,5.33,0,0,0-.5.68c-.12.23-.13.52-.26.75s-.29.16-.44.24l-.14-.15-.55,1.39a1.73,1.73,0,0,1-.34,2.47,1,1,0,0,0-.41.87c0,.19-.15.38-.22.58s-.11.34-.18.56c-1-.15-.22.61-.35,1-.28,0-.75-.09-.38.46-.58.56-.13,1.79-1.3,1.92.3,1-.3,1.57-.81,2.17a.85.85,0,0,0-.22.9c.21.78.34,1.59.49,2.39,0,.1,0,.22,0,.31l1.64,3.94a3.09,3.09,0,0,1,.69.17,2.58,2.58,0,0,0,2.73.23,12.48,12.48,0,0,1,2.26-.59,24.92,24.92,0,0,0,8.24-4.61c1.84-1.41,3-3.36,4.37-5.07.81-1,1.7-1.86,2.6-2.74a1.2,1.2,0,0,1,.85-.25,22.07,22.07,0,0,1,2.25.39,1.65,1.65,0,0,1,1.49,1.93,5.38,5.38,0,0,1-.16,1.8,2.25,2.25,0,0,1-3.05,1.26.84.84,0,0,1-.52-1.15,2.14,2.14,0,0,0,.07-.88c-3.41,3.37-4.79,7.71-6,12.14a13.75,13.75,0,0,0,3.72-3,62.08,62.08,0,0,0,4.88-5.9,38.92,38.92,0,0,1,4.47-5.34c1.36-1.42,1.3-1.13,3.09-.34.15.06.24.31.31.49a19.24,19.24,0,0,1,1,6.81c0,2.17-.07,4.33-.09,6.5,0,.72.12.74.84.74.94,0,1.31-.39,1.54-1.29a18.56,18.56,0,0,1,3.15-6.24c1-1.42,1.95-2.92,3.1-4.23a5.22,5.22,0,0,1,7.77-.78,3.07,3.07,0,0,1,.64,3.27c-.16.35-.36.69-.59,1.15a2.69,2.69,0,0,0,.72-.18c1.36-.82,2.52-.2,2.84,1.53a3.22,3.22,0,0,1-.41,2.49c-.07.1-.15.24-.12.33a4.8,4.8,0,0,1-.22,2.6c-.08.47-.1,1-.17,1.61.92-.21,1.68-.35,2.42-.56a22.84,22.84,0,0,0,8.76-5A25.25,25.25,0,0,0,266,54.85a2.32,2.32,0,0,0,.33-1.15,174.11,174.11,0,0,1,4.9-22.45c0-.13.07-.28.1-.42a2.21,2.21,0,0,0-.08-.27c-.71.08-1.46.12-2.19.24-1.32.21-2.63.48-3.95.7a3.15,3.15,0,0,1-.92,0c-1.08-.16-1.33-.5-1.33-1.73s.46-1.93,1.37-2.05c1.75-.21,3.5-.37,5.25-.55.86-.09,1.72-.2,2.58-.28.41,0,.53-.3.63-.63,1.19-4,2.36-8,3.59-12,.91-2.94,1.83-5.88,2.85-8.78a9.71,9.71,0,0,1,3-4.55,1.35,1.35,0,0,1,1-.26,2.83,2.83,0,0,1,2.2,2.18,8,8,0,0,1,.07,3.73A2.2,2.2,0,0,0,285.44,8c.23.33.25.61.09.82-.71.93-.66,2.06-.87,3.12a5,5,0,0,1-.87,2.52c-.22.25-.15.75-.19,1.14a33.89,33.89,0,0,1-2,7.17c-.42,1.26-.75,2.55-1.16,4l3.68.09c1.59,0,3.17.06,4.76.13,2.3.1,4.61.19,6.91.37a14.73,14.73,0,0,1,6.1,1.69c-.76.33-1.4,0-2.05-.1a5.35,5.35,0,0,0-.67-.24,54.59,54.59,0,0,0-9.95-1c-2.68-.12-5.35-.25-8-.4-.72,0-1,.19-1.12,1l.92.18.22-.51c.37.46.75.65,1.27.32.09-.06.26,0,.4,0a9.75,9.75,0,0,0,1.21,0c.46-.05.87-.11,1,.54l.58-.23c.14-.05.29-.16.41-.14a6,6,0,0,0,1,.3c1.21,0,2.41,0,3.62,0l-.43-.33H291c.2.19.32.4.47.43a4,4,0,0,0,1.09.12c.85,0,1.71,0,2.6-.07l.06.2c.25,0,.45,0,.57.07a1.2,1.2,0,0,1,.27.42,3.86,3.86,0,0,1,1.28-.67,19.76,19.76,0,0,1,2.55,0l.35.19-.08.22c-.64,0-1.27,0-1.9,0-.33,0-.62-.15-.81.3s-.49.32-.73-.12l-1.51.42s0-.08-.09-.18l-.77.22,0-.35c-.36.15-.82-.37-1.15.19-.06.11-.35.15-.52.13a85.25,85.25,0,0,0-12.48-.18c-.44,0-.61.17-.74.62-.49,1.67-1.14,3.28-1.58,5-1.11,4.29-2.9,8.34-4.39,12.49a49.8,49.8,0,0,1-2.89,6,17.76,17.76,0,0,0-2.32,6.14c-.2,1.71-.22,3.44-.33,5.16,0,.78-.16,1.55-.17,2.33-.05,3.23.13,6.43,1.87,9.3a13.33,13.33,0,0,0,.92,1.19,3.74,3.74,0,0,1-2.12-.8,7.83,7.83,0,0,1-2.72-4.84c-.13-.56-.37-1.1-.5-1.66a4.09,4.09,0,0,1,.05-.77c-.06-1.66-.21-3.33-.16-5,0-.58.36-1.18.25-1.81,0-.15-.14-.29-.13-.43,0-.78.09-1.55.19-2.32a6,6,0,0,1,.3-1l-.19-.09c-.56.5-1.11,1-1.68,1.48a36.43,36.43,0,0,1-9.12,5.51c-1.58.67-4.32-.39-4.36-2.77,0-1.66,0-3.32,0-5.12-1.44,1.13-2.9,2.19-4.25,3.36s-2.67,2.51-3.92,3.69c.71,1,1.43,2.11,2.13,3.19.13.21.3.42.07.77-.11.16.2.61.31.93s.39.5,0,.81c-.08.06.09.4.1.62a6.19,6.19,0,0,1,0,.74h-.19c-.1-.63-.16-1.27-.3-1.9a6.6,6.6,0,0,0-2.74-4,.85.85,0,0,0-1.1-.07,4.44,4.44,0,0,1-2.51.76c-1,0-1.76-.23-2-1.31-.12-.55-.49-.63-1-.56a6.39,6.39,0,0,0-1.38.29,1,1,0,0,0-.43.69c-.16,1.45-.27,2.91-.38,4.37a15.23,15.23,0,0,1-.82,4.59c0,.08-.08.17-.06.24.46,2.08-.15,4-.64,6-.08.32,0,.67-.12,1s-.22.84-.33,1.27c-.05.17-.06.36-.1.53-.38,1.62-.7,3.26-1.17,4.86a30.92,30.92,0,0,1-1.25,3.13c0,.11-.2.23-.18.31.24,1.15-.69,2-.84,3a6.81,6.81,0,0,1-1,1.83,2.12,2.12,0,0,0-.13.51c0,.06,0,.14,0,.18a7.58,7.58,0,0,0-.79,1.8c-.15.3-.28.6-.41.9a11.89,11.89,0,0,1-.63,1.46c-.3.51-.71,1-1,1.45a1.72,1.72,0,0,0-.12.53c0,.14,0,.32-.1.4-.55.48-.69,1.22-1.12,1.79-.69.9-.93,2.09-1.87,2.84a1,1,0,0,0-.19.31c-1.73,3.29-4.62,5.21-7.95,6.5a4.75,4.75,0,0,1-2.48-.18,9.44,9.44,0,0,1-5.37-3.83,25.35,25.35,0,0,1-3.52-7.43,9.35,9.35,0,0,1-.26-1.92c0-.07.08-.15.12-.23l.21-.52-.2-.09-.19.38a1.16,1.16,0,0,1-.06-.16c-.74-5.82.85-11.12,3.61-16.15.79-1.45,1.56-2.91,2.46-4.28s1.85-2.48,2.78-3.71l.18.14-.84,1.17a54.83,54.83,0,0,0-5.53,9.33,30.84,30.84,0,0,0-2.12,7.2c-.24,1.49-.22,3-.31,4.54a2,2,0,0,0,.08.44c.2-1.39.37-2.63.56-3.86.13-.85.32-1.68.44-2.53.45-3.2,2.06-6,3.38-8.82a31.43,31.43,0,0,1,5.4-8A25.77,25.77,0,0,1,213,74.4c.72-.57,1.38-1.21,2.08-1.79s1.22-1.23,1.85-1.81a5.73,5.73,0,0,1,1-.73c.32-.19.68-.33.34-.93l.23.09.18.46c.6-.5,1.16-1,1.71-1.43.11-.09.21-.32.28-.3.9.2,1.2-.8,1.91-1,.11,0,.16-.28.26-.47l.27.21c.06-.16.12-.31.17-.47,2.22-.62,2.22-.62,2.37-1,.51.26.87-.12,1.28-.29.68-.28,1.12-1,1.93-1a3.35,3.35,0,0,0,1.25-.68.47.47,0,0,0,.15-.37q-.06-5.69-.13-11.37l-.11-.08c-1.11,1.42-2.23,2.83-3.33,4.25-2.15,2.79-4.12,5.73-6.73,8.13l-1.43,1.29a3.14,3.14,0,0,1-4.33,0c-1.27-1.09-1-2.35-1-3.65,0-.53.14-1.05.24-1.75a6.27,6.27,0,0,0-1,.34,5.45,5.45,0,0,0-1.69,1.19c-.61.92-1.59,1-2.41,1.39a6.66,6.66,0,0,1-2.73,1.05,15.78,15.78,0,0,1-3.07.12,6.82,6.82,0,0,1-2.9-1.3A9.59,9.59,0,0,1,197.12,59c-.38-.77-.73-1.55-1.14-2.43l-1.12,1.91a15.62,15.62,0,0,1-4.25,5,19,19,0,0,1-1.91,1.11,3.47,3.47,0,0,1-3.21-.06,2.57,2.57,0,0,1-.8-.64c-.2-.21-.25-.49-.67-.45-.15,0-.4-.55-.51-.88-.71-2,0-4,.31-6.06.11-.69.28-1.36.43-2.06l-.86-.06c-.17.23-.44.5.11.7l-.49.45c-.6-.32-.63-.3-.73.7l-.23-.58c-.16.15-.29.29-.44.41s-.37.52-.7.17a3.64,3.64,0,0,0-.35.28c-.26-.31-.56-.25-.82.08a2,2,0,0,1-.8.51c-.07,0-.26-.22-.45-.39l-1.07.28c.2.31.16.52-.25.58-.76.11-1.51.2-2.25.37a4.67,4.67,0,0,0-1.44.52,3.83,3.83,0,0,0-.79.94s0,.13-.05.18c-1.21,1.7-2,3.71-3.71,5.05a3.81,3.81,0,0,1-6.12-1.42c-1.27-2.69-.81-5.32.45-7.89.08-.16.18-.32.34-.6l-1.09-.47v.89h.14l-.45.4c-.57-.32-.58-.31-.73.68l-.19-.5c-.48.05-.59,1-1.3.45l-.11.26a2.08,2.08,0,0,0-.64,0,1.44,1.44,0,0,0-.71.44c-.37.57-.55.31-.76-.14l-1.14.3c.22.34.14.52-.26.58-.76.11-1.51.2-2.25.37a5.92,5.92,0,0,0-1.55.59c-.28.16-.45.54-.66.83,0,.06,0,.17-.06.23-1.21,1.68-2,3.67-3.67,5a3.84,3.84,0,0,1-6.2-1.45,7.5,7.5,0,0,1-.61-4.33,2.89,2.89,0,0,0,0-.59Zm127.35-15c.09-.09.22-.15.26-.25.22-.68.47-1.36.62-2a17.67,17.67,0,0,0,.24-1.92l-.21,0c-.06.36-.13.71-.19,1.06a4.29,4.29,0,0,1-.28,1.44,2.32,2.32,0,0,0-.33,1.28,3.94,3.94,0,0,1-.1.47l-.57,1.83.32.08ZM140.26,17.6c-.35,0-.5.16-.66.51-.36.79-.23,1.83-1.15,2.34,0,0,0,.12,0,.17-.11.39-.21.79-.35,1.17-.26.7-1.08,1.21-.75,2.12a5.92,5.92,0,0,1-.41.88A4.9,4.9,0,0,0,136,27a.83.83,0,0,1-.27.47c-.4.33-.46.66,0,1.13-.7-.06-.74.35-.75.67l.44.48c-.35.07-.73-.41-.83.27a1.92,1.92,0,0,1-.19.72c-.27.48-.62.92-.9,1.4a2.27,2.27,0,0,0-.36,1.93c0,.06-.18.2-.28.3l-.24-.18-3.27,6.6.2.13a4.53,4.53,0,0,0,.65-.81c.4-.85.75-1.73,1.18-2.75l.25.51.65-.51-.14,0,.18-1.09.58.25-.3-.56L133,36v-1.1l.11,0,.21.4,3.85-8.41.16.07c0-.21-.57-.46.05-.6l-.35-.27c.65.16.55-.37.66-.65s.2-.66.31-1l-.25.12-.42-.62.64-.11.09-.34.08,0,0,.57h.07l.42-.84-.14,0-.32-.79.11-.07.53.46c.08-.27.08-.54.22-.69.35-.38.67-.72.09-1.12.23,0,.59.06.62,0a5.24,5.24,0,0,0,.18-1l.39-.2-.84-.39.09-.23.82.23V17.62c.78-.46.89-.67.53-1.11l-.09.34-.14,0,.25-1-.27-.17C140.08,16.46,140.08,16.46,140.26,17.6ZM108.58,72.3l.1-.21-.1,0a1.6,1.6,0,0,0-.1.23,7.67,7.67,0,0,0-.22.92c-.13,1-.23,2.09-.35,3.13a5.43,5.43,0,0,0-.1.67,1.39,1.39,0,0,1-.58,1.35c-.24.15-.3.6-.43.92,0,.13,0,.35-.11.4-.75.39-.87,1.22-1.29,1.83a6.87,6.87,0,0,1-.68.75l-.16-.14c.24-.51.51-1,.72-1.53a29.13,29.13,0,0,0,1.31-3.43,26.53,26.53,0,0,0,.54-3.68,9.5,9.5,0,0,0-.1-1.06,12.58,12.58,0,0,0-.6-3.26,5,5,0,0,0-3.9-3.54c-1.56-.42-3.17-.66-4.76-1-1.4-.3-1.4-.3-1.67,1.16a10.25,10.25,0,0,1-.45,1.28L95.5,67c.06-.75.59-1.41.44-2.21-.12,1.2-1.33,2.12-.92,3.53l.31-.92.13,0-.4,1.48-.11,0,0-.44-.16,0c-.29.85-.62,1.69-.87,2.54s-.46,1.8-.68,2.69l.28.07.6-2.48.19,0L93.1,76.08l-.21,0,.37-1.57L93,74.4l-.7,3.36.61.11c-.32.26-.66.4-.74.63a7.37,7.37,0,0,0-.28,1.5c-.12.84-.22,1.69-.32,2.54,0,0,0,.06,0,0L92,82.4l-.14,3.22h-.05L91.7,85c-.45.61-.39,1,0,1.3l-.16.6.14,0,.3-.41a3.07,3.07,0,0,1,.08.84,1.68,1.68,0,0,1-.36.55l.09.06.23-.2.19.11c-.12.22-.24.43-.34.66,0,0,.08.13.12.2l.3.59-.29.11a3,3,0,0,0,.3,1.14c.19.22.49.37.4.7a.9.9,0,0,0,.7,1.17,4.49,4.49,0,0,0,1.51.22,5.13,5.13,0,0,0,3.82-2,4.22,4.22,0,0,1,.61-.49,4.42,4.42,0,0,0,.47-.39,4.57,4.57,0,0,1,.38-.49c.52-.43,1.06-.83,1.11-1.57l.38.15.08.76.16,0a1.72,1.72,0,0,1,1.18-1.42c.05,0,.05-.17.1-.18.37-.11.11-1.15.91-.61l.08-.21.11.56.68-1.16-1,.3c0-.56.06-.63.59-.94a1.34,1.34,0,0,0,.61-1.27c.19,0,.43.17.55-.26s.55-.47.66-.77A5,5,0,0,1,108,80.18c.05,0,0-.22,0-.31l-.7.32-.06-.13.69-.38a1.93,1.93,0,0,1,0-.45c.55-.17.51-.69.61-1.08a9,9,0,0,0,.45-2.59c-.05-.83.61-1.76-.25-2.52,0,0,0-.2,0-.29A3.31,3.31,0,0,0,108.58,72.3Zm121.27-6a68.67,68.67,0,0,0-10.42,6.23,13.9,13.9,0,0,0-3,2.42c-2,2.57-4.74,4.46-6.24,7.43-.34.67-1,1.19-1.38,1.88-.73,1.33-1.61,2.59-2.21,4a45.18,45.18,0,0,0-2.43,7.26c-.06.26-.18.5-.26.76a5.55,5.55,0,0,0-.31,1.23,36,36,0,0,0,.22,7.83,14.36,14.36,0,0,0,2.36,6.54,1.71,1.71,0,0,0,.88.58A7.41,7.41,0,0,0,213.7,111c2.69-2.07,4.34-5,6.15-7.75A47.19,47.19,0,0,0,223.1,97c1-2.14,1.82-4.34,2.62-6.56.54-1.48.9-3,1.36-4.53a26.24,26.24,0,0,0,1-3,56.79,56.79,0,0,1,1.58-8.16c0-.12,0-.36,0-.39-.5-.26-.19-.55-.09-.87a9.85,9.85,0,0,0,.4-1.6c.17-1.31.2-2.63.44-3.92A1.26,1.26,0,0,0,229.85,66.35ZM125,42.6l.09.06.27-.23c-.16.7-.31,1.31-.47,1.93s-.34,1.27-.47,1.92-.19,1.2-.28,1.8l.21.06c1.21-2.17,2.55-4.28,3.62-6.52q3.42-7.11,6.6-14.33c1.53-3.47,3.38-6.8,4.41-10.49.94-3.34,2.4-6.53,2.83-10,.12-1,.29-1.89.41-2.84,0-.41,0-.82,0-1.23,0-.58-.15-.71-.68-.46a1.41,1.41,0,0,0-.46.3l-1.7,2c-.13.15-.32.42-.43.39-.79-.19-.63.53-.87.85l.3-.15.12.13-1.85,2.4c-.18.4-.33.78-.52,1.15-.11.19-.3.34-.42.53s-.49.67.12.93a3.55,3.55,0,0,0-1.09,3l-.62.45.18,0a3.26,3.26,0,0,1-.18.63,80.88,80.88,0,0,0-3.86,9.51,22.39,22.39,0,0,1-1.41,2.64.84.84,0,0,0,0,.17l.53.31a12.88,12.88,0,0,0-1,2.71c-.22,1.61-1,3-1.23,4.66,0,.13-.17.23-.23.36a2.38,2.38,0,0,0-.28.58c-.24,1.08-.43,2.17-.71,3.23-.11.46-.63.82-.25,1.37,0,.06,0,.2,0,.3C125.44,41.37,125.23,42,125,42.6Zm75.71-4.12a8.57,8.57,0,0,0,.46-.88c.18-.52.31-1.05.49-1.57.12-.32.32-.62.44-.94.52-1.45,1.08-2.89,1.52-4.36s1.47-2.76,1.34-4.4c.54-.59.4-1.4.67-2.09a15.86,15.86,0,0,0,.5-1.7c0-.06,0-.15,0-.17.55-.34.49-.91.58-1.43.06-.36.08-.74.15-1.1a5.07,5.07,0,0,1,.29-1A17.43,17.43,0,0,0,208.57,14a46,46,0,0,1,1.1-4.86A7.9,7.9,0,0,0,210.12,6c0-.14-.05-.27-.08-.41l-.2,0L208.24,9c-.07.14-.17.27-.25.42a15.25,15.25,0,0,0-1.06,1.94c-.84,2.17-1.61,4.36-2.42,6.54-.15.41-.42.78-.57,1.2-.22.65-.38,1.32-.59,2a3.79,3.79,0,0,0-.26.68,9.63,9.63,0,0,1-1.38,4.12c.06.27.15.42.12.54-.11.42-.28.83-.39,1.26a20.79,20.79,0,0,0-.8,3.34c-.14,1.5-1.17,2.78-.95,4.34,0,0-.06.06-.06.1-.07.35-.13.71-.18,1.07a6.85,6.85,0,0,1-.1.91c-.16.59-.38,1.17-.57,1.75a1,1,0,0,0,0,.17,7.46,7.46,0,0,1,0,1.16c0,.24-.33.45-.36.69-.09.84-.11,1.7-.16,2.55l.15.06c.33-.68.67-1.34,1-2,.42-1,.81-1.92,1.23-2.88a.83.83,0,0,1,.2-.22l.15.39.33-.65ZM283.18,4.17l-.29-.08c-.32.64-.64,1.28-.95,1.92-.18.37-.37.75-.54,1.13s-.36.85-.55,1.27-.39.59-.34.83c.1.46-.17.72-.33,1.06-.05.1-.15.24-.12.33.26.73-.14,1.36-.33,2-1.25,4.27-2.54,8.53-3.82,12.8-.12.42-.22.84-.36,1.38.6-.06,1.07-.07,1.52-.16a.69.69,0,0,0,.49-.38c.27-.82.48-1.65.72-2.48,1.27-4.42,2.62-8.81,3.8-13.26C282.62,8.46,282.83,6.29,283.18,4.17ZM247.43,52.51a8.78,8.78,0,0,0-3.22,1.61c-3,2.37-4.48,5.75-6.11,9.23a2.64,2.64,0,0,0,.77-.13,6.93,6.93,0,0,0,1.29-.83c2.52-2.18,5-4.39,7.27-6.38ZM218.58,70.26a1.85,1.85,0,0,1-.34.53c-.75.68-1.52,1.34-2.29,2A25,25,0,0,0,210.88,78a8.63,8.63,0,0,1-1.25,1.24.3.3,0,0,1,0,.22c-.49.66-1,1.32-1.53,1.93s-1,1-1.48,1.44c0,0,0,.07,0,.14l.25,0c-.76,1.64-1.51,3.26-2.25,4.88a15.79,15.79,0,0,0-.63,1.61c-.41,1.31-.8,2.63-1.18,4-.1.35,0,.82-.21,1a1.83,1.83,0,0,0-.33,1.3,1.48,1.48,0,0,1-.06.6,1.15,1.15,0,0,0-.08,1.2c.32-1.15.64-2.16.88-3.2a17.51,17.51,0,0,1,1.56-4.78,10.05,10.05,0,0,0,.52-1.48,2.56,2.56,0,0,0,.26-.38c.25-.43.46-.87.71-1.3a15,15,0,0,0,.83-1.39c.26-.58.27-1.3,1-1.63,0,0,.06-.08.08-.13a4,4,0,0,1,.3-.7c.17-.28.51-.49.6-.78a3.47,3.47,0,0,1,1.05-1.49c.83-.88,1.49-1.92,2.26-2.87a7.44,7.44,0,0,1,1-.8c.25-.22.37-.61.63-.84,1.41-1.24,2.51-2.81,4.15-3.82.49-.3.86-.82,1.33-1.18s1.23-.84,1.85-1.26l.23.36.12,0v-.64l.12,0,.23.37.57-.33-.51-.15c.49.2.19-1.15.77-.54a3.58,3.58,0,0,1,.49-.36c.22-.11.51-.12.67-.27a5.71,5.71,0,0,1,2-1.12,23.29,23.29,0,0,0,3.13-1.63c.11-.06.19-.21.28-.32a1.24,1.24,0,0,0-.57.1,41.37,41.37,0,0,0-9.22,5C219.07,70,218.83,70.13,218.58,70.26ZM170,56.35c.37-.15.95-.19,1.1-.47a11.25,11.25,0,0,0,.91-2.47,3.28,3.28,0,0,0-.35-2.9c-.25-.34-.49-.48-.91-.17a14.61,14.61,0,0,1-1.29.71c-.71.42-1.45,1-1.52,1.77a3.36,3.36,0,0,1-.84,2.17c-.29.33-.22.7.29.82Zm-20.94,0,0-.11a5.34,5.34,0,0,0,.8,0c.15,0,.37-.14.41-.26a31.14,31.14,0,0,0,1-3.46,2.25,2.25,0,0,0-.62-2.11c-.12-.11-.39-.22-.5-.16a12.23,12.23,0,0,0-2.07,1.22,2.45,2.45,0,0,0-1,1.4,3.38,3.38,0,0,1-.85,2.17c-.31.35-.19.7.3.81C147.45,56,148.27,56.15,149.09,56.32Zm16.6.32c-.86,2.19-2.08,4.22-1.12,6.61,2.87-.36,3.79-2.69,5.18-4.73A8.14,8.14,0,0,1,165.69,56.64Zm-21.92,6.61c2.86-.35,3.79-2.68,5.18-4.73a8.1,8.1,0,0,1-4.06-1.88C144,58.81,142.81,60.84,143.77,63.25ZM270.91,44.81l.21,0,5.29-14.65-.16-.18a6.85,6.85,0,0,0-1.65.26c-.21.08-.26.6-.37.92A6,6,0,0,0,274,32c-.7,2.87-1.39,5.74-2.1,8.6-.32,1.26-.69,2.51-1,3.76A1.53,1.53,0,0,0,270.91,44.81Zm10.44-25.13-.19,0c1.14-4.65,3.08-9.11,3.25-14a13.18,13.18,0,0,0-.5,2.22,7.19,7.19,0,0,1-.89,2.79,2.48,2.48,0,0,0-.41,2.11,3.81,3.81,0,0,0-.48.77c-.37,1.39-.72,2.78-1.06,4.18a6.82,6.82,0,0,0-.09,1c-.48.25-2.38,6-2.61,8.18l1.15-.61c-.07-.26-.25-.59-.16-.69.38-.46.16-1.24.84-1.53.09,0,.1-.38.05-.55a1.75,1.75,0,0,1,.36-1.55c.29-.28.64-.57.38-1.15l-.28.74c0-.54.09-.46.56-1.27a15.71,15.71,0,0,0,1-2.75l-.24-.08ZM275.27,37.4l.47.06-.07-.27c.23-.22.4-.31.45-.45.18-.45.32-.92.47-1.39s.28-.85.47-1.43c0,0,.25-.19.26-.37.05-.76.59-1.45.36-2.26,0-.08.16-.2.2-.33a2.55,2.55,0,0,0,.14-.77c0-.08-.37-.23-.49-.18a.9.9,0,0,0-.42.48c-.28.79-.51,1.6-.8,2.39-.63,1.8-1.29,3.58-1.93,5.37a2.61,2.61,0,0,0-.14.6c0,.45-.67.75-.31,1.29a.45.45,0,0,0-.06.08l-.19-.14-1.82,4.79.54,0c.7-1.58,1.38-3.12,2.09-4.65.13-.28,0-.83.59-.8,0-.11-.05-.23-.08-.35a1.47,1.47,0,0,0-.09-.17l.42-.07-.11-.75.59-.09ZM221.61,58.33l.17.17,8-8.5V49A82.69,82.69,0,0,0,221.61,58.33Zm35,4.27.21.25c1.18-.69,2.41-1.32,3.54-2.09,1.59-1.1,3.12-2.29,4.66-3.45.23-.18.53-.4.16-.73-.06,0-.1,0-.13.06a50.42,50.42,0,0,1-6.75,5.07,2.42,2.42,0,0,1-.69.2ZM135.46,7.81a48,48,0,0,0-4.89,9.51ZM268.16,45.7a42.35,42.35,0,0,0-1.54,8c.1,0,.17-.06.18-.11q.74-3.73,1.46-7.48A1.17,1.17,0,0,0,268.16,45.7Zm1.77-7.28.26,0,1.89-7.91-.14-.06a2.76,2.76,0,0,0-.18.39C271,33,270.92,35.17,270,37.2A4.05,4.05,0,0,0,269.93,38.42ZM114.41,54.8c.33-.06.8.35,1-.31,0-.05.22-.06.34-.09,1.14-.32,2.29-.62,3.41-1,.31-.1.54-.43.81-.65l-.13-.23C118.18,53.77,116,53.5,114.41,54.8Zm142.73,8.92.11.15A11.77,11.77,0,0,0,261.78,61c-1.26.68-2.5,1.39-3.73,2.11C257.73,63.26,257.44,63.5,257.14,63.72Zm8.3-6-3.44,3,.07.07L265,58.87c0-.16,0-.38.08-.38C265.75,58.55,265.52,58.07,265.44,57.69ZM109,56.47l-.11-.16-3.7,1.09,0,.21c.3-.06.6-.1.89-.17.86-.19,1.71-.38,2.55-.61C108.84,56.8,108.93,56.59,109,56.47ZM273.21,26.24l.2.08c.44-1.51.87-3,1.31-4.53l-.23-.07ZM112.79,55.52l-.05-.19a7.42,7.42,0,0,0-3.13.88l0,.2Zm84.92-13.34-.21,0c-.2,1.47-.41,2.94-.62,4.42l.21,0Zm23.55,60.68.17.09c.44-.88.89-1.76,1.29-2.65.08-.17,0-.42,0-.64h-.2l-.44.8.58-.22ZM218.12,109l.17.15,1.82-2.72-.19-.12Zm4.37-6.92-.16-.08L220.71,105l.2.11ZM277,27.88v-.21h-1.57A.94.94,0,0,0,277,27.88ZM142.4,9.23c0,.28-.06.57-.06.85s0,.47,0,.8c.05,0,.31-.07.31-.13C142.71,10.25,143.1,9.73,142.4,9.23ZM128,23.4l.19.07,1.2-3.09-.17-.07ZM199.09,35l-.22,0-.53,2.73.22,0Zm79.84-7.39-.09-.24a2.42,2.42,0,0,0-.8.15c-.17.12-.2.43-.29.66l.18.12ZM141.11,14l-.34.86c-.16.41-.14.44.52.59-.59-.64.2-.77.29-1.2Zm66.16,7.71-.22-.05-.74,2.37.16.05ZM224.4,97l-.25-.21-1,1.27.25.19Zm.78-29.32,0-.09.7-.3-.08-.19-1.37.57.08.29,1-.17a.75.75,0,0,0,0-.11ZM210.51,8.31a3.48,3.48,0,0,0,.28-2.45Zm-1.74,9.85a2,2,0,0,0,.5-1.94Zm-50,37.26,0,.08h1.92l0-.25Zm20.8,0,0,.08h1.92l0-.25ZM210,11.94l-.22,0L209.15,14l.19.05Zm-3.26,12.69.24.09.61-1.92-.18-.06ZM177.47,56c.42.57.84.35,1.26.14v-.2Zm-19.55,0h-1.26C157.07,56.57,157.5,56.31,157.92,56Zm49-30.85-.22-.09-.52,1.64.24.07ZM112.87,55c1,.42,1,.42,1.27-.27ZM126.5,28.61l-.21-.07-.59,1.69.21.07Zm96.62,71.8.21.11.59-1.46-.2-.08Zm49.1-68.54c-.11.31-.21.59-.3.88s-.18.55-.26.83l.15,0C272.35,32.16,272.35,32.16,272.22,31.87Zm-66.79-2-.29-.12L204.69,31l.24.09Zm10,45.18.44-.89-.19-.16-.85.9Zm2.88,33.1-.17-.14L217,109.59l.13.1Zm11-43.29,1.11-.43C229.73,64.15,229.45,64.27,229.31,64.9ZM142,12.94c.29-.76.25-.92-.14-1l-.17.82Zm70.87,45.73c-.68-.29-.89-.17-1,.48Zm62-38,.2.07.44-1.39-.24-.07ZM197.68,41l.2.07.4-1.79-.14,0Z"/><path class="bf4c4c5e-e60d-4d1a-8cf8-c3b89d760930" d="M275,56.9a6.64,6.64,0,0,0-1.1,3c0,.12,0,.25-.06.37-.25,1.07-.24,1.1.81,1.48a6.51,6.51,0,0,0,4.07-.08,31.28,31.28,0,0,0,3.38-1.15,32.43,32.43,0,0,0,5-2.23c1-.57,2-1,3.05-1.48.53-.26,1-.55,1.55-.83l.11.14a4.84,4.84,0,0,1-.65.63c-.48.35-1.09.46-1.41,1.14A3.06,3.06,0,0,1,288.43,59c-1.67.88-3.37,1.7-5.06,2.54a1.15,1.15,0,0,0-.5.37l2.14-.3-.7.48.37.24c-1,.13-1.42,1.16-2.43,1,0,0-.14.06-.14.1,0,.64-.58.63-.95.79a14.17,14.17,0,0,1-4.56,1.2,4.33,4.33,0,0,1-4.41-3.07,8.82,8.82,0,0,1,.1-5.93,20.34,20.34,0,0,1,6.09-8.7,11.54,11.54,0,0,1,2.23-1.42,3.74,3.74,0,0,1,3.91.28c.1.07.15.22.22.33a5.54,5.54,0,0,0,.75,1.11,1.36,1.36,0,0,1,.41,1.31c-.12.85-.21,1.69-1.1,2.14-.09,0-.14.2-.19.31a6.36,6.36,0,0,1-2.41,2.82,8.07,8.07,0,0,0-1.08.82,6.43,6.43,0,0,1-3,1.59C277,57.28,276,57.62,275,56.9Zm2.15-4,.15.18c2.31-1.32,4.66-2.59,6.19-5.16-1.36.59-2.73.78-3.52,2l.51-.31,0,0Zm4,9.42v-.12l-2.3.17c.29.83,1,.2,1.18.44Z"/><path class="bf4c4c5e-e60d-4d1a-8cf8-c3b89d760930" d="M56.34,41.57,33,18.11,9.67,41.57a33,33,0,0,0,0,46.68h0a33,33,0,0,0,46.67,0h0A33,33,0,0,0,56.34,41.57ZM25.77,62.19a16.08,16.08,0,0,0-.15,2.21v.07A17.41,17.41,0,0,0,26,68H18.36V77.1h-7V51.7H31.51c-.33.28-.66.57-1,.87a16.3,16.3,0,0,0-3.62,5.3H18.36v4.32ZM53.9,73.69a17.2,17.2,0,0,1-11,3.92C35,77.61,29,72.17,29,64.47V64.4c0-7.4,5.81-13.21,13.68-13.21A14.83,14.83,0,0,1,53,54.89l-4.14,5a8.93,8.93,0,0,0-6.13-2.4,6.67,6.67,0,0,0-6.5,7v.07a6.71,6.71,0,0,0,6.9,7,7.17,7.17,0,0,0,4.06-1V67.41h-5V62.26H53.9Z"/></g></g></svg>