<svg xmlns="http://www.w3.org/2000/svg" viewBox="0 0 566.14 308.42"><defs><style>.b8a74bfe-cdbc-4a10-b449-6f9e9f765c72{font-size:73px;font-family:GothamHTF-Medium, Gotham HTF;font-weight:500;letter-spacing:0.23em;}.af0245cd-0636-4bae-9fc5-8b68b708a369,.b8a74bfe-cdbc-4a10-b449-6f9e9f765c72{fill:#fff;}</style></defs><title>Asset 13FG_Logo_Text</title><g id="f7bb8290-eda6-4ad8-8074-1361ed56c51a" data-name="Layer 2"><g id="b582091b-b7af-4dad-8d18-ee6fb46e64da" data-name="Layer 1"><text class="b8a74bfe-cdbc-4a10-b449-6f9e9f765c72" transform="translate(89.07 242.17)">CHURCH</text><path class="af0245cd-0636-4bae-9fc5-8b68b708a369" d="M139.88,154.62l1.08-3-3.56,2.88-.52-.67a11.59,11.59,0,0,1,2.85-2.09c1.31-.44,1.53-1.41,2-2.41.82-1.79,1.74-3.55,2.61-5.3-3,.87-4,4.18-6.51,5.8A80.15,80.15,0,0,0,131,155.3l.24.36-10.45,9.45.5.59c.83-.69,1.73-1.33,2.5-2.1,1.13-1.12,2.2-2.29,4.51-2.14l-3.61,3.34.26.32,5.61-4.67c-3,4.56-8.43,6.54-11.27,11.32l1.6-.87c.06.07.2.18.18.2-.7,1.22-1.17,2.72-2.19,3.57a65,65,0,0,1-8.31,6.11c-8.67,5.2-16.29,2.91-22.65-4.22-4-4.5-5.2-10.14-6.11-16-.56-3.64.66-6.88.94-10.32a18.08,18.08,0,0,0-.57-7.71c-2.14.74-3.42,3.26-6.16,2.68l-.19,1.15L75,145.27c-7.81,5.09-17.14,6.37-25.7,9.69-.15.06-.48-.33-.57-.4a6,6,0,0,1-1.34,1c-1.22.46-2.5.76-3.72,1.22-2,.75-4,1.64-6,2.35s-4.14,1.34-6.25,1.9a19.77,19.77,0,0,0-7.72,3.54l1.46.44c1.27.33,2.53.68,3.81,1,2.35.5,4.24,2,6.57,2.74s4.53,2.39,6.54,4A35.88,35.88,0,0,1,47.64,178a35.5,35.5,0,0,1,4.28,6.37,38.76,38.76,0,0,1,2.77,7.15,29.57,29.57,0,0,1-.23,16.8c-.45,1.55-.59,3.2-1.05,4.81A59.41,59.41,0,0,1,47.13,227c-1.82,3.1-3.44,6.33-5.22,9.45a20.4,20.4,0,0,1-2.61,3.81c-4.75,5.16-9.56,10.28-16.73,12.15a10.57,10.57,0,0,1-7.58-1c-7.69-3.71-9.74-11-12-18.24A18.09,18.09,0,0,1,2.45,230a4.37,4.37,0,0,1,.25-1.29A5.93,5.93,0,0,1,2,227.09c-.94-8.07.14-16,1.45-24C5.32,192,9,181.34,11.92,170.51c.14-.51.26-1,.39-1.58-2.27-.68-4.43-1.24-6.53-2a16.52,16.52,0,0,1-3.64-1.82A4.31,4.31,0,0,1,0,161.46c0-2.28.59-2.71,2.82-2.77A88.51,88.51,0,0,0,13.25,158a7.28,7.28,0,0,0,5.95-4.38c.35-.84.59-1.72.9-2.58,1.46-3.93,2.75-7.92,5.51-11.26.85-1,.9-2.7,1.46-4,1.13-2.66,2.36-5.28,3.55-7.91a25.54,25.54,0,0,1,1.55-3.25c5.51-8.53,9.19-18,14.29-26.77C50,91.79,54,86,57.8,80.05a15.67,15.67,0,0,1,2-2.2c1.81-1.86,2.93-2,5.31-.78,1.35.71,2.7,1.4,4,2.09.9.46,1.26,2,.48,2.53-7,4.7-10.74,12-14.93,18.86-2.4,4-4.91,7.87-7.31,11.84-.75,1.26-1.24,2.67-1.95,4-1.13,2.05-2.38,4-3.47,6.11-.33.61-.12,1.51-.44,2.13-.75,1.51-1.72,2.91-2.52,4.4s-1.48,3-2.25,4.5c-.36.69-.83,1.31-1.19,2-.28.52-.46,1.08-.7,1.62a3.31,3.31,0,0,1-1,1.43c.87,4.77-3.88,7.23-4.67,11.33l1-1.18.26.14a19.38,19.38,0,0,0-1.06,2.08,1.83,1.83,0,0,0-.05,1.43c.19.28.88.31,1.34.3a10.79,10.79,0,0,0,2.11-.27,2.62,2.62,0,0,0,1.39-.91l3.72-1L37,151.47c4.55.35,8.48-1.26,12.13-2.46.12-.68.06-1.23.3-1.46a1.45,1.45,0,0,1,1.17-.1c.16.05.17.58.19,1.46l12.44-4.13-.4-.35,1.11-2.15.77,1.62a2.45,2.45,0,0,0,.42-.07c2.6-.81,5.21-1.59,7.8-2.47a37.92,37.92,0,0,0,4.69-1.88c1.5-.74,2.83-1.84,4.71-1.48.4.08.92-.51,1.39-.8l-.24-.35-9.91,2.59-.2-.64c2-.67,4-1.36,6.07-2,.51-.17,1.07-.22,1.6-.35,3.38-.81,3.86-1.31,4.4-4.66a31.43,31.43,0,0,1,.49-3.23c.16-.59-.26-1.75,1.08-1.61.07-.89.21-1.78.21-2.67,0-.67-.35-1.37-.22-2A486.47,486.47,0,0,1,111.14,41c6.79-12.7,12.74-25.93,22.76-36.62,1.08-1.15,2.41-2.07,3.48-3.24,1.28-1.4,2.71-1.29,4.32-.84,4.64,1.29,7.8,5.59,8.2,11.09A40.53,40.53,0,0,1,149,23.11c-.78,3.5-1.29,7.06-2,10.58a39.14,39.14,0,0,1-1.59,5.82c-3.92,10.4-7.67,20.88-12,31.14-5.48,13.14-11.4,26.1-17.15,39.13a3.64,3.64,0,0,1-.81,1.2c-.62.56-1.27,1-.77,2,.1.21-.14.62-.29.9-3.06,5.6-6.09,11.22-9.22,16.79-3,5.33-6.48,10.26-11.55,13.89-1.88,1.35-1.85,3.59-2.2,5.63-.25,1.44-.61,2.86-.93,4.28a4.19,4.19,0,0,0-.22.78c.14,5.24.21,10.49.51,15.72.08,1.38.89,2.72,1.37,4.08l.41-.11,0-.76.41-.06.32,2.2s.4-.08.52.08c1.33,1.85,2.91.81,4.4.38,5.38-1.54,9.86-4.67,14-8.24q16.42-14,32.73-28.14a5.92,5.92,0,0,0,1.67-3c1.33-5.93,6.65-9.73,13.12-9.15a20.54,20.54,0,0,1,9.85,3.71c5.22,3.59,5.69,9.23,3.86,14-.19.48-.4,1-.68,1.64a137.92,137.92,0,0,0,25-7.7c.3-.12.59-.29.9-.38a5.07,5.07,0,0,0,3.83-3.86c1.41-4.75,6.14-7.59,11.72-7.37a18,18,0,0,1,12.72,5.67c3.3,3.49,3.23,7.66,1.73,11.95-.17.5-.42,1-.88,2,5.92-1.72,11.43-3.19,16.85-4.94,3.68-1.19,7.26-2.7,10.82-4.22a6.41,6.41,0,0,0,2.53-2.12c3-4.24,6.56-7.78,11.92-8.89a16,16,0,0,1,7.79.66c.42,5.33-.59,10.18-4.68,14-1.24-.26-1.51-1.14-1.51-2.18,0-1.63.07-3.27,0-4.9a6.15,6.15,0,0,0-.46-1.5c-.59.24-1.18.44-1.75.71a1,1,0,0,0-.38.52c-2.62,6.23-5.39,12.41-7.78,18.72a22.13,22.13,0,0,0-1,10.63,28,28,0,0,0,8.63-7c3.61-4.66,6.88-9.59,10.45-14.29,1.64-2.15,2.5-4.19,1.92-7-.37-1.76.3-3.72.45-5.6.09-1,0-2.07.12-3.1.54-5.27,1.11-10.53,1.68-15.79.09-.87.16-1.74.32-2.6,5.23-27,11.06-53.91,22-79.36,3.18-7.41,6.92-14.59,10.47-21.84A3.24,3.24,0,0,1,318,6.41a14.61,14.61,0,0,1,4.28-1c3.58-.08,7.31,3.22,8,7,1,5.15-.67,9.87-2.43,14.57l.15-1.49-.29,0L326.92,29l1-.9a9.4,9.4,0,0,1,0,1.43c-.38,2.09-.74,4.18-1.22,6.24-.71,3-1.52,6-2.28,8.94,0,0,0,.12,0,.16-1.47,2.33-.87,5.53-3.41,7.48l.71.36c-.35,1-.69,2.06-1,3.06l.28.17.69-.49c0,.09.14.2.11.25-1.07,2.17-1.05,4.74-2.77,6.74-.69.81-.49,2.39-.72,3.61,0,.2-.24.39-.26.59a6.69,6.69,0,0,1-.08,1.57,16.63,16.63,0,0,1-1.21,2.38c-.15.26-.58.4-.64.64a16,16,0,0,0-.16,2.08c.84.69.37,2.45-1.39,3.47l.89,1.45-1.62-.17c.2.72.36,1.3.55,2-1.81.16-1.65,1.58-1.71,3a39,39,0,0,1-.65,5.15,1.46,1.46,0,0,1-.76.93c-1.16.53-1.25,1.44-1.38,2.58-.27,2.32.21,4.94-1.72,6.82a8.26,8.26,0,0,1-2,1c0-.77-.06-1.26-.08-1.75l-.44,0-.48,1.68,2.18.92c.06,2.09-3.54,3.48-1.5,5.68a14.37,14.37,0,0,0-1.35,1.82c-.31.62-.35,1.39-.69,2-.19.33-.76.44-1.16.65l-.36-.4c-.49,1.24-1,2.49-1.46,3.68,1.63,1.74,1.25,4.67-.92,6.55a2.69,2.69,0,0,0-1.07,2.33c0,.51-.4,1-.59,1.53s-.3.91-.49,1.49c-2.57-.4-.56,1.63-.92,2.54-.75,0-2-.23-1,1.24-1.55,1.48-.33,4.74-3.45,5.1.81,2.61-.81,4.16-2.14,5.74a2.29,2.29,0,0,0-.59,2.38c.56,2.09.9,4.23,1.31,6.36.05.26-.07.58,0,.81,1.48,3.61,3,7.21,4.35,10.47a7.75,7.75,0,0,1,1.83.45c2.32,1.4,4.54,2,7.23.6,1.8-.91,4-1,6-1.54,8.26-2.35,15.13-7.11,21.87-12.25,4.89-3.73,7.83-8.91,11.62-13.46,2.14-2.56,4.51-4.93,6.88-7.27a3.19,3.19,0,0,1,2.27-.66c2,.22,4,.62,6,1,2.87.61,4,2,4,5.13a13.91,13.91,0,0,1-.44,4.76,6,6,0,0,1-8.09,3.35,2.21,2.21,0,0,1-1.36-3,5.47,5.47,0,0,0,.16-2.33c-9,8.93-12.7,20.45-15.92,32.22a36.36,36.36,0,0,0,9.89-8c4.42-5.14,9.2-10.06,12.94-15.67a103.07,103.07,0,0,1,11.88-14.18c3.61-3.76,3.43-3,8.2-.9.39.17.64.83.82,1.31,2.21,5.84,2.48,12,2.51,18.08,0,5.75-.17,11.49-.24,17.24,0,1.93.33,2,2.25,2,2.49,0,3.46-1,4.06-3.41,1.55-6.11,4.71-11.49,8.38-16.57,2.71-3.77,5.18-7.77,8.23-11.25,2.75-3.13,6.33-5.6,10.7-5.72a15,15,0,0,1,9.94,3.66c2.2,1.81,2.85,6,1.67,8.67-.42.95-.94,1.85-1.56,3.06a7.21,7.21,0,0,0,1.92-.46c3.61-2.18,6.69-.53,7.54,4a8.51,8.51,0,0,1-1.1,6.63c-.17.25-.39.63-.31.85.86,2.4-.16,4.62-.58,6.91-.23,1.24-.28,2.52-.46,4.29,2.45-.56,4.47-.93,6.43-1.49,8.85-2.53,16.41-7.39,23.26-13.37a72.32,72.32,0,0,0,7.07-7.46,6.37,6.37,0,0,0,.85-3.07c2.81-20.2,7.62-40,13-59.58.1-.37.18-.74.25-1.12,0-.09-.05-.2-.19-.71-1.89.19-3.88.3-5.83.61-3.5.56-7,1.28-10.47,1.87a8,8,0,0,1-2.44-.06c-2.88-.43-3.53-1.31-3.55-4.6,0-3.12,1.22-5.12,3.64-5.42,4.64-.57,9.3-1,13.95-1.48,2.29-.24,4.57-.52,6.85-.73,1.08-.1,1.39-.79,1.65-1.68,3.17-10.66,6.29-21.34,9.56-32,2.4-7.81,4.84-15.62,7.56-23.33,1.62-4.6,3.94-8.92,7.87-12.08A3.63,3.63,0,0,1,516,1.6c3.18.6,5,2.84,5.84,5.79a21.23,21.23,0,0,1,.2,9.9c-.21,1.26-.3,2.9.33,3.83s.67,1.63.25,2.18c-1.89,2.48-1.76,5.49-2.32,8.3-.47,2.35-.62,4.71-2.32,6.69-.56.66-.38,2-.49,3-.7,6.64-3.13,12.79-5.22,19.05-1.13,3.35-2,6.78-3.09,10.5l9.78.24c4.21.11,8.42.17,12.62.36,6.12.26,12.25.49,18.36,1a38.82,38.82,0,0,1,16.18,4.48c-2,.87-3.7,0-5.43-.26a17.65,17.65,0,0,0-1.8-.65c-8.68-2-17.55-2.22-26.4-2.64-7.11-.34-14.21-.67-21.32-1.06-1.9-.11-2.72.49-3,2.58l2.43.48c.19-.42.37-.84.6-1.34,1,1.21,2,1.71,3.35.84.27-.17.71-.06,1.07-.06a24.86,24.86,0,0,0,3.23,0c1.22-.15,2.3-.3,2.63,1.42l1.54-.6c.35-.13.75-.43,1.06-.37a17.36,17.36,0,0,0,2.76.78c3.2.1,6.4,0,9.6,0l-1.14-.87h1.79c.52.5.82,1,1.24,1.14a12.14,12.14,0,0,0,2.89.32c2.27,0,4.53-.13,6.9-.2l.17.52c.65.07,1.19,0,1.49.19a3.71,3.71,0,0,1,.73,1.12c1.21-.67,2.26-1.67,3.39-1.78a53,53,0,0,1,6.78.12l.93.49-.22.6c-1.69,0-3.37.05-5.05,0-.86,0-1.63-.4-2.14.8-.45,1-1.31.86-2-.31l-4,1.11c.05.08-.11-.21-.24-.47l-2,.57-.06-.92c-1,.4-2.19-1-3.05.51-.17.29-.93.38-1.39.33-11-1.15-22.09-.92-33.14-.47-1.15,0-1.61.45-2,1.65-1.28,4.42-3,8.71-4.18,13.16-2.94,11.39-7.69,22.13-11.65,33.16-2,5.5-5,10.65-7.68,15.88s-5.49,10.38-6.17,16.29c-.52,4.53-.57,9.13-.85,13.69-.13,2.07-.44,4.13-.47,6.2-.14,8.58.34,17.06,5,24.68a39.54,39.54,0,0,0,2.44,3.17,10.19,10.19,0,0,1-5.63-2.12c-4.3-3.21-6-7.86-7.21-12.85-.35-1.5-1-2.92-1.34-4.42a11.89,11.89,0,0,1,.14-2c-.15-4.42-.55-8.84-.41-13.25,0-1.55.95-3.13.64-4.82-.07-.39-.37-.76-.35-1.13.13-2.06.26-4.12.51-6.16a17.13,17.13,0,0,1,.8-2.65l-.49-.23c-1.49,1.31-2.95,2.66-4.48,3.92a96.58,96.58,0,0,1-24.2,14.61c-4.21,1.79-11.47-1-11.56-7.33-.07-4.41,0-8.82,0-13.6-3.82,3-7.69,5.81-11.29,8.92s-7.08,6.66-10.39,9.8c1.87,2.78,3.78,5.6,5.64,8.46.37.57.81,1.12.19,2-.3.44.53,1.62.83,2.47s1,1.33,0,2.15c-.21.16.24,1.07.28,1.65a18.38,18.38,0,0,1-.1,2l-.48,0c-.27-1.68-.43-3.38-.82-5a17.58,17.58,0,0,0-7.26-10.74,2.29,2.29,0,0,0-2.93-.18,11.81,11.81,0,0,1-6.65,2c-2.54-.06-4.68-.61-5.32-3.47-.32-1.46-1.29-1.69-2.53-1.49a17.17,17.17,0,0,0-3.68.76,2.52,2.52,0,0,0-1.14,1.83c-.42,3.86-.72,7.73-1,11.6-.32,4.14-.61,8.28-2.17,12.2a1.24,1.24,0,0,0-.17.62c1.23,5.54-.4,10.76-1.7,16-.21.86-.13,1.79-.3,2.66-.24,1.14-.61,2.25-.89,3.38-.12.46-.16.95-.27,1.42-1,4.3-1.86,8.64-3.09,12.88a85.79,85.79,0,0,1-3.32,8.32c-.13.3-.54.6-.49.83.64,3-1.83,5.19-2.23,8-.25,1.7-1.68,3.23-2.52,4.86a5,5,0,0,0-.34,1.35c0,.16.08.39,0,.48-1.19,1.38-1.33,3.23-2.1,4.79-.39.78-.75,1.58-1.09,2.39a35.88,35.88,0,0,1-1.66,3.86c-.79,1.36-1.89,2.54-2.77,3.86a4.16,4.16,0,0,0-.31,1.41c-.08.36,0,.85-.27,1-1.47,1.29-1.84,3.25-3,4.76-1.82,2.38-2.46,5.56-5,7.53a2.53,2.53,0,0,0-.49.85c-4.59,8.73-12.26,13.81-21.11,17.23-1.86.72-4.44,0-6.58-.47-6.12-1.4-10.56-5.31-14.26-10.16-4.51-5.91-7-12.81-9.34-19.74a24.3,24.3,0,0,1-.69-5.09c0-.19.22-.4.31-.61.2-.46.38-.92.57-1.39l-.54-.23-.49,1a1.74,1.74,0,0,1-.17-.42c-1.95-15.44,2.26-29.52,9.59-42.88,2.1-3.83,4.12-7.72,6.51-11.36,2.24-3.43,4.91-6.57,7.39-9.84l.48.36c-.74,1-1.5,2.07-2.23,3.13-5.47,7.91-10.85,15.88-14.67,24.77a80.87,80.87,0,0,0-5.65,19.09,120.69,120.69,0,0,0-.82,12,8.1,8.1,0,0,0,.23,1.19c.53-3.71,1-7,1.47-10.27.34-2.24.85-4.45,1.17-6.7,1.19-8.5,5.48-15.82,9-23.42a84.15,84.15,0,0,1,14.33-21.27c2.47-2.73,4.34-6.12,7.16-8.36,1.91-1.51,3.65-3.2,5.51-4.76s3.24-3.24,4.92-4.8a15.6,15.6,0,0,1,2.7-1.93c.86-.51,1.82-.87.9-2.47l.62.24c.11.28.22.56.47,1.22,1.59-1.32,3.08-2.54,4.55-3.78.28-.25.55-.85.73-.82,2.4.53,3.18-2.11,5.08-2.57.28-.07.42-.73.69-1.24l.72.54.45-1.23c5.9-1.65,5.9-1.65,6.29-2.56,1.35.69,2.31-.32,3.41-.77,1.79-.74,2.95-2.52,5.12-2.76,1.16-.12,2.25-1.11,3.32-1.79a1.34,1.34,0,0,0,.38-1q-.15-15.1-.34-30.2s-.07-.05-.28-.21c-2.95,3.76-5.93,7.5-8.85,11.3-5.7,7.4-10.93,15.2-17.88,21.57-1.25,1.15-2.52,2.28-3.77,3.42-3.52,3.2-8,2.83-11.5-.12s-2.73-6.21-2.55-9.68c.07-1.4.37-2.79.63-4.65a14.58,14.58,0,0,0-2.57.92c-1.57,1-3.53,1.74-4.48,3.16-1.63,2.42-4.23,2.59-6.42,3.67s-4.85,2.87-7.24,2.79c-2.75-.08-5.37.93-8.15.33a18.3,18.3,0,0,1-7.68-3.45,25.52,25.52,0,0,1-6.95-9.22c-1-2-1.93-4.12-3-6.44-1.06,1.82-2,3.45-3,5.06-3,5.09-6.43,9.81-11.28,13.29a57,57,0,0,1-5.09,2.94c-2.87,1.61-5.72,1-8.51-.16a6.85,6.85,0,0,1-2.14-1.71c-.51-.54-.64-1.29-1.78-1.18-.38,0-1.05-1.46-1.35-2.33-1.88-5.47-.06-10.77.83-16.1.3-1.82.75-3.62,1.14-5.48l-2.28-.14c-.44.61-1.16,1.31.29,1.86l-1.31,1.18c-1.58-.85-1.66-.79-1.92,1.86l-.61-1.53c-.42.4-.78.77-1.17,1.09-.54.42-1,1.37-1.87.45a8.32,8.32,0,0,0-.91.73c-.7-.81-1.5-.66-2.18.21a5.18,5.18,0,0,1-2.14,1.36c-.19.08-.68-.58-1.18-1l-2.85.73c.52.83.43,1.38-.67,1.54-2,.29-4,.55-6,1a12.3,12.3,0,0,0-3.82,1.38,10,10,0,0,0-2.09,2.51c-.09.12,0,.34-.13.47-3.21,4.52-5.35,9.84-9.84,13.4-5.85,4.64-13.07,3-16.25-3.76-3.36-7.15-2.16-14.13,1.19-21,.22-.44.48-.86.9-1.6l-2.88-1.25v2.36l.37,0-1.2,1.08c-1.5-.87-1.55-.83-1.94,1.8l-.51-1.34c-1.26.12-1.56,2.76-3.45,1.2l-.3.7a4.82,4.82,0,0,0-1.69-.09,3.76,3.76,0,0,0-1.87,1.17c-1,1.51-1.48.81-2-.38l-3,.81c.59.89.37,1.37-.7,1.53-2,.28-4,.53-6,1a15.28,15.28,0,0,0-4.1,1.55c-.76.44-1.2,1.43-1.75,2.2-.12.16-.05.46-.17.62-3.2,4.47-5.3,9.75-9.73,13.3-6,4.78-13.19,3.08-16.46-3.84a20.07,20.07,0,0,1-1.63-11.51,8.26,8.26,0,0,0,0-1.57ZM478,114.83c.23-.22.59-.4.67-.66a52.41,52.41,0,0,0,1.66-5.44,50.55,50.55,0,0,0,.64-5.09l-.56-.07c-.17.93-.35,1.87-.52,2.81-.22,1.29-.08,2.8-.72,3.81a6.08,6.08,0,0,0-.89,3.41,7.9,7.9,0,0,1-.25,1.25l-1.53,4.86.87.19ZM137,46.71c-.93,0-1.33.42-1.77,1.38-1,2.08-.61,4.84-3,6.2-.09.05-.06.31-.11.46-.31,1-.57,2.09-.94,3.1-.69,1.87-2.86,3.21-2,5.63a16.38,16.38,0,0,1-1.08,2.32,13.36,13.36,0,0,0-2.54,5.91,2,2,0,0,1-.71,1.25c-1.06.86-1.22,1.75-.07,3-1.87-.17-2,.93-2,1.77L123.94,79c-.93.18-2-1.09-2.21.73a5.49,5.49,0,0,1-.49,1.9c-.73,1.28-1.67,2.44-2.39,3.72-.9,1.57-1.64,3.22-1,5.13,0,.16-.49.52-.76.79l-.64-.48-8.66,17.51.52.36a11.6,11.6,0,0,0,1.72-2.15c1.07-2.27,2-4.6,3.14-7.31l.67,1.34,1.73-1.34-.38,0,.47-2.89,1.55.67-.79-1.5,1.16.15V92.66l.29,0,.56,1.07c3.47-7.6,6.84-15,10.21-22.32l.45.19c-.11-.57-1.54-1.22.12-1.61l-.93-.7c1.73.43,1.45-1,1.75-1.75s.53-1.73.82-2.72l-.66.33-1.12-1.67,1.69-.27.26-.91.21.06-.12,1.5.19,0,1.12-2.23-.39,0-.83-2.08.3-.19,1.4,1.22c.21-.73.22-1.44.57-1.83.94-1,1.79-1.91.24-3,.63,0,1.58.15,1.65,0a14.13,14.13,0,0,0,.48-2.7l1-.53-2.22-1,.23-.63,2.17.61V46.79c2.07-1.25,2.36-1.8,1.4-3l-.22.9-.37-.09.65-2.64-.72-.43C136.51,43.69,136.51,43.69,137,46.71ZM52.91,191.92l.25-.54c-.09,0-.25-.09-.26-.07-.1.2-.18.41-.27.61a23.76,23.76,0,0,0-.59,2.46c-.34,2.76-.61,5.54-.93,8.31-.06.59-.26,1.18-.27,1.78,0,1.4-.09,2.63-1.51,3.56-.65.42-.8,1.61-1.15,2.46-.14.34-.08.93-.31,1-2,1.05-2.3,3.24-3.43,4.87a18.6,18.6,0,0,1-1.79,2l-.42-.36c.64-1.35,1.34-2.68,1.91-4.07a74.4,74.4,0,0,0,3.46-9.11,72,72,0,0,0,1.46-9.76,24.88,24.88,0,0,0-.27-2.82,33.26,33.26,0,0,0-1.6-8.64c-1.55-5.52-5.41-8-10.35-9.4-4.15-1.13-8.43-1.77-12.64-2.67-3.72-.8-3.71-.79-4.44,3.1A23.36,23.36,0,0,1,18.58,178l-.42-.14c.19-2,1.59-3.76,1.19-5.87-.33,3.17-3.54,5.61-2.44,9.36l.81-2.44.36.14L17,183l-.29-.08-.12-1.18-.42-.06c-.77,2.25-1.63,4.47-2.3,6.74s-1.21,4.76-1.81,7.14l.75.18,1.6-6.57.49.12Q13.35,195.65,11.8,202l-.56-.15,1-4.17-.77-.15L9.6,206.44l1.62.27c-.85.7-1.75,1.06-2,1.67a21.14,21.14,0,0,0-.75,4c-.31,2.24-.57,4.49-.84,6.73,0,.08.09.18,0,.09l1.21-.44-.38,8.53H8.41l-.31-1.7c-1.2,1.61-1,2.74.08,3.46l-.45,1.59.4.09.77-1.09a8.34,8.34,0,0,1,.23,2.24,5.19,5.19,0,0,1-1,1.47l.23.15L9,233l.5.29c-.31.58-.65,1.15-.91,1.75,0,.11.23.35.34.54l.78,1.55-.78.31c.25,1,.22,2.29.82,3s1.28,1,1,1.86c-.48,1.76.6,2.65,1.87,3.11a11,11,0,0,0,4,.57c4.27-.07,7.44-2.3,10.14-5.39a11.45,11.45,0,0,1,1.62-1.31,12.69,12.69,0,0,0,1.27-1,14.34,14.34,0,0,1,1-1.3c1.37-1.15,2.83-2.21,3-4.17l1,.39.19,2,.45.1a4.53,4.53,0,0,1,3.12-3.77c.13,0,.14-.44.27-.48,1-.28.29-3.05,2.4-1.61l.22-.56.29,1.48,1.81-3.07-2.54.79c0-1.48.16-1.68,1.56-2.51a3.51,3.51,0,0,0,1.62-3.35c.5,0,1.14.43,1.46-.7.22-.78,1.45-1.25,1.74-2,.93-2.49,1.82-4.94,4.07-6.62.13-.09,0-.6-.07-.83l-1.85.85-.17-.35,1.82-1a4.72,4.72,0,0,1-.05-1.18c1.47-.45,1.36-1.84,1.62-2.86.57-2.26,1.33-4.61,1.2-6.88s1.61-4.69-.66-6.7c-.12-.1.09-.52,0-.77C53.16,192.71,53,192.32,52.91,191.92Zm321.91-15.8a185,185,0,0,0-27.65,16.54c-2.78,2-6,3.8-8,6.44-5.23,6.82-12.58,11.82-16.56,19.72-.89,1.77-2.64,3.15-3.65,5-1.94,3.53-4.29,6.87-5.89,10.55a121.16,121.16,0,0,0-6.43,19.28c-.17.68-.5,1.33-.7,2a16,16,0,0,0-.84,3.28,97.58,97.58,0,0,0,.6,20.78c1,6.19,2.48,12.21,6.27,17.37a4.45,4.45,0,0,0,2.32,1.52c6.59,1.73,12.43,0,17.69-4.06,7.13-5.5,11.53-13.25,16.32-20.58a124,124,0,0,0,8.63-16.52c2.6-5.68,4.84-11.54,7-17.41,1.43-3.93,2.38-8,3.6-12,.82-2.71,2.07-5.33,2.54-8.08,1.25-7.25,1.88-14.62,4.19-21.66.11-.33.13-1,0-1-1.33-.68-.5-1.46-.24-2.3a25.06,25.06,0,0,0,1.07-4.26c.44-3.46.52-7,1.17-10.41C376.51,178.48,376.51,177.24,374.82,176.12Zm-278.25-63,.23.16.73-.61c-.44,1.84-.84,3.48-1.24,5.12s-.91,3.38-1.25,5.08-.51,3.19-.76,4.79l.56.17c3.22-5.76,6.76-11.37,9.61-17.3q9.06-18.89,17.51-38c4.08-9.21,9-18.07,11.72-27.86,2.49-8.85,6.37-17.32,7.51-26.56.31-2.52.78-5,1.08-7.55.13-1.07,0-2.18,0-3.26.07-1.53-.4-1.89-1.8-1.23a3.83,3.83,0,0,0-1.22.81c-1.53,1.76-3,3.58-4.52,5.36-.34.4-.86,1.11-1.15,1-2.08-.5-1.66,1.4-2.31,2.26l.8-.42.31.35-4.9,6.38c-.47,1.05-.87,2.08-1.38,3-.28.52-.79.91-1.12,1.41-.57.86-1.29,1.78.33,2.47-1.7.76-3.63,6.16-2.9,7.9l-1.64,1.18.46.13a7.64,7.64,0,0,1-.47,1.67c-4.3,8.06-7,16.76-10.24,25.25a63.18,63.18,0,0,1-3.74,7,2,2,0,0,0-.13.44l1.4.82c-.94,2.44-2.31,4.75-2.64,7.19-.58,4.3-2.75,8.12-3.26,12.39,0,.34-.43.61-.61.94a6.14,6.14,0,0,0-.73,1.56c-.65,2.85-1.16,5.74-1.88,8.57-.31,1.2-1.67,2.16-.66,3.63.11.16,0,.53-.11.79C97.65,109.81,97.1,111.45,96.57,113.09Zm201-10.94a22.3,22.3,0,0,0,1.21-2.34c.49-1.37.83-2.79,1.32-4.15.3-.87.84-1.65,1.15-2.52,1.38-3.84,2.87-7.66,4-11.57s3.93-7.31,3.57-11.66c1.43-1.58,1.05-3.74,1.78-5.56a42.53,42.53,0,0,0,1.32-4.51c0-.15,0-.4.11-.46,1.46-.89,1.3-2.42,1.53-3.79.17-1,.22-2,.42-2.92a12.74,12.74,0,0,1,.75-2.67,45.05,45.05,0,0,0,3.58-12.85c.53-4.35,1.95-8.59,2.94-12.89.64-2.75,1.69-5.46,1.19-8.38-.07-.37-.15-.73-.22-1.1l-.53-.09q-2.11,4.65-4.25,9.3c-.18.39-.45.74-.66,1.12A41.56,41.56,0,0,0,314,30.25c-2.22,5.76-4.26,11.59-6.41,17.37-.41,1.1-1.13,2.08-1.51,3.18-.6,1.72-1,3.51-1.56,5.25a10.78,10.78,0,0,0-.7,1.82,25.37,25.37,0,0,1-3.68,10.93c.18.72.41,1.12.33,1.44-.3,1.12-.75,2.21-1.05,3.34-.76,3-1.84,5.88-2.12,8.88-.37,4-3.09,7.38-2.5,11.51,0,.07-.16.17-.18.26-.16,1-.34,1.9-.47,2.85a19.1,19.1,0,0,1-.26,2.41c-.44,1.57-1,3.1-1.51,4.65a1.71,1.71,0,0,0,0,.45,18.57,18.57,0,0,1-.08,3.08c-.12.65-.9,1.19-1,1.82-.24,2.25-.3,4.52-.43,6.78l.41.15c.86-1.78,1.78-3.54,2.58-5.35,1.13-2.53,2.18-5.11,3.28-7.66.1-.23.36-.39.54-.58l.39,1,.87-1.71ZM516.41,11.07l-.79-.2-2.52,5.07c-.49,1-1,2-1.43,3s-1,2.26-1.45,3.39c-.32.74-1,1.56-.9,2.2.26,1.22-.45,1.91-.88,2.79-.14.29-.4.66-.32.89.69,1.94-.37,3.61-.87,5.3-3.33,11.34-6.77,22.66-10.15,34-.34,1.11-.59,2.24-1,3.67,1.59-.15,2.84-.18,4-.42a1.94,1.94,0,0,0,1.29-1c.72-2.17,1.27-4.39,1.91-6.59,3.39-11.73,7-23.4,10.09-35.19C514.92,22.45,515.46,16.71,516.41,11.07ZM421.5,139.38a23.87,23.87,0,0,0-8.57,4.28c-8,6.29-11.88,15.27-16.22,24.52a7.44,7.44,0,0,0,2.06-.34,19.55,19.55,0,0,0,3.43-2.22c6.67-5.8,13.29-11.66,19.3-16.94Zm-76.59,47.14a6.36,6.36,0,0,1-.9,1.41q-3,2.69-6.09,5.26c-5,4.15-9.84,8.36-13.46,13.82a24.52,24.52,0,0,1-3.31,3.29.71.71,0,0,1-.1.59c-1.32,1.74-2.62,3.49-4.07,5.12-1.21,1.35-2.61,2.54-3.92,3.82-.06.06-.06.19-.11.37l.66.14c-2,4.36-4,8.65-6,13a36.8,36.8,0,0,0-1.66,4.26c-1.1,3.48-2.14,7-3.15,10.5-.26.92,0,2.16-.54,2.79-.94,1.09-.87,2.22-.89,3.44a4.2,4.2,0,0,1-.15,1.6c-.7,1.52-.74,1.5-.22,3.19.85-3.06,1.71-5.75,2.32-8.51,1-4.37,2-8.71,4.16-12.69a25.64,25.64,0,0,0,1.37-3.92,9.91,9.91,0,0,0,.7-1c.65-1.14,1.23-2.31,1.88-3.44s1.61-2.4,2.19-3.7c.7-1.55.74-3.45,2.58-4.32.1,0,.15-.23.21-.36a11,11,0,0,1,.8-1.86c.47-.72,1.37-1.28,1.59-2a9.56,9.56,0,0,1,2.79-4c2.22-2.33,4-5.1,6-7.61a16.81,16.81,0,0,1,2.53-2.12c.64-.6,1-1.63,1.65-2.24,3.74-3.3,6.67-7.45,11-10.13,1.32-.81,2.29-2.18,3.54-3.13,1.57-1.21,3.27-2.25,4.91-3.36l.62,1,.33-.13V183.8l.31-.07.59,1,1.54-.87-1.36-.39c1.29.52.49-3.06,2-1.44a9.55,9.55,0,0,1,1.3-1c.58-.29,1.36-.32,1.8-.73a14.73,14.73,0,0,1,5.25-3A65.41,65.41,0,0,0,372,173c.31-.17.51-.56.76-.85a3.29,3.29,0,0,0-1.53.25c-8.85,3.09-16.72,8-24.46,13.15A18.26,18.26,0,0,1,344.91,186.52ZM216,149.58c1-.38,2.52-.51,2.91-1.24a29.7,29.7,0,0,0,2.43-6.56c.66-2.62.82-5.3-1-7.68-.66-.91-1.3-1.3-2.41-.47a39.12,39.12,0,0,1-3.43,1.9c-1.88,1.1-3.84,2.5-4,4.68a9,9,0,0,1-2.23,5.77c-.78.86-.6,1.87.76,2.17C211.32,148.63,213.55,149.07,216,149.58Zm-55.58-.06.05-.3a13.74,13.74,0,0,0,2.13,0c.41-.07,1-.37,1.11-.7a87.86,87.86,0,0,0,2.75-9.18,5.91,5.91,0,0,0-1.65-5.59c-.32-.3-1-.6-1.34-.44a33.66,33.66,0,0,0-5.47,3.24c-1.17.95-2.58,2.42-2.66,3.73A9,9,0,0,1,153.1,146c-.81.92-.5,1.86.82,2.15C156.09,148.64,158.27,149.07,160.45,149.52Zm44,.83c-2.28,5.81-5.5,11.21-3,17.57,7.61-1,10.05-7.15,13.74-12.56C210.9,155,207.84,152.67,204.49,150.35Zm-58.17,17.56c7.59-.93,10.05-7.11,13.76-12.56-4.39-.31-7.46-2.72-10.8-5C147,156.12,143.78,161.52,146.32,167.91ZM483.83,119l.56.09,14-38.87-.44-.5a19.46,19.46,0,0,0-4.37.7c-.57.22-.7,1.59-1,2.45s-.46,1.45-.64,2.19c-1.86,7.62-3.69,15.24-5.58,22.85-.83,3.34-1.81,6.64-2.69,10A3.38,3.38,0,0,0,483.83,119Zm27.7-66.71-.5-.12c3-12.34,8.17-24.19,8.63-37.13a36.45,36.45,0,0,0-1.33,5.9A18.88,18.88,0,0,1,516,28.29c-1.09,1.93-1.8,4-1.08,5.62a9.78,9.78,0,0,0-1.27,2Q512.14,41.48,510.8,47a19.21,19.21,0,0,0-.26,2.58c-1.26.68-6.3,15.92-6.92,21.73l3.06-1.63c-.17-.69-.66-1.57-.43-1.84,1-1.2.43-3.27,2.24-4,.22-.1.27-1,.11-1.47a4.78,4.78,0,0,1,1-4.13c.77-.73,1.71-1.5,1-3l-.74,1.94c-.12-1.41.23-1.21,1.46-3.35s1.75-4.86,2.58-7.32l-.63-.19C512.68,48.27,512.11,50.26,511.53,52.25Zm-16.13,47,1.24.17c-.11-.44-.21-.82-.18-.72.6-.58,1.05-.83,1.2-1.2.48-1.2.85-2.45,1.25-3.68s.74-2.27,1.24-3.8c.05-.07.65-.51.69-1,.14-2,1.57-3.83,1-6-.06-.22.43-.55.52-.87a6.19,6.19,0,0,0,.38-2.06c0-.2-1-.61-1.3-.47a2.31,2.31,0,0,0-1.1,1.27c-.76,2.1-1.38,4.25-2.12,6.35-1.69,4.76-3.44,9.5-5.15,14.26a6.21,6.21,0,0,0-.36,1.59c-.09,1.19-1.77,2-.83,3.41,0,0-.06.08-.15.21l-.5-.37c-1.63,4.27-3.23,8.47-4.84,12.71l1.43.12c1.88-4.2,3.66-8.29,5.55-12.34.36-.76,0-2.21,1.57-2.12-.07-.31-.13-.63-.22-.93a2.25,2.25,0,0,0-.24-.45l1.12-.21-.28-2,1.56-.25ZM352.94,154.85l.47.44,21.24-22.56V130A217.92,217.92,0,0,0,352.94,154.85Zm92.9,11.32.55.68c3.15-1.84,6.41-3.51,9.4-5.57,4.23-2.9,8.28-6.07,12.38-9.16.61-.45,1.41-1,.42-1.91-.15.06-.28.07-.35.14a131.87,131.87,0,0,1-17.92,13.46,6.86,6.86,0,0,1-1.83.55ZM124.25,20.72a128.07,128.07,0,0,0-13,25.27ZM476.53,121.31c-2.39,7-3.12,14.18-4.09,21.29.27-.07.44-.16.47-.29q1.95-9.92,3.87-19.85A3,3,0,0,0,476.53,121.31ZM481.22,102l.69.1q2.52-10.5,5-21l-.36-.16a9,9,0,0,0-.5,1c-1.89,5.49-2.22,11.4-4.55,16.78A10.7,10.7,0,0,0,481.22,102ZM68.36,145.48c.88-.16,2.15.91,2.54-.83,0-.14.59-.16.9-.25,3-.85,6.07-1.63,9-2.6.82-.27,1.44-1.12,2.15-1.7l-.35-.62C78.37,142.73,72.55,142,68.36,145.48Zm378.91,23.68.28.38a30.69,30.69,0,0,0,12-7.72c-3.34,1.8-6.63,3.69-9.9,5.62C448.84,167.94,448.08,168.58,447.27,169.16Zm22-16L460.16,161l.18.2,7.81-4.95c-.14-.42.05-1,.18-1C470.14,155.43,469.51,154.16,469.29,153.15ZM54.1,149.9l-.3-.42L44,152.36l.15.57c.79-.14,1.58-.26,2.36-.44,2.26-.51,4.53-1,6.76-1.62C53.59,150.77,53.82,150.23,54.1,149.9ZM489.92,69.65l.54.22q1.74-6,3.47-12l-.61-.18ZM64.07,147.37l-.13-.5a20,20,0,0,0-8.32,2.34l.16.54ZM289.49,112l-.54-.07q-.82,5.86-1.64,11.72l.56.08ZM352,273.05l.45.23c1.15-2.34,2.34-4.65,3.41-7,.21-.46,0-1.12-.09-1.69l-.52,0c-.33.6-.66,1.2-1.16,2.13l1.53-.6Zm-8.34,16.41.46.39,4.81-7.21-.5-.32Zm11.6-18.36-.42-.24q-2.16,3.93-4.31,7.85l.52.28ZM500.11,74v-.56H496A2.53,2.53,0,0,0,500.11,74ZM142.69,24.49c-.07.76-.17,1.52-.18,2.27s.08,1.24.14,2.13c.13-.05.82-.19.82-.35C143.51,27.22,144.54,25.82,142.69,24.49ZM104.44,62.12l.51.19,3.2-8.21-.47-.18ZM293.16,93l-.58-.11c-.47,2.41-.93,4.83-1.4,7.25l.57.11Zm212-19.63-.25-.63a5.9,5.9,0,0,0-2.13.4c-.44.3-.52,1.14-.76,1.74l.48.31Zm-365.86-36-.91,2.29c-.42,1.07-.37,1.15,1.39,1.54-1.58-1.7.52-2,.77-3.18ZM314.89,57.73l-.6-.14c-.65,2.11-1.31,4.21-2,6.31l.44.13Q313.84,60.88,314.89,57.73ZM360.36,257.4l-.67-.58c-.85,1.13-1.71,2.26-2.57,3.38l.67.52C358.65,259.62,359.5,258.51,360.36,257.4Zm2.07-77.84-.06-.24,1.86-.79L364,178l-3.62,1.51.21.76c.9-.15,1.81-.29,2.71-.45,0,0,0-.18,0-.28ZM323.48,22.06c.8-2.12,1.55-4.24.74-6.51Q323.86,18.81,323.48,22.06ZM318.86,48.2c1.18-1.52,2-3.13,1.33-5.13Q319.53,45.64,318.86,48.2ZM186.25,147.11l0,.21h5.1l0-.65Zm55.21,0,0,.21h5.09l0-.65ZM322.07,31.68l-.58-.08q-.8,2.81-1.61,5.62l.5.12Q321.22,34.52,322.07,31.68Zm-8.65,33.71.63.23,1.63-5.1-.47-.16Q314.31,62.88,313.42,65.39Zm-77.65,83.23c1.11,1.5,2.23.91,3.34.36v-.52Zm-51.88,0h-3.36C181.62,150.17,182.75,149.49,183.89,148.59Zm130-81.9-.61-.24c-.45,1.45-.91,2.89-1.37,4.34l.65.2C313,69.56,313.41,68.12,313.86,66.69ZM64.3,146c2.73,1.13,2.73,1.13,3.36-.71Zm36.18-70-.57-.2-1.57,4.48.55.2ZM357,266.54l.55.3c.53-1.29,1.06-2.58,1.58-3.87l-.52-.21ZM487.3,84.61c-.28.81-.56,1.56-.81,2.32s-.45,1.48-.68,2.22l.39.09C487.65,85.38,487.65,85.38,487.3,84.61ZM310,79.39l-.76-.31c-.4,1.08-.8,2.17-1.19,3.26l.61.24C309.1,81.52,309.55,80.46,310,79.39Zm26.66,120c.41-.84.79-1.6,1.16-2.37l-.51-.42L335,198.94Zm7.62,87.86-.43-.36c-1,1.36-2.07,2.73-3.1,4.09l.34.25ZM373.4,172.28l2.92-1.13C374.51,170.29,373.75,170.61,373.4,172.28ZM141.56,34.34c.76-2,.67-2.44-.37-2.68l-.45,2.2ZM329.7,155.76c-1.8-.79-2.37-.46-2.62,1.27ZM494.18,54.85l.54.17,1.15-3.68-.63-.19C494.88,52.38,494.53,53.61,494.18,54.85ZM289.42,108.77l.52.18L291,104.2l-.4-.09C290.23,105.66,289.83,107.21,289.42,108.77Z"/><path class="af0245cd-0636-4bae-9fc5-8b68b708a369" d="M494.7,151c-2.05,2.42-2.24,5.32-2.91,8.05-.07.32-.09.65-.17,1-.66,2.85-.64,2.92,2.16,3.95,3.63,1.33,7.27.73,10.81-.21a92,92,0,0,0,9-3.06,85.68,85.68,0,0,0,13.28-5.93c2.57-1.52,5.4-2.61,8.09-3.93,1.39-.69,2.73-1.46,4.1-2.19l.31.36a15.32,15.32,0,0,1-1.73,1.69c-1.29.93-2.91,1.21-3.75,3-.58,1.24-2.19,2.14-3.52,2.84-4.43,2.34-8.94,4.53-13.43,6.77a3,3,0,0,0-1.34,1l5.68-.78-1.85,1.28,1,.64c-2.57.32-3.75,3.07-6.45,2.63-.11,0-.37.18-.37.28,0,1.7-1.53,1.66-2.51,2.08a37.28,37.28,0,0,1-12.11,3.19,11.48,11.48,0,0,1-11.72-8.14,23.41,23.41,0,0,1,.27-15.73c3.53-9,8.56-17,16.16-23.11a29.86,29.86,0,0,1,5.93-3.76,9.89,9.89,0,0,1,10.37.72c.28.19.4.59.6.89a14.7,14.7,0,0,0,2,3,3.5,3.5,0,0,1,1.09,3.47c-.32,2.25-.55,4.48-2.92,5.68-.24.12-.38.52-.5.81a17.1,17.1,0,0,1-6.4,7.5,20.55,20.55,0,0,0-2.88,2.18,17.08,17.08,0,0,1-7.94,4.23C500.1,152.06,497.39,153,494.7,151Zm5.72-10.57.39.48c6.12-3.51,12.37-6.87,16.45-13.69-3.62,1.56-7.26,2.08-9.36,5.39l1.36-.83.05.12Zm10.7,25,0-.3-6.11.43c.79,2.21,2.61.54,3.13,1.18Z"/></g></g></svg>