<svg xmlns="http://www.w3.org/2000/svg" viewBox="0 0 742.9 742.9"><defs><style>.f677579a-d33c-46bd-bd44-d6c920b836c4{fill:#00bad8;}.fd97e70f-d4d2-49b0-b782-c536f63c94d3{font-size:53.82px;font-family:GothamHTF-Bold, Gotham HTF;font-weight:700;}.e8e0969e-9f6a-4174-a1a4-0092eee51a40,.fd97e70f-d4d2-49b0-b782-c536f63c94d3{fill:#fff;}</style></defs><title>Asset 14FG_Circle Logo</title><g id="e03a0a3d-3761-4664-b1b4-0ee9d83cebac" data-name="Layer 2"><g id="be0bb4c9-2a03-4bdb-9b42-65a123c7a983" data-name="Layer 1"><rect class="f677579a-d33c-46bd-bd44-d6c920b836c4" width="742.9" height="742.9" rx="371.45"/><text class="fd97e70f-d4d2-49b0-b782-c536f63c94d3" transform="translate(99.62 305.13) rotate(-72.69)">F</text><text class="fd97e70f-d4d2-49b0-b782-c536f63c94d3" transform="matrix(0.57, -0.82, 0.82, 0.57, 131.84, 227.13)">L</text><text class="fd97e70f-d4d2-49b0-b782-c536f63c94d3" transform="translate(183.2 164.03) rotate(-37.58)">O</text><text class="fd97e70f-d4d2-49b0-b782-c536f63c94d3" transform="translate(262.74 113.21) rotate(-18.14)">O</text><text class="fd97e70f-d4d2-49b0-b782-c536f63c94d3" transform="translate(354.97 91.97) rotate(0.93)">D</text><text class="fd97e70f-d4d2-49b0-b782-c536f63c94d3" transform="translate(445.38 101.34) rotate(19.63)">G</text><text class="fd97e70f-d4d2-49b0-b782-c536f63c94d3" transform="translate(527.66 139.06) rotate(38.3)">A</text><text class="fd97e70f-d4d2-49b0-b782-c536f63c94d3" transform="translate(591.11 198.26) rotate(55.27)">T</text><text class="fd97e70f-d4d2-49b0-b782-c536f63c94d3" transform="matrix(0.3, 0.95, -0.95, 0.3, 632.53, 270.74)">E</text><path class="e8e0969e-9f6a-4174-a1a4-0092eee51a40" d="M484.52,285.69l-109-109.57-109,109.57a154.15,154.15,0,0,0,0,218h0a154.15,154.15,0,0,0,218,0h0A154.15,154.15,0,0,0,484.52,285.69ZM341.73,382a80.52,80.52,0,0,0-.69,10.34v.34a81.17,81.17,0,0,0,1.71,16.61H307.16v42.37H274.28V333h94.29c-1.56,1.3-3.09,2.64-4.55,4.07a75.48,75.48,0,0,0-16.88,24.75h-40V382Zm131.4,53.73A80.21,80.21,0,0,1,421.6,454C384.66,454,357,428.58,357,392.65v-.34c0-34.57,27.12-61.69,63.9-61.69,20.84,0,35.59,6.44,48.13,17.29l-19.32,23.22c-8.48-7.12-16.95-11.19-28.64-11.19-17.12,0-30.34,14.41-30.34,32.54v.34c0,19.15,13.39,32.88,32.2,32.88,8,0,14.07-1.69,19-4.91V406.38H418.55V382.31h54.58Z"/><text class="fd97e70f-d4d2-49b0-b782-c536f63c94d3" transform="matrix(0.2, 0.98, -0.98, 0.2, 53.09, 415.58)">C</text><text class="fd97e70f-d4d2-49b0-b782-c536f63c94d3" transform="translate(81.35 509.96) rotate(60.78)">H</text><text class="fd97e70f-d4d2-49b0-b782-c536f63c94d3" transform="matrix(0.73, 0.68, -0.68, 0.73, 138.5, 592.86)">U</text><text class="fd97e70f-d4d2-49b0-b782-c536f63c94d3" transform="matrix(0.91, 0.42, -0.42, 0.91, 218.17, 653.94)">R</text><text class="fd97e70f-d4d2-49b0-b782-c536f63c94d3" transform="translate(310.03 686.94) rotate(7.4)">C</text><text class="fd97e70f-d4d2-49b0-b782-c536f63c94d3" transform="translate(408.03 690.79) rotate(-10.12)">H</text><text class="fd97e70f-d4d2-49b0-b782-c536f63c94d3" transform="translate(504.37 663.54) rotate(-25.89)">.</text><text class="fd97e70f-d4d2-49b0-b782-c536f63c94d3" transform="translate(566.75 626.67) rotate(-40.99)">C</text><text class="fd97e70f-d4d2-49b0-b782-c536f63c94d3" transform="matrix(0.52, -0.86, 0.86, 0.52, 634.41, 556.57)">O</text><text class="fd97e70f-d4d2-49b0-b782-c536f63c94d3" transform="translate(680.24 461.59) rotate(-77.95)">M</text><path class="e8e0969e-9f6a-4174-a1a4-0092eee51a40" d="M484.52,285.69l-109-109.57-109,109.57a154.15,154.15,0,0,0,0,218h0a154.15,154.15,0,0,0,218,0h0A154.15,154.15,0,0,0,484.52,285.69ZM341.73,382a80.52,80.52,0,0,0-.69,10.34v.34a81.17,81.17,0,0,0,1.71,16.61H307.16v42.37H274.28V333h94.29c-1.56,1.3-3.09,2.64-4.55,4.07a75.48,75.48,0,0,0-16.88,24.75h-40V382Zm131.4,53.73A80.21,80.21,0,0,1,421.6,454C384.66,454,357,428.58,357,392.65v-.34c0-34.57,27.12-61.69,63.9-61.69,20.84,0,35.59,6.44,48.13,17.29l-19.32,23.22c-8.48-7.12-16.95-11.19-28.64-11.19-17.12,0-30.34,14.41-30.34,32.54v.34c0,19.15,13.39,32.88,32.2,32.88,8,0,14.07-1.69,19-4.91V406.38H418.55V382.31h54.58Z"/></g></g></svg>