<svg xmlns="http://www.w3.org/2000/svg" viewBox="0 0 66 79.8"><defs><style>.bcefb660-00a8-4c27-a905-9f5e7867d181{fill:#fff;}</style></defs><title>Asset 10FG_drop_icon</title><g id="af09f724-4212-4c59-818c-b5fa584a9725" data-name="Layer 2"><g id="e2fd3650-8772-417a-9172-c1366ea4ba73" data-name="Layer 1"><path class="bcefb660-00a8-4c27-a905-9f5e7867d181" d="M56.34,23.46,33,0,9.67,23.46a33,33,0,0,0,0,46.67h0a33,33,0,0,0,46.67,0h0A33,33,0,0,0,56.34,23.46ZM25.77,44.07a16.34,16.34,0,0,0-.15,2.22v.07A17.41,17.41,0,0,0,26,49.92H18.36V59h-7V33.59H31.51c-.33.27-.66.56-1,.87a16.19,16.19,0,0,0-3.62,5.3H18.36v4.31ZM53.9,55.58a17.2,17.2,0,0,1-11,3.92C35,59.5,29,54.05,29,46.36v-.07c0-7.4,5.81-13.21,13.68-13.21A14.83,14.83,0,0,1,53,36.78l-4.14,5a9,9,0,0,0-6.13-2.39,6.67,6.67,0,0,0-6.5,7v.08a6.71,6.71,0,0,0,6.9,7,7.17,7.17,0,0,0,4.06-1.06V49.3h-5V44.15H53.9Z"/></g></g></svg>