<svg xmlns="http://www.w3.org/2000/svg" viewBox="0 0 130 30">
  <path d="M 6.5 17 c 0 -15 20 -15 20 0" fill="none" stroke="white" stroke-linecap="round" stroke-width="3" />
  <path d="M 26.5 16.5 c 0 15 20 15 20 0" fill="none" stroke="white" stroke-linecap="round" stroke-width="3" />
  <path d="M 46.5 17 c 0 -15 20 -15 20 0" fill="none" stroke="white" stroke-linecap="round" stroke-width="3" />
  <path d="M 66.5 16.5 c 0 15 20 15 20 0" fill="none" stroke="white" stroke-linecap="round" stroke-width="3" />
  <path d="M 86.5 17 c 0 -15 20 -15 20 0" fill="none" stroke="white" stroke-linecap="round" stroke-width="3" />
  <path d="M 106.5 16.5 c 0 15 20 15 20 0" fill="none" stroke="white" stroke-linecap="round" stroke-width="3" />
  <path d="M 5 15 c 0 -15 20 -15 20 0" fill="none" stroke="rgb(35,38,40)" stroke-linecap="round" stroke-width="3" />
  <path d="M 25 14.5 c 0 15 20 15 20 0" fill="none" stroke="rgb(35,38,40)" stroke-linecap="round" stroke-width="3" />
  <path d="M 45 15 c 0 -15 20 -15 20 0" fill="none" stroke="rgb(35,38,40)" stroke-linecap="round" stroke-width="3" />
  <path d="M 65 14.5 c 0 15 20 15 20 0" fill="none" stroke="rgb(35,38,40)" stroke-linecap="round" stroke-width="3" />
  <path d="M 85 15 c 0 -15 20 -15 20 0" fill="none" stroke="rgb(35,38,40)" stroke-linecap="round" stroke-width="3" />
  <path d="M 105 14.5 c 0 15 20 15 20 0" fill="none" stroke="rgb(35,38,40)" stroke-linecap="round" stroke-width="3" />
</svg>
