<svg xmlns="http://www.w3.org/2000/svg" viewBox="0 0 580.56 482.16"><defs><style>.b2939a9f-a233-458d-b87b-ad0d68491b3f{fill:#fff;}</style></defs><title>Asset 12FG_Welcome_Home</title><g id="baaa2eb3-7f52-4eba-a3ef-c6ccb754cde1" data-name="Layer 2"><g id="b098c92a-dff7-4138-b94e-096c761c98ac" data-name="Layer 1"><path class="b2939a9f-a233-458d-b87b-ad0d68491b3f" d="M400.55,45h0a153.53,153.53,0,0,0-217.13,0h0a153.52,153.52,0,0,0,0,217.12L292,371.24,400.55,262.09A153.54,153.54,0,0,0,400.55,45ZM258,141.45a79.42,79.42,0,0,0-.69,10.3v.34a80.61,80.61,0,0,0,1.7,16.54H223.88v42.2H191.13V92.66h93.73a76.31,76.31,0,0,0-21.39,28.7H223.88v20.09ZM389.2,195a79.9,79.9,0,0,1-51.32,18.23c-36.8,0-64.32-25.32-64.32-61.1v-.34c0-34.44,27-61.45,63.64-61.45,20.77,0,35.45,6.41,47.94,17.22L365.9,130.65c-8.44-7.1-16.88-11.15-28.53-11.15-17.05,0-30.22,14.35-30.22,32.42v.33c0,19.08,13.34,32.75,32.08,32.75,7.93,0,14-1.69,18.9-4.89V165.76H334.84v-24H389.2Z"/><path class="b2939a9f-a233-458d-b87b-ad0d68491b3f" d="M53.86,435.82a44.68,44.68,0,0,0,.64-6.54c0-2.16.07-4.1.07-5.82a1.77,1.77,0,0,0-.43.93v1.22a2.12,2.12,0,0,1-.43-1.07c-.09-.53,0-.79.43-.79a.38.38,0,0,0-.43-.44q.15-4.15.43-8.55a36.13,36.13,0,0,0-.72-9.41,15.42,15.42,0,0,0-3.8,4.1A38.8,38.8,0,0,1,46.24,414c0,.2,0,.29.07.29s.07.1.07.29a2.21,2.21,0,0,0-.71.86c-.2.38-.36.74-.51,1.08a3.54,3.54,0,0,1-.5.86.88.88,0,0,1-.72.36.92.92,0,0,0,.14.5c.1.15.05.32-.14.51q-3.45,6.46-6.39,13.07t-5.82,13.3q-2.88,6.68-5.82,13.22t-6.26,13q-1.72,2-3.88,4.1A6.38,6.38,0,0,1,10,476.92a16,16,0,0,1-5.32-4.24,17.07,17.07,0,0,1-3.16-6.4,9.71,9.71,0,0,1-.94-2.44,21.88,21.88,0,0,1-.5-2.95A20.8,20.8,0,0,1,0,458a9,9,0,0,1,.36-2.3,40.25,40.25,0,0,1-.15-10.13c.39-3.11.82-6.35,1.3-9.7a1.12,1.12,0,0,0-.15-.72q2.88-16,6.76-31t8.62-29.46c1.53-.1,2.87-.14,4-.14a3.68,3.68,0,0,1,3,1.86q-1.58,3.45-2.94,7.4t-2.95,7.69c-.48,2.21-.93,4.27-1.37,6.18a38.11,38.11,0,0,1-1.93,6q-.87,3.74-1.59,7.11a38.66,38.66,0,0,1-2,6.54,10.52,10.52,0,0,1-.43,3.88,17.59,17.59,0,0,0-.72,3.45,1.44,1.44,0,0,1-.36.64,1.79,1.79,0,0,0-.36.65,3.53,3.53,0,0,0-.07,1.22A4.59,4.59,0,0,1,9,428.49a2.64,2.64,0,0,1-.43.79,1.09,1.09,0,0,0-.29.64c-.19,1.35-.33,2.64-.43,3.89a12.33,12.33,0,0,1-1,3.88.32.32,0,0,0,.22.35.7.7,0,0,1,.36.36,1.56,1.56,0,0,0-.5,1.66c.14.72,0,1.17-.51,1.36a5.08,5.08,0,0,1-.07,2A2.12,2.12,0,0,0,6.58,445a15,15,0,0,0-.65,4.75,28.64,28.64,0,0,1-.36,5.17,16.55,16.55,0,0,1,0,3.16,6.9,6.9,0,0,0,.29,2.73,57,57,0,0,0,.65,6.54,8.41,8.41,0,0,0,2.8,5.25,8.67,8.67,0,0,0,4.45-4.17,46.86,46.86,0,0,1,2.88-5v-2L18.07,460a3.28,3.28,0,0,0,.87-2c.19,0,.28.09.28.29s.1.28.29.28c.48-1.24,1-2.42,1.44-3.52a10,10,0,0,1,2.15-3.09.4.4,0,0,1-.21-.5,3.21,3.21,0,0,0,.07-.65c.48,0,.72-.41.72-1.22a1.38,1.38,0,0,1,1-1.51c.1-.38.12-.6.08-.64a2,2,0,0,1-.08-.8c.29.2.48.22.58.08a1,1,0,0,1,.43-.36c-.29-.48-.22-.84.22-1.08s.4-.6-.08-1.08a5.31,5.31,0,0,0,2-2.73,20.18,20.18,0,0,1,1.43-3.3.52.52,0,0,1-.14-.36c0-.15-.1-.17-.29-.07A4.12,4.12,0,0,0,30.22,436c.43-.86.55-1.48.36-1.87.19-.95.57-1.48,1.15-1.58a.83.83,0,0,0-.29-.57c.86-.29,1.15-1,.86-2,.1,0,.24.1.43.29.19-.09.22-.26.07-.5s-.07-.45.22-.65A3.32,3.32,0,0,0,34,428a1.5,1.5,0,0,0,.07-1.37.63.63,0,0,1,.44.14c.09-.19.09-.33,0-.43a.56.56,0,0,1-.15-.43.65.65,0,0,1,.36.07.29.29,0,0,0,.22.07,7.82,7.82,0,0,1,1.22-2.65,2.6,2.6,0,0,0,.5-2.23,1.47,1.47,0,0,1,.65-.58.93.93,0,0,0,.5-.71,20.81,20.81,0,0,1,1.8-3.38,7.6,7.6,0,0,0,1.22-3.67,9.11,9.11,0,0,0-1.51,2c-.43.76-.84,1.55-1.22,2.37s-.82,1.6-1.29,2.37a8.83,8.83,0,0,1-1.73,2c-.1.29-.07.48.07.57s.17.25.07.44c-.48-.48-.48-1.13,0-1.94A4.62,4.62,0,0,1,36.61,419c-.38-.76-.29-1.29.29-1.58a3,3,0,0,0,1.29-1.15q-.72-.42-.21-.72a.85.85,0,0,0,.36-1c.28,0,.38.1.28.29.19.09.29,0,.29-.22s.14-.31.43-.21a.45.45,0,0,0-.43-.29c-.19,0-.24-.15-.14-.43a2,2,0,0,0,.72-1.15c.38,0,.62.09.71.28.39,0,.48-.23.29-.71h.29v.57a.43.43,0,0,0,.29-.36c0-.14-.1-.21-.29-.21a3.24,3.24,0,0,0,.57-1.8,1.84,1.84,0,0,1,.72-1.51,1.33,1.33,0,0,1-.21.65.47.47,0,0,0,.07.64c.09.39,0,.58-.22.58s-.26.19-.07.57c-.67,0-.81.2-.43.58-.19,0-.24,0-.14.07s.14,0,.14-.07a.57.57,0,0,0,.43-.58,2.14,2.14,0,0,0,.43-.57c.1-.19.29-.1.58.29-.2-.39-.24-.65-.15-.79a2.83,2.83,0,0,1,.36-.43l.43-.44c.15-.14.17-.4.08-.79.19,0,.28.2.28.58.38-.19.55-.41.51-.65s-.13-.55-.22-.93a.38.38,0,0,0,.43-.43.26.26,0,0,0,.29-.29c-.19-.1-.29,0-.29.29-.1.09-.17.14-.21.14s-.13.1-.22.29a1.11,1.11,0,0,1-.36.43.66.66,0,0,0-.21.57c-.2,0-.29.05-.29.15s-.1.14-.29.14c0-.09-.19-.14-.57-.14a2.73,2.73,0,0,1,1-1.66,2.73,2.73,0,0,0,1-1.65A10.33,10.33,0,0,0,47,403.56a23.21,23.21,0,0,1,2.58-2.09,1.5,1.5,0,0,0,1-.07,1.5,1.5,0,0,1,1-.07,8.13,8.13,0,0,0,2.22,1l2.66.72a9.64,9.64,0,0,1,2.45,4.31,23.06,23.06,0,0,1,.79,5.46c0,1.92,0,3.86-.15,5.82s-.26,3.77-.36,5.39q-.29,8.19-.72,15.31a113,113,0,0,0,.15,15,11.27,11.27,0,0,1,.93,3.24,14.49,14.49,0,0,0,1.08,3.66,3,3,0,0,0,1.58-2.08,3.11,3.11,0,0,1,1.44-2.09,7,7,0,0,1,.72-1.72,2.56,2.56,0,0,0,.28-1.72c.48-.2.72-.34.72-.44-.09.48,0,.63.29.44s.33-.39.14-.58c.48-.1.67-.29.58-.57a2.21,2.21,0,0,1,0-1.15,1.54,1.54,0,0,0,.57-1.08c.1-.53-.09-.55-.57-.07a2,2,0,0,1,.29-1.15,4.52,4.52,0,0,1,.57-.72,1,1,0,0,0,.29.72c-.29,0-.43,0-.43.14a.62.62,0,0,0,.43-.14.26.26,0,0,0,.29-.29.81.81,0,0,1,.28-.57c0-.2,0-.24-.07-.15s-.17.15-.36.15a4.46,4.46,0,0,1,.94-1.15,1.12,1.12,0,0,0,.35-1.15,8,8,0,0,0,.94-2.81,6.77,6.77,0,0,1,1.22-2.94,13.47,13.47,0,0,1,.79-2.8,5.48,5.48,0,0,0,.36-2.66c.19-.19.29-.22.29-.07s.09.26.29.35c.09-.47-.08-.69-.51-.64s-.6-.12-.5-.5a.28.28,0,0,1,.43-.15c.19.1.24.29.14.58.19-.39.44-.82.72-1.3s.19-.81-.28-1c.28-.1.43-.24.43-.43s.19-.19.57,0c.1-.39.07-.65-.07-.79a.6.6,0,0,1-.07-.65h.72a2.83,2.83,0,0,1-.15-1.51,5.24,5.24,0,0,1,.36-1.08,2.82,2.82,0,0,0,.29-.86,2.58,2.58,0,0,0-.07-1,7.84,7.84,0,0,0,1-2.8c.19-1.1.34-2,.43-2.8a.64.64,0,0,0,.44-.14,3,3,0,0,1,.14-1.08.85.85,0,0,0-.14-.79q1-3.31,1.79-6.76c.53-2.3,1-4.74,1.37-7.33a5.51,5.51,0,0,0,.43-1.22,5.2,5.2,0,0,1,.43-1.22,4.24,4.24,0,0,0,0-1.51c-.1-.43.09-.69.57-.79.1-.29,0-.4-.21-.36s-.31-.07-.22-.36a6.26,6.26,0,0,0,1.37-3.23A7.93,7.93,0,0,1,83.32,392a9.45,9.45,0,0,1,.71-3.81,14.32,14.32,0,0,0,1-3.95c0-.19-.14-.27-.43-.22s-.34-.07-.15-.36.31-.21.36-.07a.34.34,0,0,0,.36.22q2-7.33,4.31-15.45A155.9,155.9,0,0,1,94.67,353c-.19-.38-.22-.59-.07-.64s.12-.27-.08-.65c.39.19.65.17.79-.07a3.23,3.23,0,0,0,.36-.86c.1-.34.19-.7.29-1.08s.29-.58.58-.58q0-.29-.15-.21a.24.24,0,0,1-.29-.07c0-.39.15-.6.44-.65s.38-.31.28-.79c-.28.1-.45.22-.5.36a1.48,1.48,0,0,1-.36.5.36.36,0,0,1,0-.57.85.85,0,0,0,.29-.58,2,2,0,0,0-1.08,1,5.55,5.55,0,0,0-.5,1.43c.19.2.33.08.43-.35s.29-.6.57-.51a1.58,1.58,0,0,1-.28,1.3,1.24,1.24,0,0,0-.15,1.29c-.19,0-.31-.05-.36-.14a1.12,1.12,0,0,0-.21-.29,3.59,3.59,0,0,1-1.15,1.58,2.3,2.3,0,0,0-.86,1.87c.38.09.52,0,.43-.43s0-.53.43-.44a6.1,6.1,0,0,1-.94,2.09,3.16,3.16,0,0,0-.64,1.79c-.2.2-.34.15-.43-.14a2.25,2.25,0,0,1-.15-.72c-.19-.09-.24,0-.14.29s0,.34-.29.14a2.83,2.83,0,0,1,.58-2.37,3.4,3.4,0,0,0,.72-2.37,2.65,2.65,0,0,1,.71-.29c-.28-.38-.14-.79.43-1.22a3.24,3.24,0,0,0,1.15-1.36,1.71,1.71,0,0,1-.07-1.58c.24-.39.51-.82.79-1.3a2.58,2.58,0,0,0,1.87-.86,2,2,0,0,1,2.3-.29,3,3,0,0,0,1.65.87,6.74,6.74,0,0,1,2.23.86l-.43,1.29a6.82,6.82,0,0,0-2.23,2.59,35.3,35.3,0,0,0-1.44,3.3c-.43,1.15-.86,2.33-1.29,3.52A18,18,0,0,1,96.39,361a67.74,67.74,0,0,1-2.15,7.4,64.68,64.68,0,0,0-2.16,7.54,1.32,1.32,0,0,0-.36.65.44.44,0,0,1-.5.36c0,.19.07.29.21.29s.22.09.22.28q-2.16,6.9-3.81,13.94T84,404.92a2,2,0,0,1,.15,1.73,2.47,2.47,0,0,1-1,1.58c-.48,2.87-.93,5.7-1.36,8.47a33.46,33.46,0,0,1-2.23,7.91,5.72,5.72,0,0,1-.07,2,8,8,0,0,1-.58,1.58,12.09,12.09,0,0,0-.64,1.58,3.43,3.43,0,0,0,0,2A13.81,13.81,0,0,1,77,435.1a1.83,1.83,0,0,0,.07.5,2.06,2.06,0,0,1,.08.65.58.58,0,0,1-.15.43,1.77,1.77,0,0,0-.28.43,21.64,21.64,0,0,1-1.23,5.39A34.33,34.33,0,0,0,74,448.18,32.43,32.43,0,0,0,72,453.06a48.3,48.3,0,0,1-1.79,5,23.09,23.09,0,0,1-2.37,4.31,11.51,11.51,0,0,1-3.52,3.23,4.51,4.51,0,0,0-1,.08,2.81,2.81,0,0,1-1-.08c-.48,0-.76.15-.86.43A17,17,0,0,1,55.94,461a10.86,10.86,0,0,1-2.08-7,.25.25,0,0,0-.29-.29.26.26,0,0,1-.29-.29,5.59,5.59,0,0,1,.14-1.08.74.74,0,0,0-.43-.93c.1-.29.19-.38.29-.29a1.77,1.77,0,0,0,.43.29c.1-.48,0-.74-.29-.79S53,450.43,53,450c.58-.09.67-.36.29-.79s-.43-.79-.14-1.07c.38-.1.48-.05.28.14a.36.36,0,0,0,0,.57,36.19,36.19,0,0,0,.51-6.68Q53.86,439.12,53.86,435.82Zm-53,16.67c-.09.28-.07.45.07.5a.66.66,0,0,1,.36.36A9.44,9.44,0,0,0,1,456.73a13.87,13.87,0,0,1-.14,3.52,7.51,7.51,0,0,1,.43,1.94c.1.81.19,1.51.29,2.08v.58c0,.38.14.47.43.28a47.22,47.22,0,0,1-.65-8.26q.07-3.81.36-8.41c0-.09-.09-.14-.29-.14q-.13,1-.21,2A13.14,13.14,0,0,1,.83,452.49Zm.29-.15c.09-.38.14-.41.14-.07S1.21,452.63,1.12,452.34Zm.28-4.74a8.57,8.57,0,0,0,.79-2.8A8,8,0,0,0,2,441.57c-.1,1.05-.17,2.08-.22,3.09A17.9,17.9,0,0,1,1.4,447.6ZM2.12,466c-.09-.19-.16-.24-.21-.14S1.93,466,2.12,466Zm.29.58a.13.13,0,0,1-.14-.14.13.13,0,0,0-.15-.15q-.29.29,0,.51C2.32,466.93,2.41,466.86,2.41,466.57Zm-.14-25.15a12.58,12.58,0,0,1,.64-3,4.34,4.34,0,0,0-.07-3,10.58,10.58,0,0,1-.5,3.16A4.5,4.5,0,0,0,2.27,441.42Zm1.58-9.91H3.7a5.61,5.61,0,0,1-.5,1.86,2.36,2.36,0,0,0-.07,1.73c.19-.77.36-1.41.5-1.94a6,6,0,0,0,.22-1.65c.19-.1.21-.22.07-.36S3.75,431.12,3.85,431.51Zm.14-.87c-.19.29-.17.32.07.08S4.28,430.45,4,430.64Zm.29-.43c-.1-.19,0-.4.21-.64s.12-.36-.36-.36a.72.72,0,0,1,0,.64C4,430.09,4.08,430.21,4.28,430.21Zm.57-4.45V426c.19.2.31.15.36-.14s0-.38-.21-.29A.13.13,0,0,1,4.85,425.76ZM5.57,424a1.63,1.63,0,0,1,.15-.5q.13-.36-.15-.36a.69.69,0,0,1-.21.5Q5.14,423.9,5.57,424Zm1.58-6.89c-.19-.2-.19-.36,0-.51s.19-.26,0-.36a1,1,0,0,0-.21.51Q6.86,417.14,7.15,417.14Zm9.77,49.43c-.19.19-.31.24-.36.14s-.16-.14-.35-.14c-.2.38-.34.69-.44.93s-.38.36-.86.36a.79.79,0,0,1,.07.58.36.36,0,0,0,.22.43,1.55,1.55,0,0,1,.86-.94c.38-.14.67-.6.86-1.36.2.19.31.12.36-.22s0-.45-.21-.36A.82.82,0,0,0,16.92,466.57Zm1.15-.86a.26.26,0,0,0,.29-.29q-.43-.29-.72,0t.15.57A.24.24,0,0,1,18.07,465.71Zm1.73-9.77h.43v.28H19.8ZM21,454.5c0,.29-.1.45-.29.5a.35.35,0,0,0-.29.36c-.19-.1-.21-.26-.07-.5A.7.7,0,0,1,21,454.5Zm.86-2.3c.09-.38.14-.41.14-.07S21.9,452.49,21.81,452.2Zm1.29,2v.29h.58v-.43h-.43C23.25,454.16,23.2,454.21,23.1,454.21Zm.43-.72a1.34,1.34,0,0,0,.58-.14l.57-.29a1,1,0,0,1,0-.72c.1-.28.05-.48-.14-.57a5.4,5.4,0,0,1-.57.93A2.46,2.46,0,0,0,23.53,453.49Zm1.15-1.87c0-.19.05-.31.15-.35s.05-.13-.15-.22c0,.19-.05.31-.14.36S24.49,451.53,24.68,451.62ZM25,449.9q.15.44,0,.57a2,2,0,0,0-.29.44c.29.09.48.07.58-.08a.48.48,0,0,1,.43-.21.62.62,0,0,1-.07-.5c.05-.15,0-.27-.22-.36A.6.6,0,0,1,25,449.9Zm.58-7.9c0,.38-.1.52-.29.43C25.26,442.33,25.35,442.19,25.55,442Zm-.29,3.73c.09-.38.14-.38.14,0S25.35,446.11,25.26,445.73Zm.29-3.73c-.1-.48-.05-.65.14-.51S25.83,441.81,25.55,442Zm.14,7.61a7.44,7.44,0,0,0,1.22-2.37A9.66,9.66,0,0,1,28,444.87h-.72a13.25,13.25,0,0,1-1,2.3A4.76,4.76,0,0,0,25.69,449.61Zm.72-5.46c-.1.1-.17.12-.22.07s-.07,0-.07.22c0-.1.05-.14.15-.14S26.41,444.25,26.41,444.15Zm1-5.75a.59.59,0,0,1-.28.58.9.9,0,0,0-.43.57c-.2-.19-.22-.47-.08-.86A.5.5,0,0,1,27.41,438.4Zm4.32-2.87c-.2,0-.29.05-.29.14a.4.4,0,0,1-.15.29,14.14,14.14,0,0,1-1.86,4.46,10.11,10.11,0,0,0-1.58,4.31,1.32,1.32,0,0,0,.79-1.23,1.29,1.29,0,0,1,.93-1.22c-.38-.19-.41-.55-.07-1.07a2.78,2.78,0,0,1,1.08-1.08,1.61,1.61,0,0,1-.15-1.15,3.34,3.34,0,0,1,.51-1.08,7.82,7.82,0,0,0,.57-.93.79.79,0,0,0,.07-.72,26.51,26.51,0,0,0,1.51-2.88,3.82,3.82,0,0,0,.5-2.58,8,8,0,0,1-1.07,2.37A4.32,4.32,0,0,0,31.73,435.53Zm-3.31,2.87c.29-.19.31-.16.07.08S28.23,438.69,28.42,438.4Zm.58-2.87h-.58a1.93,1.93,0,0,1,.79-1.8,5.28,5.28,0,0,0,1.37-1.65c0-.09-.2-.14-.58-.14a7.89,7.89,0,0,1,.72-1.94c.29-.53.57-1.13.86-1.8a.79.79,0,0,1,.22.93,8.69,8.69,0,0,1-.51,1c-.19.34-.35.67-.5,1a.67.67,0,0,0,.07.79,1.93,1.93,0,0,1-.71,1.29,1.68,1.68,0,0,0-.58,1.44c-.38-.1-.57,0-.57.21Zm0,0c.28.1.33.21.14.36S28.9,435.91,29,435.53Zm0,1.29c0-.19,0-.26.14-.21a.24.24,0,0,1,.14.21Zm.57-.72c.09-.38.14-.38.14,0S29.66,436.49,29.57,436.1Zm2.16-5.17v-.14c.19,0,.26,0,.21.14a.5.5,0,0,1-.21.22.53.53,0,0,1-.22.07C31.46,431.22,31.53,431.12,31.73,430.93Zm.57-2.59c.19-.09.26,0,.22.29s-.17.39-.36.29v-.43C32.25,428.49,32.3,428.44,32.3,428.34Zm.86-2.58a2.37,2.37,0,0,0-.43.57c-.19-.09-.21-.24-.07-.43A.36.36,0,0,1,33.16,425.76ZM33,428.63v.43c-.19,0-.29,0-.29-.14S32.83,428.73,33,428.63Zm0,0c-.19-.38-.19-.48,0-.29S33.21,428.63,33,428.63Zm.14-3.73q.29-.43.36,0c0,.28,0,.48-.21.57-.29-.09-.32-.22-.08-.36S33.45,424.9,33.16,424.9Zm.15,2.58h.28v.29h-.28Zm.14-1.72c.19-.38.29-.38.29,0S33.64,426.14,33.45,425.76Zm3.88-2.3H37a29.16,29.16,0,0,1-1.72,3.45,8.1,8.1,0,0,0-1.15,3.45q0-.15.57-.15a2.47,2.47,0,0,1,1.15-2.44c0,.38.1.57.29.57v-.57c.48.19.69.1.65-.29s-.17-.57-.36-.57c-.2.19-.24.33-.15.43s0,.24-.14.43c-.19,0-.29-.14-.29-.43a1.86,1.86,0,0,0,.65-1.51c0-.53.26-.93.93-1.22a.41.41,0,0,1-.21-.5,3.21,3.21,0,0,0,.07-.65h.57a5.7,5.7,0,0,1,1.3-2.73,3.83,3.83,0,0,0,1-2.59q.44.15.36-.21c-.05-.24.12-.27.51-.08-.2-1.34.14-2.15,1-2.44a2.3,2.3,0,0,1,.15-1.15,1.38,1.38,0,0,0-1,1.15,1.38,1.38,0,0,1-.86,1.15,7.87,7.87,0,0,1-1.44,3.31A9.32,9.32,0,0,0,37.33,423.46Zm-3,2.44a.13.13,0,0,1-.14-.14C34.17,425.66,34.22,425.71,34.31,425.9Zm.72-1.29c0,.09-.05.12-.14.07S34.84,424.61,35,424.61Zm0-.58c0-.28.19-.38.58-.28A.85.85,0,0,1,35,424Zm0,.58c0-.19,0-.26.14-.22S35.22,424.51,35,424.61Zm2.59-4.89c-.39-.19-.43-.43-.15-.72Q37.62,419,37.62,419.72Zm0,0c.09,0,.14,0,.14.15S37.62,419.82,37.62,419.72Zm1.15-2.58a.87.87,0,0,1-.15.86c-.19,0-.28-.17-.28-.51S38.48,417,38.77,417.14Zm.43-1.44h.29v.43H39.2Zm1.87-2.3a.76.76,0,0,0,.64-.65,1.42,1.42,0,0,1,.36-.79c-.48,0-.72.17-.72.5A1.67,1.67,0,0,1,41.07,413.4Zm.86-3.31c-.1-.38,0-.5.14-.35S42.22,410,41.93,410.09Zm.86,4.32c.19-.39.24-.63.14-.72s-.09-.29,0-.58h-.71a4.91,4.91,0,0,0,.07.86A.46.46,0,0,0,42.79,414.41Zm0-5.61c.1.38.05.5-.14.36S42.5,408.9,42.79,408.8Zm.14,1.44c-.19.29-.16.31.08.07S43.22,410.05,42.93,410.24Zm.58,4.31h.29v-.29h-.29Zm.14-2.73c.19,0,.36-.22.51-.65s0-.64-.36-.64v.71Zm1-1.58c.38-.38.79-.82,1.22-1.3a1.51,1.51,0,0,0,.36-1.58,5.27,5.27,0,0,1-1,1.44A2,2,0,0,0,44.66,410.24Zm2.15-3.16.29-.29L47,406.5c0,.1-.1.19-.29.29S46.53,407,46.81,407.08Zm1-1.44c.1.29.14.26.14-.07S47.92,405.26,47.82,405.64Zm3.45-2.3c-.19.1-.24.14-.14.14a.12.12,0,0,0,.14-.14c.19,0,.21-.09.07-.29S51.17,403,51.27,403.34Zm.29-.72c.19.39.28.39.28,0S51.75,402.24,51.56,402.62Zm1.94,29.32a2.38,2.38,0,0,0,.5.86.89.89,0,0,1-.58-.14c-.09.28,0,.45.15.5s.29.21.29.5a5.31,5.31,0,0,0-.65,3.52A10.69,10.69,0,0,1,53,441a1.35,1.35,0,0,1-.57-1.37,7.59,7.59,0,0,1,.43-1.5,32,32,0,0,1,0-6q.28-2.73.57-6a3.33,3.33,0,0,1,.44,2.45,5.65,5.65,0,0,0,0,2.59A.61.61,0,0,0,53.5,431.94Zm-.94,11.78a2,2,0,0,1,.79,1.73c-.05.66-.12,1.38-.21,2.15a2.11,2.11,0,0,1-.43-1.72A5.77,5.77,0,0,0,52.56,443.72Zm.29-1.58c.29-.09.38,0,.29.29a.9.9,0,0,0,0,.72c-.48,0-.65-.1-.51-.29A1.12,1.12,0,0,0,52.85,442.14Zm.14-.57c0-.29,0-.24-.07.14S52.9,442.05,53,441.57Zm.29.71c.19-.19.24,0,.14.43S53.28,443.05,53.28,442.28Zm.14-.86c-.09,0-.12-.05-.07-.14S53.42,441.23,53.42,441.42Zm0,0c.2,0,.27.05.22.15S53.52,441.61,53.42,441.42Zm.44-5.6c-.39.09-.48.05-.29-.15S53.86,435.53,53.86,435.82Zm0,16.67c-.1.47-.13.5-.08.07S53.86,452.1,53.86,452.49Zm0-21.41c.19,0,.21.09.07.28S53.76,431.46,53.86,431.08ZM54,419.72a1.26,1.26,0,0,1,.22,1,3.33,3.33,0,0,1-.22,1c.38-.19.53-.23.43-.14s0,.24.43.43c.1-.48,0-.76-.14-.86a.9.9,0,0,1-.43-.43.85.85,0,0,0,.72-.94,2.59,2.59,0,0,0-.15-1.07,1.64,1.64,0,0,1-.36.5Zm0,3.45a.64.64,0,0,0,.72-.72c-.39.2-.55.17-.5-.07s0-.36-.22-.36Zm1.87-7.62a1.21,1.21,0,0,0-.72-.14c.19.19.14.29-.14.29-.1.38,0,.6.14.65s.29.21.29.5c-.2,0-.24,0-.15.07s.15,0,.15-.07,0,.09.14.29c.48.09.58,0,.29-.36s-.29-.51,0-.51c.09,0,.14.05.14.15s.1.14.29.14a3.94,3.94,0,0,0,.21-1.22c.05-.62-.12-.93-.5-.93A1.45,1.45,0,0,1,55.87,415.55Zm-.29-1.72a.68.68,0,0,0-.21.65,1.17,1.17,0,0,0,.35.64C55.92,414.45,55.87,414,55.58,413.83Zm.29-5c0-.57-.15-.86-.43-.86C55.24,408.61,55.39,408.9,55.87,408.8Zm-.29,18.4c-.19,0-.24,0-.14.07s.14,0,.14-.07.12-.17.07-.22S55.58,427,55.58,427.2Zm0-9.35a5,5,0,0,1,0,2.38,3.07,3.07,0,0,0,.14,2.08,18.48,18.48,0,0,0,.36-2.66c.05-.81.12-1.65.22-2.51a.64.64,0,0,1-.36.35A.66.66,0,0,0,55.58,417.85Zm.29-2.3a.23.23,0,0,1,.21.15c.05.09,0,.19-.21.29Zm.57-2c-.28-.09-.31-.24-.07-.43s.22-.29-.07-.29a.47.47,0,0,0-.36.58C56,413.69,56.16,413.74,56.44,413.54ZM56,456.94c.19.38.29.38.29,0S56.2,456.56,56,456.94Zm7.76,3c.1,0,.17-.19.22-.58s0-.43-.22-.14a3,3,0,0,0-.29.36C63.39,459.74,63.48,459.86,63.77,460Zm1.29-5.46c.29.09.44.05.44-.15a.47.47,0,0,0-.29-.43.23.23,0,0,1-.15.22Q64.93,454.22,65.06,454.5Zm.72-1.44a.28.28,0,0,0-.21.07.29.29,0,0,1-.22.07.51.51,0,0,1,0-.71,4,4,0,0,1,.58-.72c.19.19.16.36-.07.5S65.59,452.68,65.78,453.06Zm.58-2.87v1.15c-.1,0-.15.09-.15.28-.28-.19-.31-.4-.07-.64a.56.56,0,0,0,.07-.79Zm.43-2.3a.92.92,0,0,1-.14.5,3.88,3.88,0,0,0-.29.5.65.65,0,0,1-.15-.71A.4.4,0,0,1,66.79,447.89Zm5-15.09v1q-1.16,3.44-2.16,6.68t-1.86,6.68c-.49-.38-.68-.38-.58,0a.53.53,0,0,1-.43.72,5.17,5.17,0,0,1,.79-3.16,6.21,6.21,0,0,0,.93-3.16.54.54,0,0,0,.65-.15,1.68,1.68,0,0,0,.29-.72,4.53,4.53,0,0,0,.07-.79c0-.24,0-.36-.14-.36a4.39,4.39,0,0,1,.5-2.87,6.62,6.62,0,0,0,.65-3.31l.57-.28A5.34,5.34,0,0,1,71.82,432.8Zm-4.89,17.82c.1.29.15.26.15-.07S67,450.23,66.93,450.62Zm.15-2.59c0-.09.14-.14.43-.14,0,.09-.05.12-.15.07A.23.23,0,0,0,67.08,448Zm.43-1.58c.09.38.14.38.14,0S67.6,446.07,67.51,446.45Zm1,5.46a1,1,0,0,0,.15-.43.56.56,0,0,0-.15-.43,4.47,4.47,0,0,1-.28.5C68.13,451.7,68.23,451.82,68.51,451.91Zm.29-7.18c0,.38,0,.38-.14,0C68.75,444.34,68.8,444.34,68.8,444.73Zm1.44.86a1.59,1.59,0,0,1-.15,1.08c-.19.52-.38.74-.57.64a1.31,1.31,0,0,1-.29,1.44,2,2,0,0,0-.43,1.72,13.08,13.08,0,0,0,2.3-6.61.77.77,0,0,0-.43.94C70.76,445.23,70.62,445.49,70.24,445.59ZM68.94,444c.1-.39.1-.36,0,.07S68.85,444.49,68.94,444Zm.44-.86c.09-.39.14-.39.14,0S69.47,443.53,69.38,443.15Zm.14-.87c.09-.38.09-.36,0,.08S69.42,442.76,69.52,442.28Zm.86-2.73c.1-.38.1-.36,0,.07S70.29,440,70.38,439.55Zm.86,4.17a10.26,10.26,0,0,0,1.51-3.45c.34-1.34.6-2.54.79-3.59a23.6,23.6,0,0,0-1.22,3.38Q71.82,441.86,71.24,443.72Zm8.48-44.55-.14.15c0,.19,0,.24.07.14a.59.59,0,0,0,.07-.29c.1,0,.15,0,.15-.07s.09-.07.28-.07a1.13,1.13,0,0,1-1,1,4.49,4.49,0,0,1-.29,2.87,3.37,3.37,0,0,0-.43,2.15,28.24,28.24,0,0,0-1.29,5.18,54.89,54.89,0,0,1-1.3,5.89c0,.19,0,.29.15.29a.42.42,0,0,1,.28.14,4,4,0,0,0-1,2,21.19,21.19,0,0,0-.43,2.59.4.4,0,0,0,.28-.58.58.58,0,0,1,.29-.71c.19.19.17.5-.07.93s-.27.74-.07.93c-.2.29-.34.36-.43.22s-.2-.12-.29.07.09.24.29.43a31.6,31.6,0,0,1-1.51,5.25,30.67,30.67,0,0,0-1.51,5.1,20.21,20.21,0,0,1,.43-5.25A12.86,12.86,0,0,1,74,423c-.28-.19-.4-.15-.35.14s-.08.34-.36.14c.47-1.81.93-3.66,1.36-5.53s.79-3.61,1.08-5.24c.19,0,.29,0,.29.07s.09.07.28.07c0-.29-.19-.43-.57-.43,0-.48.14-.67.43-.58a.41.41,0,0,0,.58-.28c0-.29-.08-.36-.22-.22s-.27.12-.36-.07a4,4,0,0,0,.36-1.44,1.26,1.26,0,0,1,.79-1.15,3.37,3.37,0,0,1,.86-3.59c-.09-.48-.21-.57-.36-.29s-.26.34-.36.15a9.41,9.41,0,0,1,.72-2c.29-.58.58-1.2.86-1.87q0-.15-.57-.15a17.12,17.12,0,0,1,.36-2c.14-.57.31-1.34.5-2.3.67.2.89.55.65,1.08A2.84,2.84,0,0,0,79.72,399.17Zm-7.61,30.18q.28,0,.57-.72Q72.11,428.63,72.11,429.35ZM72.68,442c-.29,0-.43.05-.43.14C72.54,442.14,72.68,442.09,72.68,442Zm0-.87q-.29.72.15.36C73.11,441.26,73.06,441.13,72.68,441.13Zm.29-9.62c.09-.39.14-.41.14-.08S73.06,431.79,73,431.51Zm11.78-39.38c.48,0,.62-.12.43-.36s-.14-.45.15-.65c-.58-.09-.77.25-.58,1-.48.19-.57.29-.29.29s.39.19.29.57c-.19,0-.29.05-.29.15s-.09.14-.28.14a13.38,13.38,0,0,1,.21-2c.15-.86.6-1.2,1.37-1a.54.54,0,0,1,.14-.79c.29-.24.29-.45,0-.64-.09.38-.43.57-1,.57a1.3,1.3,0,0,0,.36-.72,1.26,1.26,0,0,1,.35-.72c.2,0,.29.08.29.22s.1.26.29.36a1.32,1.32,0,0,1,.07-1c.15-.19.07-.38-.21-.57a.93.93,0,0,0-.22.5c0,.24-.12.27-.22.07a1.62,1.62,0,0,1,.87-1.72c0-.29-.07-.43-.22-.43s-.21-.1-.21-.29c.47.19.74.05.79-.43s-.08-.58-.36-.29a.83.83,0,0,1,.07-1,2.83,2.83,0,0,1,.93-.72,1.26,1.26,0,0,1-.43-1.3c.1-.57.38-.62.86-.14,0,.1-.14.17-.43.21s-.28.17,0,.36c0-.19.1-.26.29-.21a.44.44,0,0,0,.43-.07,8.45,8.45,0,0,1,.29-2c-.39,0-.63-.1-.72-.29a.48.48,0,0,1,.65-.07c.23.14.36,0,.36-.51a3.2,3.2,0,0,0-.65.08c-.24,0-.36,0-.36-.22a.33.33,0,0,0,.36-.22.34.34,0,0,1,.36-.21.13.13,0,0,1,.14.14.13.13,0,0,0,.15.15,1.47,1.47,0,0,0,.28-1.15c-.09-.29-.24-.67-.43-1.15a.59.59,0,0,0,.29-.58c0-.29.14-.38.43-.29a1.17,1.17,0,0,1,0-1.36,7.56,7.56,0,0,1,.72-.94c0,.29.05.44.14.44a1.25,1.25,0,0,0,.15-.58,1.2,1.2,0,0,1,.14-.57c-.19-.19-.34-.19-.43,0s-.14.19-.14,0c0-.48.07-.67.21-.58s.26,0,.36-.29c-.67-.19-.72-.47-.14-.86,0,.39.14.63.43.72.09-.38.19-.72.29-1s.19-.62.28-1c-.19.19-.28.14-.28-.15.19-.09.23-.14.14-.14a.12.12,0,0,0-.14.14c-.1,0-.25.1-.44.29s-.33.15-.43-.14a.94.94,0,0,0,.72-.58c.1-.28.38-.38.86-.28.1-.48,0-.58-.28-.29s-.48.29-.58,0a3.76,3.76,0,0,0,.36-1,1.72,1.72,0,0,1,.5-.86c.1-.09.12-.17.08-.21s-.08,0-.08.21c-.09,0-.14-.14-.14-.43.38.19.53.05.43-.43h.15c.38-.1.4.05.07.43s-.36.62-.07.72a1.39,1.39,0,0,0,.35-.86,5.07,5.07,0,0,1,.22-1c-.48-.19-.72-.38-.72-.58a2.35,2.35,0,0,0,1-.28,1.17,1.17,0,0,1,.28-.94c.2-.14.29-.45.29-.93-.29-.09-.43,0-.43.29s-.14.33-.43.14c-.1-.48,0-.79.22-.93s.26-.46.07-.94a45.85,45.85,0,0,0-2.45,6.11,30.85,30.85,0,0,0-1.43,6.68A65.29,65.29,0,0,0,85.54,385a85.82,85.82,0,0,1-2.8,10.56,4,4,0,0,1-.57,2.87,5.7,5.7,0,0,0-.72,3.45A4.77,4.77,0,0,0,80.8,404a3.11,3.11,0,0,1-.65,1.79c-.19,1.35-.36,2.54-.5,3.6a11.24,11.24,0,0,1-.93,3.16,102.67,102.67,0,0,1-2.3,11.28q-1.44,5.39-2.59,10.85A10.57,10.57,0,0,0,75,432a26.15,26.15,0,0,0,.72-3.52c.67,0,.72-.29.14-.86a14,14,0,0,0,1.3-4.75A15.22,15.22,0,0,1,78.43,418a4.14,4.14,0,0,1,.5-2.88,4.82,4.82,0,0,0,.36-3.45c.48-.09.7-.33.65-.71a1,1,0,0,1,.21-.87c.39-.19.53-.14.43.15s0,.38.15.29c.09-.48.21-1.06.36-1.73a6.16,6.16,0,0,1,.36-1.29.59.59,0,0,0-.58.28,2.61,2.61,0,0,0-.21.65l-.15.72a.44.44,0,0,1-.5.36,26.49,26.49,0,0,1,1-3.59,12.5,12.5,0,0,0,.71-3.16.86.86,0,0,1,.58-.08.35.35,0,0,0,.43-.21,2.36,2.36,0,0,1,.07-.58c0-.19,0-.28-.21-.28,0,.19-.1.24-.29.14s-.24-.19-.14-.29c.47-2.49,1.1-5,1.86-7.61.19.19.34.28.43.28a7.71,7.71,0,0,0,.44-1A1.36,1.36,0,0,0,84.75,392.13Zm-9.12,40.09c.14-.09.16-.23.07-.43-.39-.09-.55,0-.5.29a.7.7,0,0,0,.36.58C75.46,432.46,75.48,432.32,75.63,432.22Zm.07-12.64a.12.12,0,0,0-.14.14.13.13,0,0,1-.15.15q0-.58.15-.72A.6.6,0,0,1,75.7,419.58Zm0-1.73q.28,0,.21.51a1.19,1.19,0,0,1-.21.64.36.36,0,0,1,0-.57A.37.37,0,0,0,75.7,417.85Zm0,1.73c.38-.1.48-.07.29.07S75.7,419.77,75.7,419.58Zm.57-3.59c0,.09,0,.12-.14.07S76.08,416,76.27,416Zm0-.72c.19-.29.29-.29.29,0S76.46,415.55,76.27,415.27Zm0,.72c0-.2,0-.27.08-.22S76.37,415.89,76.27,416Zm.29.28c.19-.38.29-.4.29-.07S76.75,416.56,76.56,416.27Zm.43-3.45q.15-.57.15,0T77,412.82Zm0,14.09c.1.29.17.29.22,0S77.18,426.62,77,426.91Zm.29-16.38c.29.28.38.43.29.43,0,.19-.07.21-.22.07A.39.39,0,0,1,77.28,410.53Zm0,4c.09-.38.14-.38.14,0S77.37,414.93,77.28,414.55Zm.72-6.76v.15a.29.29,0,0,1-.22-.07C77.73,407.82,77.81,407.79,78,407.79Zm-.15,14.81c.1.38.15.4.15.07S78,422.31,77.85,422.6Zm.58-2.3c-.1-.1-.14-.05-.14.14h-.15a2.28,2.28,0,0,1-.21,1,.69.69,0,0,0,.21.86,8.35,8.35,0,0,1,.29-.94,1.19,1.19,0,0,0-.14-.93l.14-.14a5.3,5.3,0,0,0,.36-.43c.14-.2.12-.29-.07-.29A.94.94,0,0,0,78.43,420.3ZM78,407.79c-.1-.38-.07-.47.07-.28S78.19,407.79,78,407.79Zm0,.15c.09,0,.12.05.07.14S78,408.13,78,407.94Zm.43.57c.29.1.33.2.14.29a.28.28,0,0,0-.14.43c-.19,0-.24-.09-.14-.29A1.15,1.15,0,0,0,78.43,408.51Zm-.14-2.44c.19-.38.28-.38.28,0S78.48,406.45,78.29,406.07Zm.14-1c.38-.28.53-.23.43.15S78.62,405.54,78.43,405.06Zm.72,15.24c-.1.48-.1.5,0,.07S79.24,419.91,79.15,420.3Zm0-3.74h.43v-.29h-.43Zm.72-2.73-.15.14c-.19-.09-.28,0-.28.36s.09.46.28.36.24-.28.15-.28-.15-.15-.15-.44c.1.1.15,0,.15-.14a1.56,1.56,0,0,0,.28-.57c.1-.29,0-.48-.14-.58A.8.8,0,0,0,79.87,413.83Zm-.15-12.21c-.28-.29-.31-.51-.07-.65S79.91,401,79.72,401.62Zm.72-6.62q.57.3,0,.72a6.75,6.75,0,0,1-.86.58c-.1-.29-.07-.48.07-.58s.17-.23.07-.43a.34.34,0,0,1,.22.07.29.29,0,0,0,.21.08c.19,0,.27-.05.22-.15A.23.23,0,0,1,80.44,395Zm1.29-3.16c.39.2.44.53.15,1a2.55,2.55,0,0,0-.43,1.29c-.39-.28-.65-.31-.79-.07l-.51.79a.7.7,0,0,1-.07-.79,2.71,2.71,0,0,1,.58-.65,8.28,8.28,0,0,0,.72-.64A1.3,1.3,0,0,0,81.73,391.84ZM80.15,398c.19-.38.29-.4.29-.07S80.34,398.31,80.15,398Zm.65-1.43c0,.28-.17.33-.36.14v-.29l.14-.14C80.78,396.2,80.85,396.3,80.8,396.59Zm2.44-14.23a.22.22,0,0,0,.22.14,3,3,0,0,0-.14,2.45h-.58c.19.19.26.33.22.43a2.32,2.32,0,0,1-.36.43c.09.09.21.24.36.43s.21.1.21-.29c.38.19.38.34,0,.43s-.62.05-.72-.14a5.32,5.32,0,0,0-.28,1.29c0,.1,0,.12.14.07s.14,0,.14.22a.46.46,0,0,0,.29-.43c0-.19.14-.24.43-.15a3.43,3.43,0,0,1-.29.51,1.6,1.6,0,0,0-.14.79l-.29-.58a.83.83,0,0,0-.43.65c0,.24-.09.36-.29.36a2.74,2.74,0,0,1,0,2.15,22.42,22.42,0,0,1-1.15,2,22,22,0,0,1,1-5.18,53.38,53.38,0,0,0,1.44-5.6Q83.17,382.21,83.24,382.36ZM81,396.44c.19-.28.28-.24.28.15S81.21,396.92,81,396.44ZM81.3,411c.1.28.15.26.15-.08S81.4,410.57,81.3,411Zm.58-17.25c.19,0,.26.07.21.22s0,.21.22.21c-.19.29-.34.34-.43.15A.6.6,0,0,1,81.88,393.71Zm.43,13.8c-.29,0-.43.05-.43.14C82.17,407.65,82.31,407.6,82.31,407.51Zm-.14-17c.09,0,.11.07.07.22s0,.21.21.21c-.09.19-.21.22-.36.07S82,390.74,82.17,390.55Zm.14-.29c.09-.38.14-.4.14-.07S82.4,390.55,82.31,390.26Zm.14-1.29c.29-.1.41,0,.36.22a1.07,1.07,0,0,1-.21.5Q82.45,389.69,82.45,389Zm.29,1.29c.19-.28.29-.23.29.15S82.93,390.74,82.74,390.26Zm.43,10.64c-.29.09-.31,0-.07-.22s.22-.4-.07-.5a.94.94,0,0,0-.29.72C82.74,401.18,82.88,401.18,83.17,400.9ZM83.32,388a.85.85,0,0,1,.28.58A.82.82,0,0,1,83.32,388Zm.14,10.35c-.19.29-.14.43.14.43S83.84,398.6,83.46,398.31Zm.72-15.81c.09,0,.14.24.14.72h-.86a.85.85,0,0,0,.14-.57.89.89,0,0,0,.58.14Zm-.72,4.74c.19-.28.29-.26.29.08S83.65,387.63,83.46,387.24Zm.14-3.73c.38,0,.48.24.29.72-.19-.1-.26-.19-.22-.29A.48.48,0,0,0,83.6,383.51ZM84,396.73a.84.84,0,0,1,.15-.5c.09-.15,0-.31-.15-.51a1.21,1.21,0,0,0-.21.58C83.77,396.59,83.84,396.73,84,396.73Zm.15-18.68h.57a1.78,1.78,0,0,0-.29,1,1.18,1.18,0,0,1-.28.87,1,1,0,0,1-.22-1A1.83,1.83,0,0,0,84.18,378.05ZM84,394.72c-.09.48-.12.5-.07.07S84,394.34,84,394.72Zm.15-9.77c.09-.39.09-.36,0,.07S84.08,385.43,84.18,385Zm.72-8.05c0,.48-.2.72-.58.72C84.32,377.14,84.51,376.9,84.9,376.9Zm1.86-5.17a5,5,0,0,0-1,2.51,4.18,4.18,0,0,1-.86,2.23,7.13,7.13,0,0,1,.43-2.66,17.45,17.45,0,0,0,.72-2.37.34.34,0,0,1,.36.21C86.45,371.8,86.57,371.82,86.76,371.73Zm-1.72,8c.29-.19.31-.16.07.07S84.85,380.06,85,379.77Zm.14-2.58c.48-.2.63,0,.43.5s-.33,1-.43,1.36a.75.75,0,0,1-.07-1A.66.66,0,0,0,85.18,377.19Zm.15,3.3c0,.29-.1.34-.29.14C85.23,380.25,85.33,380.2,85.33,380.49Zm-.15,1.08c-.09.43-.09.41,0-.07S85.28,381.14,85.18,381.57Zm.15,12.14c.28.2.43.05.43-.43s-.15-.62-.43-.43Zm.28-17.1q0-.28.15-.21a.24.24,0,0,1,.14.21c-.09.19-.14.24-.14.14S85.71,376.61,85.61,376.61Zm.87-2.73c.38.1.43.38.14.86s-.48.82-.57,1a.81.81,0,0,1,0-.94A5.39,5.39,0,0,0,86.48,373.88Zm-.58,5c0-.19,0-.26.07-.21s.12,0,.22-.08Zm.15-1.15c.19-.29.28-.29.28,0S86.24,378.05,86.05,377.76Zm.43,6.61c0,.19-.1.19-.29,0Zm.14-11.06c0-.39,0-.36-.07.07S86.52,373.79,86.62,373.31Zm.14-1.58c-.09-.39-.05-.48.15-.29S87.05,371.73,86.76,371.73ZM87.91,368a.85.85,0,0,0-.36.86c0,.39-.12.58-.5.58-.09.19,0,.43.22.71s.12.44-.36.44c.19-.29.21-.51.07-.65a1.13,1.13,0,0,1-.22-.79A1.74,1.74,0,0,1,87.91,368Zm-1.15,17.24q.15.58.15,0T86.76,385.23Zm.29-10.63c.29,0,.29.14,0,.43-.19-.09-.24-.17-.14-.22A.22.22,0,0,0,87.05,374.6Zm-.14,9.77a.44.44,0,0,0,.5-.36q.07-.36-.36-.36c.1.2.1.31,0,.36S86.91,384.18,86.91,384.37Zm.43-12.79c.09-.38.14-.38.14,0S87.43,372,87.34,371.58Zm.43-5.17c.19,0,.26.14.22.43s-.17.34-.36.14v-.43C87.72,366.65,87.77,366.6,87.77,366.41Zm-.14,13.51c.09-.39.14-.41.14-.08S87.72,380.2,87.63,379.92Zm.28,2c-.19,0-.28.05-.28.14C87.82,382.07,87.91,382,87.91,381.93Zm-.14,3v.28c.19.2.31.15.36-.14s0-.43-.22-.43C87.91,384.85,87.86,385,87.77,385Zm.14-17.68c.1-.38.1-.36,0,.07S87.82,367.75,87.91,367.27Zm.87-2.15h-.87q0-.44.51-.51T88.78,365.12Zm-.29.14c.29,0,.33.12.14.36s-.19.36,0,.36c-.09.19-.19.19-.28,0a.48.48,0,0,0-.44-.29c0-.19.1-.26.29-.22S88.49,365.45,88.49,365.26Zm0,11.35a.28.28,0,0,1,.14.43,1.41,1.41,0,0,0-.14.58c-.29-.1-.39-.24-.29-.43Zm-.14-8.48c.09-.38.14-.38.14,0S88.44,368.52,88.35,368.13Zm.14-4.74a.35.35,0,0,1,.36.29.59.59,0,0,1-.22.57c-.19,0-.24-.12-.14-.36S88.58,363.49,88.49,363.39Zm.14,2.87h.43v.29c-.19,0-.28.1-.28.29h-.29v-.43C88.58,366.41,88.63,366.36,88.63,366.26Zm0,2.59c.19-.29.29-.26.29.07S88.82,369.24,88.63,368.85Zm.58-1c.19.1.21.2.07.29a.3.3,0,0,0-.07.43c-.2-.09-.27-.19-.22-.28s0-.15-.21-.15C89.06,367.84,89.21,367.75,89.21,367.84Zm0-6.17c.19,0,.28.19.28.57-.28-.29-.43-.29-.43,0-.28-.09-.33-.19-.14-.29S89.21,361.76,89.21,361.67Zm-.15,18.68c-.28.19-.33.36-.14.5s.24,0,.14-.5a.47.47,0,0,0,.29-.43.46.46,0,0,0-.29-.43Zm.43-17a.65.65,0,0,1,.15.72,1.85,1.85,0,0,1-.43.72,1.19,1.19,0,0,0,.07-.72A.77.77,0,0,1,89.49,363.39Zm-.14-2.3a.64.64,0,0,1,.72.72,1.48,1.48,0,0,0-.5-.36A.33.33,0,0,1,89.35,361.09Zm0,5.17h.29v.29h-.29Zm.58-6.75c.09.29.07.46-.08.5a.34.34,0,0,0-.21.36.29.29,0,0,1-.15-.43A1,1,0,0,1,89.93,359.51Zm-.44,13.08c.2-.29.29-.26.29.07S89.69,373,89.49,372.59Zm.58-7.91c-.29,0-.34-.09-.14-.28S90.16,364.3,90.07,364.68Zm-.14-5.17a.69.69,0,0,1,.43-.86,2.24,2.24,0,0,1,0-1.15q.7.28.36,1.08A1.61,1.61,0,0,1,89.93,359.51Zm0,14.51c.19.39.26.41.21.08S90,373.74,89.93,374Zm0,.58c.09.29.14.26.14-.07S90,374.22,89.93,374.6Zm.86-14.52c.29.1.29.41,0,.94a2.82,2.82,0,0,0-.43,1.22c-.39-.19-.41-.5-.07-.93A2.06,2.06,0,0,0,90.79,360.08Zm-.72,4.6c.09,0,.12.05.07.15S90.07,364.88,90.07,364.68Zm.14,16.24q.15.58.15,0T90.21,380.92Zm.15-10.49c0-.48,0-.72.14-.72C90.5,370.19,90.45,370.43,90.36,370.43Zm.57-12.79c0-.09.1-.14.29-.14C91.22,357.59,91.12,357.64,90.93,357.64Zm.15,15.52c-.2.29-.17.31.07.07S91.36,373,91.08,373.16Zm0-14.37a.12.12,0,0,1,.14-.14.13.13,0,0,1,.14.14c0,.2,0,.24-.07.15A.23.23,0,0,0,91.08,358.79Zm.71-2.51c0-.34-.05-.36-.14-.08C91.74,356.59,91.79,356.61,91.79,356.28Zm.15,18.89c-.1.1-.17.12-.22.08s-.07,0-.07.21a.13.13,0,0,1,.14-.14A.13.13,0,0,0,91.94,375.17Zm-.15-20c.19.1.34,0,.44-.29s0-.48-.15-.57c.1.28,0,.43-.14.43S91.7,354.91,91.79,355.2Zm0,3.59h.44a.58.58,0,0,0-.15.43c0,.2-.1.24-.29.15Zm.29,6.47h-.29a1,1,0,0,1,.29-.72Zm.43-7.33c-.19.29-.38.43-.57.43C91.94,358.07,92.13,357.93,92.51,357.93Zm-.14-2.44c0-.29-.1-.24-.29.14C92.27,355.82,92.37,355.77,92.37,355.49ZM92.8,363c.19.1.22.24.07.43s-.26.19-.36,0,0-.26.15-.22S92.8,363.15,92.8,363Zm-.14-6.32c.09-.39.14-.41.14-.08S92.75,356.92,92.66,356.64Zm.43-1.44c.28,0,.4.14.36.43s-.22.38-.51.29a.55.55,0,0,1,.08-.36A.65.65,0,0,0,93.09,355.2Zm.43,4.45q-.28-.28-.36.15c0,.28,0,.43.21.43a.29.29,0,0,1,.08-.22.6.6,0,0,0,.07-.36,1.16,1.16,0,0,1,.72-.14,1.92,1.92,0,0,1,.07-1.87,6.15,6.15,0,0,0,.79-1.58c0,.1.09.24.29.43a2.52,2.52,0,0,1,0-2.08,2.32,2.32,0,0,0,.28-1.65,2.33,2.33,0,0,0-.71,1.72,3.23,3.23,0,0,1-.44,1.72.59.59,0,0,1-.35.36.63.63,0,0,0-.36.36.87.87,0,0,0,.14.51.49.49,0,0,1,0,.5,2.86,2.86,0,0,1-.58.93C93.09,359.2,93.13,359.46,93.52,359.65Zm0-6.46c.29-.19.31-.17.07.07S93.33,353.47,93.52,353.19Zm0,7.18c-.19.29-.17.31.07.07S93.81,360.18,93.52,360.37Zm1.58-3.45c.09.39.14.39.14,0S95.19,356.54,95.1,356.92Zm1-2.73c.2.39.29.41.29.08S96.3,353.91,96.1,354.19Zm.29-2.87c.19,0,.27.05.22.14s0,.15.21.15a.74.74,0,0,1,.22-.51c.14-.14.12-.26-.07-.36a.25.25,0,0,1-.29.29A.26.26,0,0,0,96.39,351.32Zm1.3-1.73c-.2,0-.24,0-.15.08s.15,0,.15-.08c.19-.09.19-.21,0-.35S97.49,349.21,97.69,349.59Z"/><path class="b2939a9f-a233-458d-b87b-ad0d68491b3f" d="M113.35,412.39c-.19,1.25-.34,2.28-.43,3.09a3.24,3.24,0,0,1-1.87,2.23,11,11,0,0,1-4,5.17,56.77,56.77,0,0,0-5.1,4,36.74,36.74,0,0,0-4.31,1.22,4.51,4.51,0,0,1-4.32-.65,8.56,8.56,0,0,0-1.5,3.52c-.24,1.3-.56,2.76-.94,4.39a7.59,7.59,0,0,0,4.82,1.5,20.87,20.87,0,0,0,5.38-.86,43.43,43.43,0,0,0,5.39-1.94,52.74,52.74,0,0,1,5-1.87c1.63-1,3.33-1.89,5.1-2.8s3.62-1.74,5.53-2.51a1.72,1.72,0,0,1,.87-.65,2.38,2.38,0,0,0,.86-.5.88.88,0,0,1-.22.86,3.46,3.46,0,0,1-1,.79,14.32,14.32,0,0,1-1.3.65,3.35,3.35,0,0,0-1.07.72c0,.09.19.14.57.14a29.54,29.54,0,0,1-6.39,4.45,63.54,63.54,0,0,1-7.4,3.17c.47,0,1.17,0,2.08-.08a5.2,5.2,0,0,0,2.37-.64,1,1,0,0,1-.5.72,3.92,3.92,0,0,0-.79.43c0,.19.14.24.43.14s.33,0,.14.29a7.82,7.82,0,0,0-2.37,1.29c-.72.58-1.32.72-1.8.43-.38.2-.5.36-.35.5s.11.32-.08.51a51.33,51.33,0,0,1-5.31,2.08,20.32,20.32,0,0,1-6.18.79,8.42,8.42,0,0,1-4.1-2,8.91,8.91,0,0,1-2.23-3.38,13.82,13.82,0,0,1-.79-4.31,31.5,31.5,0,0,1,.22-4.67,46.72,46.72,0,0,1,2.51-6,38.55,38.55,0,0,1,3.53-5.75,34.21,34.21,0,0,1,4.52-5,22.73,22.73,0,0,1,5.53-3.74,4.49,4.49,0,0,1,2.3-.5c.77.05,1.53.07,2.3.07a2.35,2.35,0,0,1,1.3.58,2.16,2.16,0,0,0,1.15.57,4.41,4.41,0,0,0,1,2.08C112.39,411.41,112.87,411.91,113.35,412.39ZM102.14,415c.29.1.55,0,.79-.36s.45-.36.65-.07a42.77,42.77,0,0,0-3.45,2.94,30.09,30.09,0,0,0-3,3.38,54.3,54.3,0,0,0,6.68-4.09,18.77,18.77,0,0,0,5.1-5.54l-3.73,1.44A6.59,6.59,0,0,0,102.14,415Zm-2,22.85a.92.92,0,0,0,.64.07c.24,0,.31.22.22.79.38-.19.69-.33.93-.43s.55.05.94.43a.4.4,0,0,0,.07-.57c-.14-.19-.07-.29.22-.29a5,5,0,0,0,1.79-.43,14,14,0,0,0,1.8-.86,6.1,6.1,0,0,1-3.45.71A5.55,5.55,0,0,0,100.13,437.83Zm10.92-1.15c.19-.29.29-.26.29.07S111.24,437.06,111.05,436.68Zm13.36-11.21c0,.19,0,.27-.14.22S124.22,425.57,124.41,425.47Zm0,0c0-.09,0-.12.15-.07S124.6,425.47,124.41,425.47Z"/><path class="b2939a9f-a233-458d-b87b-ad0d68491b3f" d="M132.75,444.3a.57.57,0,0,0,.07.36c.05,0,.07.16.07.35.1,0,.24-.09.43-.28a1.37,1.37,0,0,1,.51.43,5.1,5.1,0,0,0,.5.57,23.37,23.37,0,0,0,9.27-4.31q3.81-3,7.54-5.89,5.46-4.61,10.71-9.27t10.42-9.56H173c.19.1.26,0,.21-.35s.07-.46.36-.36a10.55,10.55,0,0,1-2.51,3.23,7,7,0,0,0-2.23,3.38c-.77-.1-1.65.38-2.66,1.43a14.57,14.57,0,0,0-2.08,2.59c-.1.19-.2.19-.29,0s-.19-.29-.29-.29v.87c-.77-.29-1.25-.05-1.44.71a4.71,4.71,0,0,0-1.29.79c-.38.34-.53.65-.43.94a10.83,10.83,0,0,0-1.08.43,1.75,1.75,0,0,0-.93,1c.19.09.36,0,.5-.36s.26-.27.36.21a1.55,1.55,0,0,1-1.15.43c0-.19,0-.24-.07-.14s0,.14.07.14c.09.48,0,.63-.36.43s-.41,0-.21.58a.65.65,0,0,1-.72-.15,2.58,2.58,0,0,1-1.15,1.44,2,2,0,0,0-1,1.58c-.09-.09-.17-.12-.21-.07s-.08,0-.08-.22c.1.1.15.05.15-.14l-.15.14A11,11,0,0,1,153,436.1a6.93,6.93,0,0,0-1.15,1.15c.1.2.19.27.29.22l.36-.22.43-.28c.14-.1.31-.05.5.14a3.26,3.26,0,0,1,1.3-1.8,2.35,2.35,0,0,1,2.15-.64,4.64,4.64,0,0,1-1.36,1.36,4.59,4.59,0,0,0-1.37,1.37,8.8,8.8,0,0,0,2.52-1.87,8.62,8.62,0,0,1,2.51-1.87,19.71,19.71,0,0,1-4.31,3.95,19.78,19.78,0,0,0-4.31,4c.19.19.45.16.79-.08a1.91,1.91,0,0,0,.64-.64c.2.19.2.48,0,.86s-.38.43-.57.14c-.19.58-.1.86.29.86a44.54,44.54,0,0,1-6,4.68,15.39,15.39,0,0,1-7.54,2.51,14.14,14.14,0,0,1-9.27-5.46,19.46,19.46,0,0,1-3.66-11.21c.09-.19.07-.29-.08-.29s-.26-.09-.36-.28a59,59,0,0,0,1.08-6,12.5,12.5,0,0,0-.64-5.75,6.54,6.54,0,0,0,1.5-2.3,12.09,12.09,0,0,0,.72-2.8c.15-1,.29-2,.43-3a16.41,16.41,0,0,1,.65-2.8.48.48,0,0,1,.07.65.91.91,0,0,0-.07.79,2.11,2.11,0,0,0,.5-1.37c0-.62-.12-1-.5-1.22a304.07,304.07,0,0,1,7.4-29.6q4.38-14.37,9.7-27.88,2-3.45,3.95-7.26c1.3-2.53,2.68-5,4.17-7.4a80.79,80.79,0,0,1,4.74-6.82,29.83,29.83,0,0,1,5.82-5.68,7.16,7.16,0,0,1,5.32,2.44,10,10,0,0,1,2.08,5.18,21.83,21.83,0,0,1-.21,6.32,36.2,36.2,0,0,1-1.44,5.75,20.14,20.14,0,0,1-.93,6.1,33.15,33.15,0,0,1-2.23,5.39q-2,6.18-4.17,11.71T158.33,378q-2.31,5.38-4.74,10.77t-5,11.14a6.63,6.63,0,0,1-1,.86,1,1,0,0,0,.14.51.7.7,0,0,1,0,.64,53.54,53.54,0,0,0-3.23,5.61q-1.52,3-3.09,5.89a40.48,40.48,0,0,1-3.59,5.46,21.1,21.1,0,0,1-4.74,4.45,5.71,5.71,0,0,0-1.15,3.53,6.71,6.71,0,0,1-.87,3.37,26.6,26.6,0,0,1,.08,3.38c0,1.2-.08,2.42-.08,3.66a24.7,24.7,0,0,0,.29,3.74A6.83,6.83,0,0,0,132.75,444.3Zm-7.91-10.78h.29v.29h-.29Zm1.59-.29c.38.19.48.19.28,0S126.43,433,126.43,433.23Zm.43-2c-.1,0-.15-.05-.15-.14s0-.15-.14-.15c-.19.19-.19.34,0,.43S126.86,431.41,126.86,431.22Zm-.15-1.15c0,.19,0,.29-.07.29s-.07.05-.07.14c.19.19.31.14.36-.14s0-.39-.22-.29c.1-.38.05-.5-.14-.36S126.43,430,126.71,430.07Zm0-.72q.15.57.15,0T126.71,429.35Zm1,7.76c0-.48,0-.72-.14-.72C127.19,436.78,127.24,437,127.72,437.11Zm-.29-1.58c-.09.57-.12.65-.07.21S127.43,435.24,127.43,435.53Zm.15,1.72c-.2.39-.17.58.07.58S127.86,437.64,127.58,437.25Zm1.15,1.15c.19.39.28.41.28.08S128.92,438.12,128.73,438.4Zm1.58-35.35h.43v-.28h-.43Zm.43-.43A1.29,1.29,0,0,0,131,402c.05-.33-.12-.45-.5-.35a.6.6,0,0,1-.07.64Q130.15,402.49,130.74,402.62Zm1.15,39.09a.45.45,0,0,1,.5.36,2.83,2.83,0,0,0,.21.64C132.12,442.71,131.89,442.38,131.89,441.71Zm1.43,3c-.19-.1-.28-.17-.28-.22s-.1-.12-.29-.21a2.34,2.34,0,0,0-.29-1c.19-.19.36-.07.5.36S133.23,444.44,133.32,444.73ZM133,398.6c.19.38.28.38.28,0S133.23,398.22,133,398.6Zm.57-8.48h.29v-.58h-.29Zm29.17-59.21a.44.44,0,0,1-.28-.43c0-.19-.1-.24-.29-.14s-.05.31.14.36a.35.35,0,0,1,.29.36,2.62,2.62,0,0,0-1.08,1.29,2,2,0,0,1-1.22,1.15c.09-.29,0-.48-.14-.58a5.52,5.52,0,0,0-.72.87,8.27,8.27,0,0,0-.58,1c.1.29.24.24.43-.14s.34-.38.44,0c-.49.77-1.06,1.65-1.73,2.66a3.26,3.26,0,0,1-2,1.65,1.56,1.56,0,0,1-.36,2.16,4.63,4.63,0,0,0-1.37,2c-.09.29,0,.43.29.43s.38.19.29.57c-.48,0-.77.05-.86.15s0,.38.28.57q-.28,0-.36.15c0,.09-.16.09-.35,0a1.06,1.06,0,0,1,.07,1,7.15,7.15,0,0,1-.51,1.08,4.6,4.6,0,0,0-.43,1.08.92.92,0,0,0,.43,1,1.55,1.55,0,0,0-.5.43.91.91,0,0,1-.79.29c-.1.2-.05.29.14.29a.25.25,0,0,1,.29.29q-1.44,3.3-3.09,6.53a26.19,26.19,0,0,0-2.37,7,11.65,11.65,0,0,0-1.15,2.45c-.29.86-.57,1.7-.86,2.51a19.17,19.17,0,0,1-1,2.37,8.19,8.19,0,0,1-1.58,2.16c-.09.29,0,.43.36.43s.51.1.51.29a9.68,9.68,0,0,0-.65,2.37,4,4,0,0,1-1.08,2.23,9.94,9.94,0,0,1-.72,3.59,17.88,17.88,0,0,0-1,3.74c-.1.19-.27.24-.51.14s-.36-.05-.36.14c.48.1.63.48.44,1.15s-.53,1-1,.86a16.18,16.18,0,0,1-.36,4.32,9.08,9.08,0,0,1-1.8,4c.48.48.63.93.43,1.36a1.72,1.72,0,0,0,0,1.37c-.48-.09-.74.14-.79.72a5.29,5.29,0,0,1-.35,1.58c.28.1.43-.05.43-.43s.09-.43.28-.15c-.38,1.54-.84,3.33-1.36,5.39a29.84,29.84,0,0,0-.94,5.54,197.12,197.12,0,0,0,13.58-26q5.82-13.52,11.86-26.45c1.24-4.31,2.59-8.47,4-12.5a55,55,0,0,0,2.88-12.5,4.47,4.47,0,0,0,.5-2.95,11.43,11.43,0,0,1,.07-3.37,1.41,1.41,0,0,0-1.15-.08,3.16,3.16,0,0,0-1.07.72,10.69,10.69,0,0,0-.94,1.08A9.08,9.08,0,0,1,162.78,330.91ZM134.69,387.1a2.61,2.61,0,0,0,.36-.86c-.2,0-.29-.05-.29-.14s-.1-.1-.29,0a1.14,1.14,0,0,1-.28,1.07c-.29.34-.24.6.14.79A2.24,2.24,0,0,1,134.69,387.1Zm.5,3.31c-.48.28-.53.45-.14.5S135.48,390.79,135.19,390.41Zm-.14-6c.38,0,.57-.29.57-.86-.28-.1-.43,0-.43.21A1.51,1.51,0,0,1,135.05,384.37Zm.57-1.58a3.71,3.71,0,0,1,.72-1.29c.38-.48.34-.82-.14-1a2,2,0,0,1-.43,1.15A1,1,0,0,0,135.62,382.79Zm.72-2.73a.29.29,0,0,1,.22.07.27.27,0,0,0,.21.07,1.15,1.15,0,0,1-.14-.43c0-.09-.1-.14-.29-.14Zm0,10.49h.43v-.43h-.43Zm.14-11.06a3.9,3.9,0,0,0,1.15-1.95c.29-.9.34-1.5.15-1.79-.2.48-.41,1-.65,1.65A20,20,0,0,0,136.48,379.49Zm0,9.77c.29.19.44.12.44-.22s-.15-.41-.44-.21Zm1.3,1.29c.09.38.14.38.14,0S137.87,390.17,137.78,390.55Zm0,28.88c0-.19.09-.19.29,0S138.16,419.63,137.78,419.43Zm.72-44a1,1,0,0,1-.08-.65c.05-.23-.07-.31-.35-.21a.56.56,0,0,0-.15.65C138,375.49,138.21,375.56,138.5,375.46Zm-.29-1.44c.19.1.36,0,.5-.21s.12-.41-.07-.5c0,.19-.07.28-.22.28S138.21,373.74,138.21,374Zm.57-1.43a1.32,1.32,0,0,0,.72-.79,1.09,1.09,0,0,0,0-1.08A8.39,8.39,0,0,0,138.78,372.59Zm1,2.87a.13.13,0,0,1,.14-.14c0-.29-.09-.38-.28-.29C139.65,375.32,139.69,375.46,139.79,375.46Zm0-5.6h.43v-.43h-.43Zm.14-.72a.78.78,0,0,0,.79-.58.76.76,0,0,0-.07-.86.7.7,0,0,0-.5.58A5.72,5.72,0,0,1,139.93,369.14Zm.29,4.6h.29v-.58h-.29Zm.29-1.15c.19.19.29.12.29-.22s-.1-.45-.29-.36Zm.14-5.18a16.64,16.64,0,0,0,1.44-3c.38-1.06.76-2.11,1.15-3.17,0-.28-.1-.33-.29-.14-.38,1.06-.81,2.13-1.29,3.23A15.59,15.59,0,0,0,140.65,367.41Zm0,11.79h.43v-.43h-.43Zm.15,66.53c.47.1.64,0,.5-.14S141,445.45,140.8,445.73Zm16.81-78h-.14c0,.29-.2.43-.58.43.29.67.26,1.08-.07,1.22s-.41.46-.22.94c-.28-.1-.45-.07-.5.07a.7.7,0,0,1-.36.36q-.15.43,0,.57a.58.58,0,0,1,.14.44.28.28,0,0,1-.43.14c-.19-.1-.28-.05-.28.14a1.86,1.86,0,0,1-.08,1.51,2.11,2.11,0,0,1-.93,1.08c-.19.48-.19.81,0,1a2.14,2.14,0,0,1,.43.57c-.67-.09-1.08.07-1.22.5a2.63,2.63,0,0,0-.07,1.37.91.91,0,0,0-.86.57.85.85,0,0,1,.28.58,10.75,10.75,0,0,1-1.07,1.72,13.33,13.33,0,0,0-1.15,1.8,7.07,7.07,0,0,0-.72,1.87,2.58,2.58,0,0,0,.36,1.94c-.2,0-.32.05-.36.14s-.17.1-.36,0v-.57a18.41,18.41,0,0,0-3.16,5.74,18.56,18.56,0,0,1-3.16,5.75,1.33,1.33,0,0,1-.22,1.15q-.36.43.36.72.28-.29,0-.36c-.19-.05-.24-.22-.14-.5a3,3,0,0,1,.71-.51,2.42,2.42,0,0,0,.72-.5,4.93,4.93,0,0,1,.79-2.59,23,23,0,0,0,1.37-2.58c.29-.1.4,0,.36.36s.07.45.36.36a.83.83,0,0,1,.14-.58l.43-.43c-.1.29,0,.36.22.22s.31-.31.21-.51c-.19,0-.28.05-.28.15s0,.14-.15.14c0-.86.19-1.29.58-1.29.19-.19.14-.34-.15-.43s-.33-.24-.14-.43c.29,0,.45.09.5.28s.22.24.5.15c.29-.29.29-.43,0-.43s-.38-.15-.28-.44.31-.21.36-.07.21.22.5.22a2.64,2.64,0,0,1-.22-1.3,5.12,5.12,0,0,1,.22-1c.19.19.29.34.29.43a.56.56,0,0,1-.15.43.62.62,0,0,0-.14.43,19,19,0,0,0,3-5.89,15.37,15.37,0,0,1,2.94-5.6c-.38-.48-.24-.82.43-1a.45.45,0,0,0,0-.5,1,1,0,0,1-.14-.51.8.8,0,0,0,.57-1.15.86.86,0,0,0,.43-.43.59.59,0,0,1,.58-.28c0-.29-.07-.46-.22-.51a.63.63,0,0,1-.36-.36.35.35,0,0,1,.44-.21c.19,0,.28,0,.28-.22s-.21-.24-.36-.14-.26.05-.36-.14c0-.39.1-.51.29-.36a1,1,0,0,0,.58.21c.19-.67.36-1.24.5-1.72s.31-1,.5-1.44c-.19-.09-.31,0-.36.22s-.21.31-.5.21a.66.66,0,0,1,.22-.5c.14-.15.07-.26-.22-.36,0,.19-.1.24-.29.14a.28.28,0,0,1-.14-.43c.29.19.38.12.29-.21s0-.41.43-.22c-.29.48-.2.62.29.43.19,0,.23-.16.14-.5s.05-.5.43-.5a1.57,1.57,0,0,1-.22.71.51.51,0,0,0,.22.72,1.2,1.2,0,0,1,.36-1c.24-.19.31-.58.22-1.15-.29.19-.58.09-.87-.29.67-.09.82-.22.43-.36s-.43-.31-.14-.5a.46.46,0,0,1,.5.43c.05.29.27.43.65.43a1.51,1.51,0,0,1,.5-1.58,1.06,1.06,0,0,0,.51-1.15c-.1-.19-.22-.26-.36-.22s-.27,0-.36-.21a5.62,5.62,0,0,1,.57-.86c.1.28.07.45-.07.5s-.17.17-.07.36a1.2,1.2,0,0,0,1.15-.29,1.54,1.54,0,0,1-.15-.72,2.87,2.87,0,0,0-.14-.86.47.47,0,0,1,.58-.14c.19.09.28-.1.28-.58a2.1,2.1,0,0,1-.86-.14,1.21,1.21,0,0,0-.57-.15.5.5,0,0,1,.57-.57,1.13,1.13,0,0,0,.86-.29.69.69,0,0,0-.21.65q.06.36.36.36a5,5,0,0,0,.14-1.15,3.42,3.42,0,0,1,.14-1c-.19-.09-.28-.09-.28,0a.13.13,0,0,1-.15.15c-.19-.39-.17-.55.07-.51s.36,0,.36-.21c-.38-.1-.38-.38,0-.87s.63-.47.72,0c-.09-.19,0-.52.36-1s.26-.81-.21-1c-.2.1-.24.32-.15.65s-.05.46-.43.36q.44-.29.15-1.08c-.2-.52,0-.79.71-.79a.38.38,0,0,0-.43-.43c-.28,0-.33-.24-.14-.72-.29.48-.65,1.13-1.08,1.94s-.31,1.32.36,1.51a1.09,1.09,0,0,0-.14.5c0,.15-.1.22-.29.22a.29.29,0,0,1-.22-.07.55.55,0,0,0-.36-.08,13.31,13.31,0,0,1-.71,2.3,13,13,0,0,0-.72,2.3.77.77,0,0,1-.51.29.8.8,0,0,0-.5.29c-.1.29-.07.48.07.57s.17.24.08.43c-.2-.09-.29,0-.29.15a.26.26,0,0,1-.29.29.7.7,0,0,1-.14.93,1,1,0,0,0-.29,1.08H158c.09.48,0,.79-.22.93a.85.85,0,0,0-.35.79A3.15,3.15,0,0,1,157.61,367.7Zm-14.8,78,1.36-.43q.93-.29.36-.57a1.17,1.17,0,0,1-.86.5A1.17,1.17,0,0,0,142.81,445.73Zm.43-85.21q2.87-6.33,6.25-12.86t6.25-11.86A108.71,108.71,0,0,0,149,347.44Q146,353.47,143.24,360.52Zm.57,2.58c.19.39.29.41.29.07S144,362.82,143.81,363.1Zm2,32.77a3.35,3.35,0,0,1,.36-.79,3.37,3.37,0,0,0,.35-.94,1.34,1.34,0,0,0-.71.79C145.63,395.36,145.63,395.68,145.83,395.87Zm.71-2h.29v-.44h-.29Zm0,2c.29-.1.44-.27.44-.51a.89.89,0,0,1,.28-.64C146.78,394.72,146.54,395.1,146.54,395.87Zm.15,49.72a1.64,1.64,0,0,0,.86-.58C147.17,444.92,146.88,445.11,146.69,445.59Zm1-54.18c0,.48-.14.72-.43.72-.19-.19-.21-.36-.07-.5A.66.66,0,0,1,147.69,391.41Zm-.43,2.73c.19.1.34,0,.43-.21s.05-.41-.14-.51c0,.2-.07.32-.22.36S147.17,394,147.26,394.14Zm.43-3.3c.19-.38.29-.38.29,0S147.88,391.22,147.69,390.84Zm.72,49v.29h.43c.19-.19.1-.34-.28-.43C148.56,439.79,148.51,439.84,148.41,439.84Zm1,4.31c-.19.29-.17.31.07.07S149.71,444,149.42,444.15Zm0-.57a.48.48,0,0,0,.57-.15c.19-.19.19-.33,0-.43,0,.2-.12.29-.36.29S149.32,443.39,149.42,443.58Zm.29-4.46q.14.44.21,0T149.71,439.12Zm.28,3.45c0-.19.07-.29.22-.29s.16-.14.07-.43c-.19-.09-.34,0-.43.22S149.8,442.48,150,442.57Zm.58-56.76c-.48.09-.63.05-.43-.15S150.47,385.52,150.57,385.81Zm-.43,52.88a1.34,1.34,0,0,0,1-.29l.58-.57c-.2,0-.27-.05-.22-.14a.24.24,0,0,0-.07-.29,7.56,7.56,0,0,1-.65.57A3.2,3.2,0,0,0,150.14,438.69Zm0,4.89c.19.28.28.28.28,0S150.33,443.29,150.14,443.58Zm.14-94c.19.2.36.15.5-.14s.12-.43-.07-.43c0,.19-.07.29-.21.29S150.28,349.4,150.28,349.59Zm.29,36.22.29-.29c.19.1.21.22.07.36a.66.66,0,0,0-.22.5C150.42,386.38,150.37,386.19,150.57,385.81Zm1-38.08a1.09,1.09,0,0,1-.43-.15c-.19-.09-.28,0-.28.15a.28.28,0,0,1,.43.14C151.38,348.06,151.48,348,151.57,347.73Zm-.71,3.45c.38.09.47.07.28-.08S150.86,351,150.86,351.18Zm.28,32q.15-.29.36,0C151.65,383.41,151.52,383.41,151.14,383.22Zm.43.72c.29-.19.31-.17.08.07S151.38,384.23,151.57,383.94Zm.15-2c.19-.1.28-.1.28,0s.1.14.29.14c0,.19-.14.27-.43.22S151.52,382.12,151.72,381.93Zm.14,1.15c.19-.29.29-.29.29,0S152.05,383.37,151.86,383.08Zm.14,59.06c.29-.09.44.05.44.43h-.58A.56.56,0,0,0,152,442.14Zm.29-97.72c-.09.39.1.53.58.43s.67-.28.57-.57l-.64.14Zm0,36.65c.1-.29.17-.27.22.07S152.48,381.45,152.29,381.07Zm13.08,48.14a26.24,26.24,0,0,1-4.81,5,64.43,64.43,0,0,0-5.39,4.82c0,.19.07.24.21.14a1.82,1.82,0,0,0,.36-.29,2.7,2.7,0,0,1-1.36,1.66,3.43,3.43,0,0,0-1.51,1.65c-.2,0-.29-.09-.29-.29s-.1-.24-.29-.14a3.14,3.14,0,0,0,.29-1.87c.29.19.45.27.5.22s.22,0,.51.07c.28-.1.28-.17,0-.22s-.34-.16-.15-.36l6-5.17C161.49,432.66,163.45,430.93,165.37,429.21Zm-12.5-49.72a.46.46,0,0,1,.36-.15q.21,0,.21.15c.1.19,0,.28-.21.28S152.87,379.68,152.87,379.49Zm0,1h.43v.43h-.43Zm0,57.91q.72,0,.72-.57Q153.16,437.83,152.87,438.4Zm.72-60.78c.28,0,.43.28.43.86-.39.1-.6,0-.65-.22A.66.66,0,0,1,153.59,377.62Zm0,1.15c.38,0,.57.14.57.43h-.57Zm.57,61.07a.32.32,0,0,0,.29-.57c0,.19,0,.28-.15.28S154.16,439.65,154.16,439.84Zm.29-62.37c.29-.19.31-.16.07.07S154.25,377.76,154.45,377.47Zm.86-2c.19.1.24.19.14.29a.44.44,0,0,0-.14.29c-.19-.1-.24-.17-.14-.22S155.31,375.65,155.31,375.46Zm-.14-1.29c.47,0,.71.14.71.43C155.4,374.6,155.17,374.46,155.17,374.17Zm.57-1.44a.6.6,0,0,1,.43.14,1.53,1.53,0,0,0,.43.29c-.09.29-.31.39-.64.29S155.55,373.12,155.74,372.73Zm.58,65.39c.38.09.47.24.28.43a.81.81,0,0,1-.57.28c-.1-.19-.07-.3.07-.35A.34.34,0,0,0,156.32,438.12Zm.28-66.39c-.19.09-.28.21-.28.35s-.1.22-.29.22a.6.6,0,0,0,.14-.43C156.17,371.68,156.32,371.63,156.6,371.73ZM156.32,434h.43v.43h-.43Zm1.43-63.66v.57a.35.35,0,0,1-.57,0,.83.83,0,0,1-.29-.57c.19-.19.31-.22.36-.07S157.47,370.38,157.75,370.29ZM156.89,434h.72q-.29.57-.72.57Zm.29-64.52c.38.19.57.43.57.71C157.37,370,157.18,369.71,157.18,369.43Zm.57,68.11a.36.36,0,0,1-.57,0c0-.19.09-.26.29-.21s.28,0,.28-.22C157.94,437.21,157.94,437.35,157.75,437.54Zm0-101a.89.89,0,0,0,.58-.58,1.87,1.87,0,0,1,.43-.72.67.67,0,0,0-.72.44C157.94,335.94,157.85,336.23,157.75,336.52Zm.15,96.71h.43v.58h-.58v-.29C157.85,433.52,157.9,433.42,157.9,433.23Zm0-64c.28-.19.31-.16.07.07S157.7,369.57,157.9,369.28Zm.57,62.94.43.44a1.59,1.59,0,0,1,.29.43c-.38.09-.57,0-.57-.22A1.41,1.41,0,0,0,158.47,432.22Zm.86,0a.38.38,0,0,1-.43-.43.82.82,0,0,1,.58.15c0,.09,0,.14-.07.14S159.33,432.13,159.33,432.22Zm0,0c.29,0,.39.15.29.44h-.29Zm.29-1h.43v.29h-.43Zm.15-66.39c.19-.38.28-.41.28-.07S160,365.12,159.77,364.83Zm0,68.11c.19-.28.3-.28.35,0S160.05,433.23,159.77,432.94Zm.43-.86c-.2,0-.27-.05-.22-.14S160.1,431.89,160.2,432.08Zm-.15-73.43q.15.57.15,0T160.05,358.65Zm.15,3.45c.19-.1.26,0,.21.43s-.17.48-.36.29A1.12,1.12,0,0,0,160.2,362.1Zm0,70c.38.1.59.07.64-.07s.22-.22.51-.22c0,.2-.08.29-.22.29s-.17.1-.07.29a3.21,3.21,0,0,0-.65.07Q160,432.52,160.2,432.08Zm.14-69h.29v.29h-.29Zm1.44,68.41a2.85,2.85,0,0,0-1.3,0c-.09-.39.1-.53.58-.43S161.78,431.32,161.78,431.51Zm-1.3-70.28h.43v.29h-.43Zm.58,69.27c.09-.38.14-.38.14,0S161.15,430.88,161.06,430.5Zm.14-68.83c0-.58.19-.87.58-.87C161.58,361.38,161.39,361.67,161.2,361.67Zm.15,67.11c0-.2.09-.22.28-.08S161.73,428.87,161.35,428.78Zm.86.86c.29-.1.43,0,.43.21s.14.32.43.22a5.1,5.1,0,0,0-.5.57,5.43,5.43,0,0,1-.51.58q-.57-.29-.57-.72c.19-.19.33-.22.43-.07s.24.17.43.07.07-.31-.07-.36S162.11,429.92,162.21,429.64Zm-.43-71c0-.29.09-.34.28-.15S162.16,358.74,161.78,358.65Zm.28,69.26h.15a.34.34,0,0,1-.07.22C162.09,428.18,162.06,428.11,162.06,427.91Zm.29-66.39a.44.44,0,0,1,.29-.14c-.19-.19-.34-.29-.43-.29C162.21,361.38,162.25,361.52,162.35,361.52Zm-.14,66.39a.12.12,0,0,1,.14-.14C162.45,427.77,162.4,427.82,162.21,427.91Zm.57-70.12c0,.38-.14.52-.43.43Zm.29,70.55c.19.49,0,.63-.72.44C162.54,428.39,162.78,428.25,163.07,428.34Zm1.72-.57h.87q-.58.57-1.08,1.08a12,12,0,0,1-1.08.93c-.29.1-.43.07-.43-.07s-.1-.22-.29-.22a4.29,4.29,0,0,0,.65-.36,3.57,3.57,0,0,0,.36-.79c.19,0,.29.05.29.15s.09.14.28.14.17-.19-.07-.29-.31-.23-.21-.43a1,1,0,0,1,.57.22C164.84,428.27,164.89,428.15,164.79,427.77Zm-1.72.57a.51.51,0,0,1,.58-.57A.51.51,0,0,1,163.07,428.34Zm.72-71.27v-.29h-.29v.29Zm-.14-5.18a5.23,5.23,0,0,0,.57.51q.28.21.57-.51a.48.48,0,0,0-.35-.14c-.15,0-.17-.14-.08-.43a1.14,1.14,0,0,0,.65-.5,3.21,3.21,0,0,1,.5-.65,3,3,0,0,1-1.15-.58,2.6,2.6,0,0,1-.21,1.23A7.46,7.46,0,0,0,163.65,351.89Zm1.58,74.3a.83.83,0,0,1-.29.57c-.19,0-.24-.14-.15-.43S165,426,165.23,426.19Zm.28-76.74c.1-.48-.14-.62-.72-.43C164.79,349.31,165,349.45,165.51,349.45Zm-.72,77.6h.58a.47.47,0,0,0-.29.43c0,.2-.09.24-.29.15Zm.15-78.6c.48,0,.72-.1.72-.29C165.18,347.68,164.94,347.78,164.94,348.45Zm.29,77.74c-.2-.19-.13-.29.21-.29s.41.1.22.29Zm0-74.15h.28v-.29h-.28Zm.86-5.18a.5.5,0,0,0-.65.22c-.14.24-.12.41.07.5.1-.28.17-.33.22-.14a.34.34,0,0,0,.36.29,1.18,1.18,0,0,0,.29-.87,3.06,3.06,0,0,1,.14-1,1.1,1.1,0,0,1-.72-.15.4.4,0,0,0-.07.58A4.48,4.48,0,0,1,166.09,346.86Zm-.43,3.45a1.55,1.55,0,0,0,.72-.5.62.62,0,0,0,0-.79.46.46,0,0,0-.51.43A6.34,6.34,0,0,1,165.66,350.31Zm.86-4.74a1.23,1.23,0,0,0,.14-.5c0-.15.1-.26.29-.36a.47.47,0,0,1-.43-.22c-.1-.14-.24-.16-.43-.07C166,345,166.14,345.38,166.52,345.57Zm-.29,81.19c0-.28.1-.33.29-.14S166.61,426.86,166.23,426.76Zm.29-83.63q.28,0,.36-.15t.21.15c.1.29,0,.43-.28.43s-.39.14-.29.43c.67.19,1,0,1-.65a4.46,4.46,0,0,1,.29-1.65.64.64,0,0,1-.36-.43.35.35,0,0,0-.36-.29c-.48.39-.62.72-.43,1S166.81,342.65,166.52,343.13Zm0,81.77c0-.29.09-.34.29-.15S166.9,425,166.52,424.9Zm.14,2.15h.43v.43c-.09-.09-.14,0-.14.15h-.43v-.43C166.61,427.29,166.66,427.24,166.66,427.05Zm.29-79.61h.29V347H167Zm0,76.74c.09-.38.14-.38.14,0S167,424.56,167,424.18Zm.14-82.49c.39.19.43.43.15.72Q167.09,342.41,167.09,341.69Zm.29,84.64a.32.32,0,0,1-.29.58c0-.19,0-.29.15-.29S167.38,426.53,167.38,426.33Zm-.14-81.05c.38.2.48.2.28,0S167.24,345.09,167.24,345.28Zm.14,78.47h.43v.43h-.43Zm.72-.15c-.19.1-.29.1-.29,0s-.09-.14-.29-.14l.29-.29C168,423.17,168.1,423.31,168.1,423.6Zm.14-83.92c-.09-.38-.07-.65.08-.79a1.65,1.65,0,0,0,.35-.65c-.38,0-.62,0-.71-.14a1,1,0,0,0-.22.86A.8.8,0,0,0,168.24,339.68Zm-.43,81.91q.15.57.15,0T167.81,421.59Zm.29-78.46a1.41,1.41,0,0,1,.43-.79c.29-.34.19-.55-.29-.65a.78.78,0,0,1-.14.79A.44.44,0,0,0,168.1,343.13Zm.86-9.49a4.23,4.23,0,0,0-.14,2.45c-.19.19-.31.24-.36.14s-.17-.14-.36-.14a1.76,1.76,0,0,1,.29,1,1,1,0,0,0,.43.86,4.56,4.56,0,0,1,.29-2.44,1.92,1.92,0,0,0-.15-1.87c0-.38-.09-.5-.29-.36S168.58,333.55,169,333.64ZM168.39,421a.75.75,0,0,0,.64-.29c.15-.19.08-.34-.21-.43a.33.33,0,0,1-.22.36A.34.34,0,0,0,168.39,421Zm.43-88.1h.29c0-.19,0-.28.14-.28s.09-.1,0-.29h-.43Zm1.72,87.95a2.62,2.62,0,0,1-1.43,1.58,1.44,1.44,0,0,1,.57-1C170,421.26,170.26,421.07,170.54,420.87Zm-1.29-.86c.19.29.29.26.29-.07S169.44,419.63,169.25,420Zm.72-.29c.19.29.29.29.29,0S170.16,419.43,170,419.72Zm2.73-1.43c.48.28.43.57-.15.86a1.67,1.67,0,0,0-1,1,.82.82,0,0,1,.29-1.07C172.22,418.74,172.51,418.48,172.7,418.29Zm.43-.29c.09-.38.14-.41.14-.07S173.22,418.29,173.13,418Z"/><path class="b2939a9f-a233-458d-b87b-ad0d68491b3f" d="M179,439.7c-.1-.19-.19-.27-.29-.22a.24.24,0,0,0-.14.22c-.19-.1-.29-.1-.29,0a.13.13,0,0,1-.14.14c0,.19.09.24.29.14s.23-.19.14-.28H179a3,3,0,0,1-1.51,1,3.07,3.07,0,0,0-1.51,1,4.61,4.61,0,0,0,1.87-.86,6.55,6.55,0,0,1,2-1,10.93,10.93,0,0,1-4.6,3,8.48,8.48,0,0,1-5.46.43c-.67-.67-1.36-1.32-2.08-1.94s-1.46-1.22-2.23-1.8a17.06,17.06,0,0,1-1.15-2.94,8.47,8.47,0,0,1-.28-3.09,27.81,27.81,0,0,1,2.15-8.55,33.08,33.08,0,0,1,4.82-8.19,22.83,22.83,0,0,1,6.82-5.82,12.25,12.25,0,0,1,8.19-1.44,15.5,15.5,0,0,1,1.73,1,3.75,3.75,0,0,1,1.29,1.43,4.41,4.41,0,0,1-.43,3.09,2.38,2.38,0,0,0,0,2.52.85.85,0,0,0-.58.57,1.66,1.66,0,0,1-1.43-.57,7.88,7.88,0,0,1-.79-1.3c-.24-.48-.46-.95-.65-1.43a2.58,2.58,0,0,0-.86-1.15q-2.73,2-5.46,4.31a31.52,31.52,0,0,0-4.89,5.17,25.31,25.31,0,0,0-3.45,6.32,21.61,21.61,0,0,0-1.29,7.62,2.75,2.75,0,0,0,1.29,1.29,17.55,17.55,0,0,0,5.82-2,39.05,39.05,0,0,0,4.74-3.16q2.24-1.73,4.24-3.52a36.44,36.44,0,0,1,4.46-3.38,2.62,2.62,0,0,1,0,2.09,10.46,10.46,0,0,1-1.22,2.15,22.17,22.17,0,0,1-1.66,2,8.48,8.48,0,0,0-1.29,1.8c-.19-.09-.72.17-1.58.79s-1.25,1.27-1.15,1.94a.74.74,0,0,0-.93.07,7.58,7.58,0,0,0-.79.94,9.6,9.6,0,0,1-.94,1.07A1.64,1.64,0,0,1,179,439.7Zm-7.18,3h.43v-.28h-.43Zm2-.14c.29.29.4.29.36,0S174,442.28,173.85,442.57Zm.86.14c.09.39.14.41.14.08S174.8,442.43,174.71,442.71Zm5.6-4.31c-.28,0-.52.2-.71.58.28,0,.52-.19.71-.58.48.1.63.05.44-.14S180.41,438.12,180.31,438.4Zm1.59,0a5.07,5.07,0,0,1-.65.79,2.1,2.1,0,0,1-1.08.51A3.43,3.43,0,0,1,181.9,438.4Zm.79-.5c-.05.34-.13.36-.22.07C182.66,437.59,182.73,437.57,182.69,437.9Zm.93-3.23a2.68,2.68,0,0,1,.57-.22c.2,0,.29-.21.29-.5A2.31,2.31,0,0,0,183.62,434.67Zm1.58-.86c0-.2.09-.29.29-.29s.24-.1.14-.29a.37.37,0,0,0-.5.14C185,433.57,185,433.71,185.2,433.81Zm-.14,1.14c.09-.28.14-.26.14.08S185.15,435.34,185.06,435Zm1.43-2.87v.29c.19.19.34.14.43-.15s.05-.38-.14-.28A.44.44,0,0,1,186.49,432.08Zm.87-.29c.09-.19.16-.28.21-.28s.12-.1.22-.29a.37.37,0,0,0-.51.14C187.14,431.56,187.16,431.7,187.36,431.79Z"/><path class="b2939a9f-a233-458d-b87b-ad0d68491b3f" d="M214.23,425.18a91.8,91.8,0,0,0,11.13-3A87.69,87.69,0,0,0,235.64,418a2.06,2.06,0,0,0,.93.07.85.85,0,0,1,.79.22,1.4,1.4,0,0,0-.07,1.14,9.68,9.68,0,0,0,.5.87c-1,.57-2.06,1.17-3,1.79a22.68,22.68,0,0,1-3,1.66.51.51,0,0,1-.07-.44.94.94,0,0,0-.08-.57c-.38.67-.71.67-1,0a.67.67,0,0,0-.36.43,1.38,1.38,0,0,1-.36.58.13.13,0,0,0,.14.14c.1,0,.15.05.15.14.29.2.43.2.43,0v-.57c.67.38.72.67.14.86s-.91.48-1,.86c-.29,0-.43-.09-.43-.28s-.15-.24-.44-.15c-.48.1-.62.34-.43.72s.19.62,0,.72-.41-.05-.36-.43.12-.58.22-.58a2.14,2.14,0,0,0-1,.72,2.14,2.14,0,0,1-.86.72c-.29.1-.43.05-.43-.14a.26.26,0,0,0-.29-.29c-.19,0-.28.29-.28.86q-.44.15-.36-.21a.43.43,0,0,0-.22-.51.83.83,0,0,0-.57.29c-.2.19-.39.14-.58-.14-.29.19-.29.33,0,.43s.38.24.29.43c-.39-.19-.67-.22-.86-.07s-.53.07-1-.22c-.1.39.05.53.43.43s.53,0,.43.43a2,2,0,0,0-.64.08.65.65,0,0,1-.51-.08v-.71a8.09,8.09,0,0,1-.86.14h-.72a1.87,1.87,0,0,1-.21.5q-.08.07-.51-.36c-.19.2-.16.34.08.43s.26.34.07.72a10.43,10.43,0,0,1-2.37.43,18.38,18.38,0,0,0-2.88.51,9.39,9.39,0,0,0-2.44,1,2.12,2.12,0,0,0-1.08,1.94,37.1,37.1,0,0,0-2.37,3.59,29.25,29.25,0,0,1-2.37,3.52,11.09,11.09,0,0,1-3.09,2.74,8.46,8.46,0,0,1-4.38,1.07,7.37,7.37,0,0,1-5.25-3.59,13,13,0,0,1-1.72-6.32,17.9,17.9,0,0,1,1.22-6.83,12.76,12.76,0,0,1,3.45-5.24,6.08,6.08,0,0,1,.07-1,1.13,1.13,0,0,0-.22-.86,8.12,8.12,0,0,1,2.66-5.68A8.73,8.73,0,0,1,204.1,412a12.12,12.12,0,0,1,5.82,1.22,12.27,12.27,0,0,1,4.59,3.67A8.61,8.61,0,0,1,214.23,425.18Zm-15.95,1.87c-.29.77-.65,1.63-1.08,2.59a22.55,22.55,0,0,0-1.08,2.94,13.72,13.72,0,0,0-.5,3.16,7.92,7.92,0,0,0,.64,3.38,8.78,8.78,0,0,0,5.75-3.23,62.27,62.27,0,0,0,3.59-5.39,10,10,0,0,1-4.09-1.29C200.41,428.54,199.33,427.82,198.28,427.05Zm10.05-11.93a14.07,14.07,0,0,1-2.22,1.3,9.69,9.69,0,0,0-2.16,1.36,5.56,5.56,0,0,0-1.44,1.87,3.9,3.9,0,0,0-.07,2.66,7.87,7.87,0,0,0-1.29,1.29,2.51,2.51,0,0,0-.58,1.58,11.41,11.41,0,0,0,3.6,1,13.24,13.24,0,0,0,3.88,0c.28-.86.64-1.8,1.08-2.8a12.37,12.37,0,0,0,.86-3,8.39,8.39,0,0,0-.07-2.88A4.09,4.09,0,0,0,208.33,415.12Zm6.33,13.8c-.1,0-.15-.05-.15-.14s-.09-.1-.28,0-.15.31.14.35S214.75,429.11,214.66,428.92Zm1.15-.29q.28.44.21,0T215.81,428.63Zm1.15-.29a1.5,1.5,0,0,1-.51-.14c-.24-.09-.36-.05-.36.14Q216.81,429.08,217,428.34Zm.14-1.43a.7.7,0,0,1-.36-.36c-.05-.15-.21-.17-.5-.07-.19.38-.1.62.29.72S217.1,427.2,217.1,426.91Zm0,1.43q.57.3.36,0T217.1,428.34Zm1.08.15c0-.1,0-.15-.22-.15C218.06,428.54,218.13,428.58,218.18,428.49Zm.5-2c-.48-.1-.57,0-.29.28s.44.24.44-.14h.57c0-.48-.24-.62-.72-.43Zm-.14,1.58c.29.28.4.28.36,0S218.73,427.77,218.54,428.06Zm.14-1.58c.1,0,.15,0,.15.14S218.68,426.57,218.68,426.48Zm.86-.72c0,.67.39.93,1.15.79a3.06,3.06,0,0,0,1.44-.51,1.17,1.17,0,0,0-1.29-.28A1.55,1.55,0,0,1,219.54,425.76Zm3.6-.43a5.71,5.71,0,0,1,2.15-.15,3.58,3.58,0,0,0,2.16-.43,7.81,7.81,0,0,0-1.44-.14,3.89,3.89,0,0,1-1.44-.29c.1.48-.09.67-.57.58S223.23,425,223.14,425.33Zm4.16-1h.58c0-.29-.19-.43-.58-.43Zm1,.14c.48,0,.72-.14.72-.43-.2,0-.29,0-.29-.14s-.1-.14-.29-.14a.57.57,0,0,1-.07.36S228.31,424.27,228.31,424.46Zm1-.57c-.1-.19-.08-.34.07-.43a.49.49,0,0,0,.21-.43q-.72-.15-.72.36C228.88,423.72,229,423.89,229.32,423.89Zm2.58-1.15c.38.1.51.05.36-.14S232,422.45,231.9,422.74Zm2-1c.1.29.15.27.15-.07S234,421.35,233.91,421.73Z"/><path class="b2939a9f-a233-458d-b87b-ad0d68491b3f" d="M240.24,415.55a.13.13,0,0,0-.15.15.13.13,0,0,0,.15-.15,4.22,4.22,0,0,0,1.65-1.22c.43-.52.88-1,1.36-1.51a5.68,5.68,0,0,1,1.73-1.15,5.39,5.39,0,0,1,2.58-.28,7.85,7.85,0,0,1,1.94,2.08,10.76,10.76,0,0,0,1.94,2.23,13.23,13.23,0,0,1-.21,4.6c-.34,1.43-.74,2.9-1.22,4.38s-1,3-1.58,4.6a27.57,27.57,0,0,0-1.3,5,27.44,27.44,0,0,0,5.46-3.74q2.44-2.16,4.82-4.38c1.58-1.49,3.23-2.92,5-4.31a22,22,0,0,1,5.89-3.38,14.89,14.89,0,0,0,2.58,2.3,6.12,6.12,0,0,1,2.16,2.73c-.1,0-.14,0-.14-.15s-.05-.14-.15-.14a8.08,8.08,0,0,1,.15,3.38c-.2,1.1-.44,2.15-.72,3.16a21.47,21.47,0,0,0-.65,3.09,7.88,7.88,0,0,0,.22,3.16,8.54,8.54,0,0,0,5.53.5,29.84,29.84,0,0,0,6-1.94,46.53,46.53,0,0,0,5.54-2.87,44,44,0,0,0,3.88-2.59,37.38,37.38,0,0,0,7.9-5.53,88,88,0,0,1,7.76-6.25,6.36,6.36,0,0,1-1.51,4,4.62,4.62,0,0,1-3.09,2.08,1,1,0,0,1-.21,1,2.52,2.52,0,0,0-.65.86,2.38,2.38,0,0,0,1.51-.86q.36-.57,1.8-.72a1.87,1.87,0,0,1-.87,1c-.38.19-.33.53.15,1A62.38,62.38,0,0,1,293.91,435,88,88,0,0,1,280,442a23.79,23.79,0,0,1-4.81.07,15.73,15.73,0,0,1-4.67-1.37,3.81,3.81,0,0,0-.65-.93l-.79-.79a22.77,22.77,0,0,1-2-12.79,25.11,25.11,0,0,1-4.53,3.52,19,19,0,0,0-4.67,4.1l-2.66,2.94a19.32,19.32,0,0,1-2.94,2.66,10.41,10.41,0,0,1-3.38,1.65,6.13,6.13,0,0,1-3.81-.21,5.82,5.82,0,0,1-1.22-1.94,5.87,5.87,0,0,0-1.22-1.94,22.14,22.14,0,0,1,.57-9.56c.87-2.73,1.63-5.53,2.3-8.41a45.3,45.3,0,0,0-9,12.43Q233,438.56,229.75,446a1.37,1.37,0,0,0-1,.29c-.19.19-.53.19-1,0q-.42-.72-.93-1.44a2.9,2.9,0,0,1-.36-2,5,5,0,0,1-.58-4.1,45,45,0,0,1,1.3-4.38q2-5,4.09-10.49a66.92,66.92,0,0,0,3.09-10.35,3.2,3.2,0,0,1-.5-2.3,3.5,3.5,0,0,1,.93-1.86c1.92,0,3.19.64,3.81,1.94A33,33,0,0,1,240.24,415.55Zm3.88,14.95c0-.19.07-.29.21-.29s.17-.09.07-.29-.33,0-.43.22S243.92,430.5,244.12,430.5Zm.86-2.16c0-.19,0-.3.14-.35s0-.12-.14-.22Q244.68,428.21,245,428.34Zm.29-2.3c.19.29.28.27.28-.07S245.46,425.66,245.27,426Zm14.51,1,.29.29c0-.48-.1-.67-.29-.58Zm1-.43a4.46,4.46,0,0,0,1.14-1.58c-.48,0-.76.17-.86.5S260.88,426.24,260.79,426.62Zm1.43-1.44a1.32,1.32,0,0,0,1.44-.86,1.33,1.33,0,0,1,1.44-.86c0-.48-.2-.72-.58-.72a3.15,3.15,0,0,1-1.22,1.15A2.22,2.22,0,0,0,262.22,425.18Zm3.16-2.44c.19-.19.19-.33,0-.43a.22.22,0,0,1-.14.21C265.14,422.57,265.19,422.65,265.38,422.74Zm.29-.58c.29.29.67.29,1.15,0,0-.57-.24-.86-.72-.86.1.29,0,.41-.29.36S265.48,421.78,265.67,422.16Zm27.59,9.06h.29v-.29h-.29Zm3.59-4.46c-.19.1-.24.15-.14.15s.14-.05.14-.15c.2-.09.24-.14.15-.14S296.85,426.67,296.85,426.76Zm1,.58a1.18,1.18,0,0,0-.29-.86,3.12,3.12,0,0,1-.07.64C297.45,427.36,297.57,427.44,297.86,427.34Zm4.89-1.58c-.29.19-.51.21-.65.07a.89.89,0,0,0-.65-.22,4.66,4.66,0,0,1-2.37,1.44c-1,.29-1.46.86-1.36,1.73a21.57,21.57,0,0,0,2.08-1.66c.81-.72,1.51-.88,2.08-.5a4.11,4.11,0,0,1-.71-.07q-.44-.07-.15.36c.48,0,.77-.1.86-.29a1.38,1.38,0,0,1,.58-.36c.19-.05.29-.22.29-.5H303v-.43C302.84,425.33,302.75,425.47,302.75,425.76Zm2.3-4c-.77.48-1.54.92-2.3,1.3A3.61,3.61,0,0,0,301,424.9q-.28,0-.21-.15a.25.25,0,0,0-.08-.29,3.74,3.74,0,0,0-1.58.87,16.84,16.84,0,0,1-1.29,1.15c.29.28.55.36.79.21s.5-.31.79-.5.55-.36.79-.5a.91.91,0,0,1,.79-.08v-.71c.19.19.34.19.43,0s.29-.2.58,0c-.1-.48,0-.75.29-.79a1.07,1.07,0,0,0,.71-.51c0,.39.1.58.29.58-.1-.77.12-1.25.65-1.44a1.77,1.77,0,0,0,1.08-1,.87.87,0,0,1,.64-.28c.24,0,.31-.15.22-.43a3.71,3.71,0,0,1-.58.21C305.14,421.28,305.05,421.45,305.05,421.73Zm1.72,1a.39.39,0,0,1,.07.57.37.37,0,0,1-.5.15q-.15-.43.21-.36C306.79,423.15,306.86,423,306.77,422.74Z"/><path class="b2939a9f-a233-458d-b87b-ad0d68491b3f" d="M325,412.39c-.19,1.25-.34,2.28-.43,3.09a3.24,3.24,0,0,1-1.87,2.23,11,11,0,0,1-4,5.17,56.77,56.77,0,0,0-5.1,4,37.43,37.43,0,0,0-4.32,1.22,4.5,4.5,0,0,1-4.31-.65,8.56,8.56,0,0,0-1.5,3.52c-.24,1.3-.56,2.76-.94,4.39a7.59,7.59,0,0,0,4.82,1.5,20.87,20.87,0,0,0,5.38-.86,43.43,43.43,0,0,0,5.39-1.94,52.74,52.74,0,0,1,5-1.87c1.63-1,3.33-1.89,5.1-2.8s3.62-1.74,5.53-2.51a1.72,1.72,0,0,1,.87-.65,2.38,2.38,0,0,0,.86-.5.88.88,0,0,1-.22.86,3.46,3.46,0,0,1-1,.79,14.32,14.32,0,0,1-1.3.65,3.35,3.35,0,0,0-1.07.72c0,.09.19.14.57.14a29.54,29.54,0,0,1-6.39,4.45,63.54,63.54,0,0,1-7.4,3.17c.47,0,1.17,0,2.08-.08a5.2,5.2,0,0,0,2.37-.64,1,1,0,0,1-.5.72,3.92,3.92,0,0,0-.79.43c0,.19.14.24.43.14s.33,0,.14.29a7.82,7.82,0,0,0-2.37,1.29c-.72.58-1.32.72-1.8.43-.38.2-.5.36-.35.5s.11.32-.08.51a51.33,51.33,0,0,1-5.31,2.08,20.32,20.32,0,0,1-6.18.79,8.42,8.42,0,0,1-4.1-2,8.91,8.91,0,0,1-2.23-3.38,13.82,13.82,0,0,1-.79-4.31,31.5,31.5,0,0,1,.22-4.67,46.72,46.72,0,0,1,2.51-6,38.55,38.55,0,0,1,3.53-5.75,34.21,34.21,0,0,1,4.52-5,22.73,22.73,0,0,1,5.53-3.74,4.49,4.49,0,0,1,2.3-.5c.77.05,1.53.07,2.3.07a2.35,2.35,0,0,1,1.3.58,2.16,2.16,0,0,0,1.15.57,4.41,4.41,0,0,0,1,2.08C324.06,411.41,324.54,411.91,325,412.39ZM313.81,415c.29.1.55,0,.79-.36s.45-.36.65-.07a42.77,42.77,0,0,0-3.45,2.94,30.09,30.09,0,0,0-3,3.38,54.3,54.3,0,0,0,6.68-4.09,18.77,18.77,0,0,0,5.1-5.54l-3.73,1.44A6.59,6.59,0,0,0,313.81,415Zm-2,22.85a.92.92,0,0,0,.64.07c.24,0,.31.22.22.79.38-.19.69-.33.93-.43s.55.05.94.43a.4.4,0,0,0,.07-.57c-.14-.19-.07-.29.22-.29a5,5,0,0,0,1.79-.43,14,14,0,0,0,1.8-.86,6.1,6.1,0,0,1-3.45.71A5.55,5.55,0,0,0,311.8,437.83Zm10.92-1.15c.19-.29.29-.26.29.07S322.91,437.06,322.72,436.68Zm13.36-11.21c0,.19-.05.27-.14.22S335.89,425.57,336.08,425.47Zm0,0c0-.09.05-.12.15-.07S336.27,425.47,336.08,425.47Z"/><path class="b2939a9f-a233-458d-b87b-ad0d68491b3f" d="M422.59,412.82c-1.15.29-1.92.29-2.3,0v1.44q1.15-.13,2.52-.21c.91-.05,1.79-.08,2.66-.08a19,19,0,0,0,2.44-.14,10.23,10.23,0,0,0,2-.43,6.88,6.88,0,0,0-3.45-.5,15.14,15.14,0,0,1-3.88-.08,46.88,46.88,0,0,1,6.9-.36,9.5,9.5,0,0,1,5.89,1.8,2.73,2.73,0,0,1-.14,2c-.29.48-.58,1-.86,1.44a53.32,53.32,0,0,1-8.27.22,17.39,17.39,0,0,0-6.54.64c.2.48.2.82,0,1s-.19.53,0,1a1.8,1.8,0,0,0-.43,1.3,1.75,1.75,0,0,1-.43,1.29q-.72,7.62-1.65,14.08c-.62,4.32-1.27,9.1-1.94,14.37-.29,1.92-.58,3.64-.86,5.18a24.62,24.62,0,0,0-.43,4.6,12.1,12.1,0,0,0-.51,3.88,8.5,8.5,0,0,1-.64,3.59,13.26,13.26,0,0,0,.14,2.08,2.69,2.69,0,0,1-.57,1.94,7.31,7.31,0,0,1-.44,4.31,33.45,33.45,0,0,0-1.43,4,4.69,4.69,0,0,1-2.16.86,10.43,10.43,0,0,1-2.37,0,12.75,12.75,0,0,1-2.51-.58c-.87-.28-1.63-.52-2.3-.71a8.08,8.08,0,0,1,.57-6.9c.19.19.34.24.43.14a.62.62,0,0,1,.43-.14,3.33,3.33,0,0,0,.72,1.15l.86.86a7,7,0,0,0,.87-3.45,7.13,7.13,0,0,1,.72-3.3q.57-6.46,1.43-12.51c.58-4,1.17-8,1.8-12s1.24-8,1.87-12.15,1.27-8.48,1.94-13.08a4.84,4.84,0,0,0-3.09-.14l-2.81.72a50,50,0,0,0-9.55,1.44q-4.53,1.14-10,2-1,5.46-1.65,11.71a111.09,111.09,0,0,0-.65,11.28,3.73,3.73,0,0,1-.43-2.73,9,9,0,0,0,.14-2.73c-.19.77-.43,1.61-.71,2.51a4.08,4.08,0,0,0,.14,2.81,1.91,1.91,0,0,0-.65,1.94,2.8,2.8,0,0,1-.21,1.94,1.52,1.52,0,0,1-.22-1.37,3.25,3.25,0,0,0-.07-1.79c-.29,0-.41.21-.36.64s0,.7-.22.79a13.22,13.22,0,0,1,.36,5.32,23.2,23.2,0,0,0-.07,5.46,4.8,4.8,0,0,1-1.15.29.56.56,0,0,0-.43-.15,19.58,19.58,0,0,1-2.3-9.05q-.13-5.18.15-9.91.13-3.74.5-7.55t.79-7.26A62.54,62.54,0,0,0,369.92,429a83.62,83.62,0,0,0-9,4.53,2.43,2.43,0,0,1-.64-3.38,6.2,6.2,0,0,1,2.51-2.66v.29a.26.26,0,0,0-.29.29c0,.09.05.12.15.07s.14-.17.14-.36a.81.81,0,0,0,.58-.29,1.2,1.2,0,0,0,.79-.5q.21-.36.93-.36a3.08,3.08,0,0,1-1.36,1,2.3,2.3,0,0,0-1.23,1,9.89,9.89,0,0,0,1.87-1.08,10.67,10.67,0,0,1,1.87-1.07c-.09-.39-.29-.44-.57-.15s-.39.2-.29-.29a2,2,0,0,0,1.22-.35,5.8,5.8,0,0,1,1.22-.65c.29.29.22.45-.21.5s-.7.17-.79.36-.17.14-.22.14-.12.1-.22.29.1.22.29.07a.37.37,0,0,0,.15-.5q3.44-1,6.89-2.37a42.12,42.12,0,0,1,6.9-2.08c-.19-.19-.29-.34-.29-.43a.23.23,0,0,1,.15-.22c.09-.05.14-.09.14-.14s-.14-.12-.43-.22c0-.19.09-.26.29-.21a.36.36,0,0,0,.43-.22,39.2,39.2,0,0,1,.72-5.82,42.93,42.93,0,0,0,.71-6.54.34.34,0,0,1,.22.07.29.29,0,0,0,.22.07,17.46,17.46,0,0,1,.86-6.1,18.75,18.75,0,0,0,.86-6.4,5.15,5.15,0,0,0,.72-2.51,5.15,5.15,0,0,1,.72-2.52,15.44,15.44,0,0,1,.07-1.58c.05-.48.12-.95.22-1.44q1.58-5.6,2.65-11.56a39.08,39.08,0,0,1,3.38-10.56,2.1,2.1,0,0,0,1.08-.51L394,364a3.75,3.75,0,0,1,2.58.58,6.27,6.27,0,0,0,2.16,1,1.54,1.54,0,0,1,.21,1.07,1.58,1.58,0,0,0,.22,1.08c-.39,1.06-.86,2.18-1.44,3.38a6.47,6.47,0,0,0-.57,3.81q-1.73,5.46-3,10.63t-2.73,10.78a3,3,0,0,1-.22,2.23,4.38,4.38,0,0,0-.21,2.8c-.77,3.07-1.39,6-1.87,8.84s-1,5.91-1.44,9.26q2.88-.42,6.18-1.14t6.68-1.37c2.25-.43,4.46-.81,6.61-1.15a39.79,39.79,0,0,1,6-.5,3.12,3.12,0,0,1,.29-1.08,2.82,2.82,0,0,0,.28-.79,1.3,1.3,0,0,0-.07-.94,1,1,0,0,1-.07-.79,43.7,43.7,0,0,1,.86-4.31c.38-1.53.67-2.82.86-3.88a.42.42,0,0,0-.14-.28c-.1-.1-.19-.05-.29.14.1-.67.19-1.41.29-2.23a10.23,10.23,0,0,1,.43-2.08c.29,0,.34.19.14.57.1-.57.17-1,.22-1.29a1.13,1.13,0,0,0-.22-.86,1.85,1.85,0,0,0,.58-2.23,4.78,4.78,0,0,1,.29-3.23c.48-.1.64,0,.5.21s-.12.41.07.51a.49.49,0,0,0,.15-.58,1.21,1.21,0,0,1-.15-.57c.19,0,.24,0,.15-.08s-.15,0-.15.08c-.48.19-.6,0-.36-.65s.46-.84.65-.65c.19-.19.16-.38-.07-.57A.88.88,0,0,1,417,389a.68.68,0,0,0,.36-.5c0-.24.21-.36.5-.36-.19-.1-.29-.22-.29-.36a.8.8,0,0,0-.28-.51,3.34,3.34,0,0,0,1.14-2.65,6.81,6.81,0,0,1,.72-3.09,4.85,4.85,0,0,1-.43-2.88,1,1,0,0,1,.72.29v-2.23a2.08,2.08,0,0,1,1.15-1.79.67.67,0,0,1,.07-.87q.36-.42-.36-.57a.51.51,0,0,1,.58-.58,3.19,3.19,0,0,1-.29-2.29c.19-.77.38-1.54.58-2.3.19-.19.33-.22.43-.08s.23.13.43-.07a4.42,4.42,0,0,1-.22-1.94,2.89,2.89,0,0,1,.79-1.94,1.58,1.58,0,0,1,0-2,2.15,2.15,0,0,0,.43-2,2.61,2.61,0,0,1,.72-1.15,2.72,2.72,0,0,1,.15-2.37,7,7,0,0,1,1.29-1.37,6.25,6.25,0,0,1,.5-2.73,3.21,3.21,0,0,0,.07-2.44,19.61,19.61,0,0,0,1.8-4.17c.43-1.43,1-3,1.65-4.74a1.66,1.66,0,0,0,.94-.36l.93-.65a1.75,1.75,0,0,1,.58.87c.19-.58.71-.89,1.58-.94s1.34.12,1.43.51c.67.19,1.1.09,1.3-.29a12.31,12.31,0,0,1,1.15,2.37,5.51,5.51,0,0,1,.14,2.8,1,1,0,0,0-.86-.14,1.38,1.38,0,0,0-.51.43,5.1,5.1,0,0,1-.5.57q-.28.3-.72,0a55.17,55.17,0,0,1-1.94,5.9,30.81,30.81,0,0,0-1.65,5.89.62.62,0,0,1-.14.43,1.39,1.39,0,0,0-.29.43l-.86,3.95a17.94,17.94,0,0,1-1.15,3.52c-.39,2-.79,4.17-1.22,6.47a43,43,0,0,1-1.66,6.32q-1.14,8.06-2.65,16.53t-2.66,16.67a.88.88,0,0,0,1.15.28C422.06,412.63,422.4,412.63,422.59,412.82Zm-60.5,18c0-.38,0-.38-.14,0C362.05,431.17,362.09,431.17,362.09,430.79Zm1.3-3.31h-.58q.29-.57.72-.57a.57.57,0,0,1-.07.36A.28.28,0,0,0,363.39,427.48Zm.71,1.73c0-.38-.09-.38-.28,0C364,429.59,364.1,429.59,364.1,429.21Zm-.14-.87a3.43,3.43,0,0,1,1.22-.28c.34,0,.41-.24.22-.72a1.73,1.73,0,0,1-.72.43A1.42,1.42,0,0,0,364,428.34Zm.29,2.74a.29.29,0,0,0,.43-.15c.1-.19.05-.29-.14-.29a.23.23,0,0,1-.15.22A.24.24,0,0,0,364.25,431.08Zm2.3-2.45a2.23,2.23,0,0,1-1.15.86,1.76,1.76,0,0,0-1,.87A2.62,2.62,0,0,0,366.55,428.63Zm-2,.72a.79.79,0,0,0,.57-.29A.83.83,0,0,0,364.54,429.35Zm.86-3.45V426c-.19.29-.31.32-.36.08S365.11,425.81,365.4,425.9Zm0,0a.13.13,0,0,1,.14-.14C365.64,425.76,365.59,425.81,365.4,425.9Zm.14,4.31c.19.39.29.39.29,0S365.73,429.83,365.54,430.21Zm.15-1.72c-.2,0-.2.09,0,.29s.19.09,0-.29a1.52,1.52,0,0,0,1.43-.72,2.27,2.27,0,0,1-.79.36A1.25,1.25,0,0,0,365.69,428.49Zm.57-1.29c-.48-.2-.62-.2-.43,0s.34.19.43,0,.24-.17.14-.22S366.26,427,366.26,427.2ZM367,425c-.19.29-.38.43-.58.43A.57.57,0,0,1,367,425Zm2.59,1,2.58-1.29c0,.29.1.43.29.43a8.46,8.46,0,0,1,3.81-1.43,9.58,9.58,0,0,0,4.09-1.59,51.47,51.47,0,0,0-13.5,4.6A6,6,0,0,0,369.57,426Zm-2.45-1c0-.09.05-.14.15-.14h.14C367.41,425,367.32,425,367.12,425Zm.29,3.88c.29,0,.46-.09.5-.29s.27-.24.65-.14c-.19-.19-.19-.36,0-.5s.19-.27,0-.36c0,.48-.19.69-.58.64S367.41,428.44,367.41,428.92Zm.43-1.15h.29v-.29h-.29Zm.29-3.16c.29-.19.31-.17.07.07S367.94,424.9,368.13,424.61Zm0,.43c0-.09.14-.14.43-.14C368.56,425,368.42,425,368.13,425Zm.57,2.44c0-.09.1-.16.29-.21s.14-.17-.14-.36a.35.35,0,0,1-.29.36C368.37,427.32,368.42,427.39,368.7,427.48Zm2-1c.38.09.5,0,.35-.15s-.26-.14-.35.15a.61.61,0,0,1-.58.21.59.59,0,0,0-.57.22c.19,0,.28.09.28.29a.87.87,0,0,1-.64.28c-.24,0-.31.2-.22.58-.09-.1-.14-.05-.14.14-.19.1-.24.14-.15.14s.15,0,.15-.14l.14-.14c.19-.19.29-.31.29-.36s.14,0,.43.07a.9.9,0,0,0,.43-.57c.1-.29.24-.29.43,0-.09,0-.14.09-.14.28q-.29.15-.15.15a.13.13,0,0,0,.15-.15,1.74,1.74,0,0,0,1.15-.36,8.32,8.32,0,0,1,.86-.64,5.72,5.72,0,0,1,1.65-.36c.63-.05.84-.46.65-1.22a1.06,1.06,0,0,0-.14.5c0,.14-.1.26-.29.36a.83.83,0,0,0-1.37,0,1,1,0,0,1-1.36.28,3.91,3.91,0,0,0-.22.51,1.07,1.07,0,0,1-.21.36.41.41,0,0,0-.29-.15C370.76,426.76,370.72,426.67,370.72,426.48ZM369.57,424c0,.2-.08.32-.22.36a.34.34,0,0,0-.22.36c-.19-.09-.21-.26-.07-.5S369.37,423.94,369.57,424Zm.14.29c0,.19,0,.27-.14.22S369.52,424.42,369.71,424.32Zm0,0c0-.09.05-.12.14-.07S369.9,424.32,369.71,424.32Zm.72-.57a.82.82,0,0,1-.58.28A.85.85,0,0,1,370.43,423.75Zm.29.28c0,.29-.1.34-.29.15S370.33,423.94,370.72,424Zm-.15,3.17c.19,0,.29,0,.29.14h-.14C370.62,427.34,370.57,427.29,370.57,427.2Zm.15-3.17c-.1-.38-.05-.48.14-.28S371,424,370.72,424Zm.71-.72c0,.29-.09.34-.28.15S371.05,423.22,371.43,423.31Zm0,0c0-.09.1-.14.29-.14C371.72,423.27,371.63,423.31,371.43,423.31Zm.15.44a.66.66,0,0,1,.72-.44C372.3,423.6,372.06,423.75,371.58,423.75Zm.14-.58a.13.13,0,0,1,.14-.14C372,423,371.91,423.08,371.72,423.17Zm.86-.29c0,.2-.09.2-.28,0S372.2,422.69,372.58,422.88Zm0,0q0-.28.15-.21C372.82,422.72,372.78,422.79,372.58,422.88Zm.58.15c0,.19-.19.28-.58.28A.85.85,0,0,1,373.16,423Zm.72-.43c.19.09.24.19.14.28a.46.46,0,0,0-.14.29c-.19-.09-.24-.17-.15-.21S373.88,422.79,373.88,422.6Zm1.72-.44c-.19.49-.62.63-1.29.44A3.5,3.5,0,0,1,375.6,422.16Zm0,2.74c-.38-.1-.57.19-.57.86.57,0,.76-.29.57-.86.29-.2.38-.15.29.14s-.05.43.14.43a8.08,8.08,0,0,0,2.59-1.29c.19.09.29.19.29.28s.09.15.28.15v-.43a.4.4,0,0,1,.58-.07.39.39,0,0,0,.57-.08v-.57a12.9,12.9,0,0,0-2.44.57C377,424.32,376.27,424.61,375.6,424.9Zm1.15-3.09c.1.05.14,0,.14-.08,0,.2,0,.27-.07.22s-.12,0-.21.07C376.61,421.83,376.66,421.76,376.75,421.81Zm-.14,3.09c0-.1.05-.15.14-.15h.14C376.89,424.85,376.8,424.9,376.61,424.9Zm1.43-3.45c0-.1.15-.15.44-.15C378.48,421.4,378.33,421.45,378,421.45Zm1.15,2.73c-.09,0-.14,0-.14-.07s.05-.08.14-.08Zm.15-3c.19-.38.29-.41.29-.07S379.53,421.45,379.34,421.16Zm2.58,3.74a113.73,113.73,0,0,0-1.5,14.15,77.19,77.19,0,0,0,.35,13.29,49.68,49.68,0,0,1-.14-6.46c.1-1.92.22-3.76.36-5.54s.31-3.54.5-5.31a53.51,53.51,0,0,0,.29-5.68,6.09,6.09,0,0,0,.65-.79,1,1,0,0,0-.08-1.22c0,.38-.14.53-.43.43.19-.48.41-1,.65-1.51a1.53,1.53,0,0,0-.07-1.51C382.5,424.85,382.31,424.9,381.92,424.9Zm-1.29,29c.19.1.29-.12.29-.64s-.1-.75-.29-.65Zm1-1.29c-.1.48-.1.5,0,.07S381.73,452.25,381.64,452.63Zm1-6.9c.1.1.15.17.15.22a.36.36,0,0,0,.14.21,1.56,1.56,0,0,1,.07-1.43q.36-.44-.36-.87c.1.48.12.7.07.65a3.48,3.48,0,0,0-.64-.36c.09.19,0,.38-.22.58s-.21.38.07.57c.19-.29.34-.38.43-.29a3.21,3.21,0,0,1-.07.65.41.41,0,0,0,.22.5C382.5,445.88,382.55,445.73,382.64,445.73Zm-.72,1.73c-.09-.39-.05-.6.15-.65s.28-.22.28-.5h-.57a1,1,0,0,1,0,.72C381.68,447.31,381.73,447.46,381.92,447.46Zm-.14,7.76c.09.38.14.38.14,0S381.87,454.83,381.78,455.22Zm.14-32.05c0,.29,0,.43.08.43s.07-.05.07-.14v-.29Q382.07,423,381.92,423.17Zm0,20.12c.19.38.29.41.29.07S382.11,443,381.92,443.29Zm.87-20.41c-.2-.09-.34-.09-.44,0s-.09.24,0,.43a.38.38,0,0,0,.44-.43c.19-.09.23-.16.14-.21S382.79,422.69,382.79,422.88Zm-.44-1.43a.58.58,0,0,0,.29.71c0-.28.12-.43.36-.43s.36-.14.36-.43A1.88,1.88,0,0,0,382.35,421.45Zm8-39.81c0,.38-.09.46-.28.22s-.29-.17-.29.21c-.29,1.63-.53,2.95-.72,3.95a16.63,16.63,0,0,1-1.29,3.67.51.51,0,0,1,.28.5c0,.24.1.36.29.36a7.17,7.17,0,0,0-1.51,3.95,14.08,14.08,0,0,1-1.08,4.38,9.18,9.18,0,0,1-.71,5,9,9,0,0,0-.72,5q-.44-.14-.36.36t-.36.36c0-.29,0-.43-.15-.43a39.65,39.65,0,0,1-.5,6c-.33,2.21-.55,4.12-.65,5.75a1.21,1.21,0,0,0,.58-.14,1.21,1.21,0,0,1,.57-.15q.87-4.59,1.44-9.7a59.22,59.22,0,0,1,2-10,15.32,15.32,0,0,1,.87-6,11.57,11.57,0,0,0,.71-5.32.81.81,0,0,1,.65,0c.24.1.31,0,.22-.28a4.35,4.35,0,0,1,.28-3.45,4.88,4.88,0,0,0,.44-3.45c.38,0,.57-.17.57-.5v-.94h-.43c-.19.2-.24.31-.14.36A.8.8,0,0,1,390.4,381.64Zm-8,60.64q.15.59.15,0T382.35,442.28Zm.58,1.44c0-.48-.1-.77-.29-.86a.48.48,0,0,0,.29.86Zm-.29,2c.1-.19.07-.31-.07-.36s-.12-.07.07-.07.29.07.29.22S382.83,445.73,382.64,445.73Zm-.14-4.6c.09.39.14.39.14,0S382.59,440.75,382.5,441.13Zm.72.72c-.29,0-.36-.14-.22-.43s.07-.38-.21-.29a.48.48,0,0,0-.08.65C382.86,442,383,442.05,383.22,441.85Zm0-2.15a.76.76,0,0,0,.14-.51c0-.23-.14-.36-.43-.36a.85.85,0,0,1,.07.58C383,439.6,383,439.7,383.22,439.7Zm0,11.64c.19,0,.24.12.14.36a.72.72,0,0,0,0,.64C382.88,452.06,382.83,451.72,383.22,451.34Zm.14-19.55c.1,0,.14,0,.14.08s.05.07.15.07h.14c.1-.29,0-.43-.14-.43S383.36,431.6,383.36,431.79Zm.43-.86c.1-.48.17-.93.22-1.36a.91.91,0,0,0-.36-.94,3.44,3.44,0,0,1-.22,1.37Q383.22,430.5,383.79,430.93Zm-.14-23.28c0,.29,0,.43.07.43s.07,0,.07-.14v-.29C383.79,407.56,383.74,407.56,383.65,407.65Zm.14,33.48c.19,0,.29,0,.29.08s.05.07.14.07c0-.38-.14-.58-.43-.58Zm.58-15.23c-.2-.29-.12-.55.21-.79s.27-.36-.21-.36a1.69,1.69,0,0,1-.15.65C384.13,425.64,384.17,425.81,384.37,425.9Zm0-14.51c.09-.29.14-.27.14.07S384.46,411.77,384.37,411.39Zm.57,28.45c-.48.1-.62.24-.43.43S384.85,440.32,384.94,439.84Zm-.29-37.65c.39,0,.58-.22.58-.65s-.19-.64-.58-.64a2.54,2.54,0,0,1,.22.64A.67.67,0,0,1,384.65,402.19Zm0,22.13c.2.38.29.41.29.07S384.85,424,384.65,424.32Zm.29-3.16c.1.29.15.26.15-.07S385,420.78,384.94,421.16Zm.86-1.44c-.19,0-.26-.05-.21-.14s0-.15-.22-.15-.19.22,0,.36S385.71,419.91,385.8,419.72Zm-.57-.57h.29v-.58h-.29Zm1.94-7.83c.24-.24.21-.27-.07-.08S386.93,411.56,387.17,411.32Zm-.07-5.54h.43v-.43h-.43Zm1.58,15.67c.09-.48,0-.58-.29-.29s-.19.38.29.29c.09.19.07.31-.07.36a.32.32,0,0,0-.22.35c.09,0,0-.14-.29-.43-.19.29-.33.32-.43.08s-.24-.27-.43-.08c.29.1.34.2.14.29a.28.28,0,0,0-.14.43.84.84,0,0,1,.58-.07.57.57,0,0,0,.57-.22c.67.1,1.05-.07,1.15-.5s.38-.45.86-.07c.29-.29.19-.57-.28-.86a1.5,1.5,0,0,1-.51.36.7.7,0,0,0-.36.36c-.09-.19-.19-.24-.28-.15A.43.43,0,0,1,388.68,421.45Zm1.72-1.87a9.76,9.76,0,0,1-1.65.21,1.79,1.79,0,0,0-1.51.79,15.39,15.39,0,0,0,3.95-.79,6.69,6.69,0,0,1,3.38-.36c0-.38.05-.57.14-.57.19.29.39.38.58.29a2.56,2.56,0,0,1,2.15-.58,3,3,0,0,0,2.3-.57q0,.57.72.57c0-.19-.07-.28-.21-.28s-.22-.1-.22-.29a1.79,1.79,0,0,0,1.73,0,1.27,1.27,0,0,1,1.43,0,.81.81,0,0,1,.72-.65.82.82,0,0,1,.86.36.72.72,0,0,1,.79-.57,1.32,1.32,0,0,1,.94.28c0-.28.09-.43.28-.43,1.06-.19,2.06-.4,3-.64a7.73,7.73,0,0,1,3.16-.08q0-.28.15-.36t0-.36c-4,.49-7.81,1.08-11.35,1.8s-7.29,1.32-11.21,1.8a.27.27,0,0,1-.08.21A.34.34,0,0,0,390.4,419.58Zm-1.72-1c.29-.19.31-.16.07.07S388.48,418.86,388.68,418.57Zm1.44-.28c.09-.29.14-.27.14.07S390.21,418.67,390.12,418.29Zm.28,1.29c.1,0,.15,0,.15.07s-.05.07-.15.07Zm.15,1.15a.63.63,0,0,0,.71.72c.1-.48.22-.62.36-.43a.63.63,0,0,0,.51.28c-.1-.28-.05-.4.14-.36a1,1,0,0,1,.43.22c-.09-.19-.07-.33.07-.43s.17-.24.08-.43a1.37,1.37,0,0,0-1.3.43C391.17,421.11,390.83,421.11,390.55,420.73Zm1.43-3.59h.29v.28H392Zm.43.57c.39-.19.44-.17.15.07S392.22,418,392.41,417.71Zm.72-.72c0,.39-.24.48-.72.29C392.61,416.9,392.85,416.8,393.13,417Zm.43,4.31c0-.47-.19-.72-.57-.72Q393,421,393.56,421.3Zm1.15-.72c-.19.1-.24.15-.14.15s.14-.05.14-.15c.48.1.74,0,.79-.28s.31-.43.79-.43c0,.09,0,.14-.07.14s-.07.1-.07.29c.38-.19.65-.34.79-.43a1.81,1.81,0,0,1,1.08,0,.52.52,0,0,0,.14-.36c0-.15.1-.27.29-.36q.14.14,0,.57.44-.29.57-.21a4.33,4.33,0,0,0,.72.21q0-.57.51-.57c.33,0,.5-.15.5-.43a20.7,20.7,0,0,0-3.31.57,34.26,34.26,0,0,1-3.88.72.55.55,0,0,0,.08.36.65.65,0,0,1,.07.36,1.51,1.51,0,0,0,.79-.43C394.83,420,394.9,420.11,394.71,420.58Zm-.86-3.3c.29-.19.31-.17.07.07S393.66,417.57,393.85,417.28Zm3.45-.72c0,.29-.1.34-.29.14S396.92,416.47,397.3,416.56Zm.14-.07c.1.05.05.07-.14.07C397.3,416.47,397.35,416.44,397.44,416.49Zm1.23-.43a.87.87,0,0,0-.79.21q0-.42.57-.36a1,1,0,0,0,.86-.21A.51.51,0,0,1,398.67,416.06Zm.93.21q-.15.44-.36.15T399.6,416.27Zm1-.72c0,.29-.34.44-1,.44C399.69,415.7,400,415.55,400.61,415.55Zm-.72.72a.12.12,0,0,1,.14-.14h.14C400.17,416.23,400.08,416.27,399.89,416.27Zm.43,3.6c.09,0,.14-.05.14-.15C400.27,419.82,400.22,419.87,400.32,419.87Zm.43-3.88H401v.28h-.29Zm.14,2.87a1.53,1.53,0,0,0,.87.07.78.78,0,0,0,.71-.64,1,1,0,0,1-.86.21Q401,418.42,400.89,418.86Zm.58-3.31c0-.09.09-.14.29-.14C401.76,415.51,401.66,415.55,401.47,415.55Zm.29.44c.19-.39.28-.41.28-.08S402,416.27,401.76,416Zm.57-.29c.09-.29.14-.26.14.07S402.42,416.08,402.33,415.7Zm.29-.58h.43c0,.2-.19.29-.58.29,0-.09,0-.14.08-.14S402.62,415.22,402.62,415.12Zm1.51,3.31a1.52,1.52,0,0,0,1.07-.29,2.44,2.44,0,0,0-1.43-.14,1.77,1.77,0,0,0-1.15.72A4.06,4.06,0,0,1,404.13,418.43Zm.79-3.59c.09.09.12.16.07.21a.42.42,0,0,1-.29.07,1.31,1.31,0,0,0-.43.08c-.14,0-.17.16-.07.35a1.08,1.08,0,0,1-.22-.28q-.08-.15-.36,0,.15-.43.51-.36A1.58,1.58,0,0,0,404.92,414.84Zm-.87,2.87a.62.62,0,0,0-.43.14C403.91,417.85,404.05,417.81,404.05,417.71Zm1-2.3c-.29.29-.43.29-.43,0S404.77,415.12,405.06,415.41Zm.72,2.44c-.48.2-.53.29-.14.29S406.07,418.05,405.78,417.85Zm0-3c0-.1.09-.15.29-.15C406.07,414.79,406,414.84,405.78,414.84Zm3.74,3.16a1.2,1.2,0,0,0,.43-.36,1,1,0,0,1,.43-.36,13.15,13.15,0,0,1-2.16.14,2.72,2.72,0,0,0-2,.72,3.65,3.65,0,0,0,1.51-.36,1,1,0,0,1,1.36.36c-.09-.19,0-.33.29-.43S409.71,417.71,409.52,418Zm-3-3.31c0-.09.14-.14.43-.14C406.93,414.65,406.78,414.69,406.5,414.69Zm1.15.15c.28-.19.31-.17.07.07S407.45,415.12,407.65,414.84Zm0,2.3c.19.28.28.26.28-.08S407.84,416.75,407.65,417.14Zm1.15-2.59h-.87a2.11,2.11,0,0,1,1.51-.43,3.75,3.75,0,0,0,1.37-.15c-.1.39-.41.53-.94.44A1.19,1.19,0,0,0,408.8,414.55Zm0,0c.28,0,.33.1.14.29S408.7,414.93,408.8,414.55Zm1.29,39.37a.87.87,0,0,0,0-1.29,2.92,2.92,0,0,1-.29.65C409.71,453.42,409.8,453.64,410.09,453.92Zm.14-39.23c0,.39-.05.39-.14,0C410.18,414.31,410.23,414.31,410.23,414.69Zm.15,37.65a2,2,0,0,0,0-2.3A4.48,4.48,0,0,0,410.38,452.34Zm1.29-35.2c.48.09.62,0,.43-.15s-.33-.14-.43.15c-.1-.1-.31-.12-.65-.08s-.5.17-.5.36a.84.84,0,0,1,.58-.07A.58.58,0,0,0,411.67,417.14Zm-.86,32.62c.19-.77.33-1.42.43-1.94a12.92,12.92,0,0,0,.14-2.09H411a7.89,7.89,0,0,1-.28,2.16A2.46,2.46,0,0,0,410.81,449.76ZM412,413.83c0,.1-.34.24-1,.43-.09-.38,0-.52.29-.43A.89.89,0,0,0,412,413.83Zm1.58,10.78c-.19-.19-.34-.29-.43-.29-.2.29-.1.53.29.72a63.69,63.69,0,0,1-.94,10.35c-.62,3.73-1.08,7.13-1.36,10.2a16.06,16.06,0,0,0,.86-2.95c.19-1,.33-2,.43-3s.19-2,.29-3a10.19,10.19,0,0,1,.72-2.95,8.75,8.75,0,0,1,.28-3.81,10,10,0,0,0,.29-4.09,15.77,15.77,0,0,0,1-3.6,8.18,8.18,0,0,0-.15-3.44,4.91,4.91,0,0,0-.79,2.8A8.49,8.49,0,0,1,413.54,424.61ZM412.25,417c.19.39.28.39.28,0S412.44,416.61,412.25,417Zm.71-3.3h0Zm.58,10.92c.19,0,.24.09.14.29s-.19.24-.28.14A.56.56,0,0,1,413.54,424.61Zm.72-.86c.09-.39.14-.41.14-.08S414.35,424,414.26,423.75Zm.79-9.56c-.34.14-.51.31-.51.5.39.2.65.17.8-.07s.4-.26.79-.07c0-.29,0-.45-.08-.5s0-.22.08-.51a2,2,0,0,0-1.3.29C415.31,413.93,415.38,414.05,415.05,414.19Zm.07,2.37c-.48-.19-.65-.17-.5.07S414.93,416.85,415.12,416.56Zm-.29-.57c.1-.2.17-.24.22-.15a1.12,1.12,0,0,0,.21.29c-.09-.19,0-.34.36-.43s.36-.24.07-.43c0,.19-.28.19-.86,0a.79.79,0,0,1-.14.36C414.59,415.77,414.64,415.89,414.83,416Zm10.92-57.77a1.73,1.73,0,0,0-.64.93,1.52,1.52,0,0,0,.07,1.22,6.39,6.39,0,0,0-1,2.23,3.85,3.85,0,0,0,0,2.52.57.57,0,0,0-.43.14,13.94,13.94,0,0,1-.86,3.38,7.3,7.3,0,0,0-.43,3.37,8,8,0,0,0-1,3.6,8.14,8.14,0,0,1-.86,3.44,22,22,0,0,1-1.08,6.9,19.94,19.94,0,0,0-.93,7,13.43,13.43,0,0,0-1.29,5.1,20.24,20.24,0,0,1-1,5.25c.19,0,.29.05.29.14a21.52,21.52,0,0,0-.79,4.67,15,15,0,0,1-.94,4.39.45.45,0,0,1,.51.36.65.65,0,0,0,.35.5,1.69,1.69,0,0,0,.72-1.58,10.41,10.41,0,0,0-.14-1.87c.19,0,.29-.12.29-.36s.14-.31.43-.21a2,2,0,0,1,.14-1.94c.38-.82.34-1.42-.14-1.8a1,1,0,0,0,.07-.65.65.65,0,0,1,.22-.64.24.24,0,0,1,.07.28c-.05.1,0,.15.07.15a1.37,1.37,0,0,0-.14-1.58,1,1,0,0,0,.57-.72,4.71,4.71,0,0,0,.14-1.08v-.93c0-.29.1-.39.29-.29.1-.29.1-.48,0-.58a1.44,1.44,0,0,1-.29-.43c.19,0,.31,0,.36-.14s.17-.15.36-.15c.1-.28.05-.43-.14-.43a.45.45,0,0,1-.43-.28,5,5,0,0,0,.57-2.23,3.52,3.52,0,0,1,.72-2.08,1.59,1.59,0,0,1-.21-1.66c.23-.62.5-1.27.79-1.94-.29,0-.44,0-.44-.14.39-.67.44-1.2.15-1.58a12.92,12.92,0,0,0,1-3.45,13.2,13.2,0,0,0,.15-3.31,1.76,1.76,0,0,0,.43-2,1.5,1.5,0,0,1,.65-.57c.33-.19.4-.38.21-.58,0,.2-.14.29-.43.29.57-2.3,1-4.38,1.29-6.25a35.86,35.86,0,0,1,1.58-6.11c-.28,0-.43-.09-.43-.29a1.84,1.84,0,0,0,.58-1.65,1.44,1.44,0,0,1,.72-1.51c.09-.19.07-.33-.08-.43a.48.48,0,0,1-.21-.43c.09-.19.21-.29.36-.29s.21-.09.21-.28a17.65,17.65,0,0,1,1.23-5.61,21.12,21.12,0,0,0,1.36-5.6c.29-.77.67-1.68,1.15-2.73a4.21,4.21,0,0,0,.43-2.73c-.86,2.2-1.65,4.29-2.37,6.25A41.78,41.78,0,0,0,425.75,358.22ZM417.42,391h-.14l-.15.14C417.32,391.12,417.42,391.08,417.42,391Zm.43,14.66c.09.29.14.26.14-.07S417.94,405.26,417.85,405.64Zm.14-20.55c.29-.19.31-.17.08.07S417.8,385.38,418,385.09Zm.58,19c-.29,0-.43.05-.43.14C418.42,404.2,418.57,404.16,418.57,404.06ZM420,376.32c-.29-.19-.41-.12-.36.22s.16.45.36.36c0-.19,0-.29.14-.29s.05-.09-.14-.29c.28-.09.33-.21.14-.36S419.91,375.94,420,376.32Zm2.29,38.52c0,.28.15.36.44.21s.23-.26-.15-.36c0,.1-.09.15-.29.15v-.15a1.93,1.93,0,0,1-1.29.15.81.81,0,0,0-1,.43A5.25,5.25,0,0,0,422.3,414.84Zm-1.86-25.58h.28v-.43h-.28Zm.86-19.4c.19,0,.29-.05.29-.15C421.39,369.71,421.3,369.76,421.3,369.86Zm1.15,8.33c-.19.29-.17.31.07.07S422.74,378,422.45,378.19Zm1.29,35.21c0-.19,0-.26.07-.22s.12,0,.22-.07c0,.19,0,.27-.07.22S423.84,413.3,423.74,413.4Zm2.73-51.73c-.19,0-.24,0-.14.07s.14,0,.14-.07c.19-.1.24-.17.15-.22S426.47,361.47,426.47,361.67Zm3.88-17a1.54,1.54,0,0,1,.36-.79c.24-.34.12-.55-.36-.65a.62.62,0,0,1,0,.79A.44.44,0,0,0,430.35,344.71Z"/><path class="b2939a9f-a233-458d-b87b-ad0d68491b3f" d="M458.52,425.18a91.8,91.8,0,0,0,11.13-3A87.69,87.69,0,0,0,479.93,418a2.06,2.06,0,0,0,.93.07.85.85,0,0,1,.79.22,1.4,1.4,0,0,0-.07,1.14,7.75,7.75,0,0,0,.5.87c-1.05.57-2.06,1.17-3,1.79a22.68,22.68,0,0,1-3,1.66.51.51,0,0,1-.07-.44.94.94,0,0,0-.08-.57c-.38.67-.71.67-1,0a.67.67,0,0,0-.36.43,1.38,1.38,0,0,1-.36.58.13.13,0,0,0,.14.14c.1,0,.15.05.15.14.28.2.43.2.43,0v-.57c.67.38.72.67.14.86s-.91.48-1,.86c-.29,0-.44-.09-.44-.28s-.14-.24-.43-.15c-.48.1-.62.34-.43.72s.19.62,0,.72-.41-.05-.36-.43.12-.58.22-.58a2.14,2.14,0,0,0-1,.72,2.14,2.14,0,0,1-.86.72c-.29.1-.43.05-.43-.14a.26.26,0,0,0-.29-.29c-.19,0-.28.29-.28.86q-.44.15-.36-.21a.43.43,0,0,0-.22-.51.83.83,0,0,0-.57.29c-.2.19-.39.14-.58-.14-.29.19-.29.33,0,.43s.38.24.29.43c-.39-.19-.67-.22-.86-.07s-.53.07-1-.22c-.1.39.05.53.43.43s.53,0,.43.43a2,2,0,0,0-.64.08.65.65,0,0,1-.51-.08v-.71a8.53,8.53,0,0,1-.86.14h-.72a1.87,1.87,0,0,1-.21.5q-.07.07-.51-.36c-.19.2-.16.34.08.43s.26.34.07.72a10.43,10.43,0,0,1-2.37.43,18.38,18.38,0,0,0-2.88.51,9.39,9.39,0,0,0-2.44,1,2.12,2.12,0,0,0-1.08,1.94,37.1,37.1,0,0,0-2.37,3.59,29.25,29.25,0,0,1-2.37,3.52,11.09,11.09,0,0,1-3.09,2.74,8.46,8.46,0,0,1-4.38,1.07,7.37,7.37,0,0,1-5.25-3.59,13,13,0,0,1-1.72-6.32,17.9,17.9,0,0,1,1.22-6.83,12.76,12.76,0,0,1,3.45-5.24,6.08,6.08,0,0,1,.07-1,1.13,1.13,0,0,0-.22-.86,8.12,8.12,0,0,1,2.66-5.68,8.73,8.73,0,0,1,5.18-1.94,12.12,12.12,0,0,1,5.82,1.22,12.27,12.27,0,0,1,4.59,3.67A8.61,8.61,0,0,1,458.52,425.18Zm-16,1.87c-.28.77-.64,1.63-1.07,2.59a22.55,22.55,0,0,0-1.08,2.94,13.72,13.72,0,0,0-.5,3.16,7.92,7.92,0,0,0,.64,3.38,8.78,8.78,0,0,0,5.75-3.23,64.66,64.66,0,0,0,3.59-5.39,10,10,0,0,1-4.09-1.29Q444.15,428.21,442.56,427.05Zm10.06-11.93a14.07,14.07,0,0,1-2.22,1.3,9.69,9.69,0,0,0-2.16,1.36,5.56,5.56,0,0,0-1.44,1.87,3.9,3.9,0,0,0-.07,2.66,7.87,7.87,0,0,0-1.29,1.29,2.51,2.51,0,0,0-.58,1.58,11.41,11.41,0,0,0,3.6,1,13.24,13.24,0,0,0,3.88,0c.28-.86.64-1.8,1.08-2.8a12.37,12.37,0,0,0,.86-3,8.39,8.39,0,0,0-.07-2.88A4.09,4.09,0,0,0,452.62,415.12Zm6.33,13.8c-.1,0-.15-.05-.15-.14s-.09-.1-.28,0-.15.31.14.35S459,429.11,459,428.92Zm1.15-.29q.28.44.21,0T460.1,428.63Zm1.15-.29a1.5,1.5,0,0,1-.51-.14c-.24-.09-.36-.05-.36.14Q461.1,429.08,461.25,428.34Zm.14-1.43a.7.7,0,0,1-.36-.36c0-.15-.21-.17-.5-.07-.2.38-.1.62.29.72S461.39,427.2,461.39,426.91Zm0,1.43q.57.3.36,0C461.61,428.15,461.48,428.15,461.39,428.34Zm1.08.15c0-.1,0-.15-.22-.15C462.35,428.54,462.42,428.58,462.47,428.49Zm.5-2c-.48-.1-.57,0-.29.28s.43.24.43-.14h.58c0-.48-.24-.62-.72-.43Zm-.14,1.58q.42.42.36,0T462.83,428.06Zm.14-1.58a.12.12,0,0,1,.14.14A.13.13,0,0,1,463,426.48Zm.86-.72c0,.67.38.93,1.15.79a3.06,3.06,0,0,0,1.44-.51,1.17,1.17,0,0,0-1.29-.28A1.55,1.55,0,0,1,463.83,425.76Zm3.6-.43a5.71,5.71,0,0,1,2.15-.15,3.58,3.58,0,0,0,2.16-.43,7.81,7.81,0,0,0-1.44-.14,3.89,3.89,0,0,1-1.44-.29c.1.48-.09.67-.57.58S467.52,425,467.43,425.33Zm4.16-1h.58c0-.29-.19-.43-.58-.43Zm1,.14c.48,0,.72-.14.72-.43-.2,0-.29,0-.29-.14s-.1-.14-.29-.14a.57.57,0,0,1-.07.36C472.62,424.15,472.6,424.27,472.6,424.46Zm1-.57c-.09-.19-.07-.34.08-.43a.49.49,0,0,0,.21-.43q-.72-.15-.72.36C473.17,423.72,473.32,423.89,473.6,423.89Zm2.59-1.15c.38.1.5.05.36-.14S476.29,422.45,476.19,422.74Zm2-1c.1.29.15.27.15-.07S478.3,421.35,478.2,421.73Z"/><path class="b2939a9f-a233-458d-b87b-ad0d68491b3f" d="M484.52,415.55c-.09,0-.14.05-.14.15s.14-.05.14-.15a4.18,4.18,0,0,0,1.66-1.22c.43-.52.88-1,1.36-1.51a5.68,5.68,0,0,1,1.73-1.15,5.39,5.39,0,0,1,2.58-.28,7.85,7.85,0,0,1,1.94,2.08,10.76,10.76,0,0,0,1.94,2.23,13.47,13.47,0,0,1-.21,4.6c-.34,1.43-.75,2.9-1.22,4.38s-1,3-1.58,4.6a27.57,27.57,0,0,0-1.3,5,27.73,27.73,0,0,0,5.46-3.74q2.44-2.16,4.82-4.38c1.58-1.49,3.23-2.92,5-4.31a22,22,0,0,1,5.89-3.38,14.54,14.54,0,0,0,2.58,2.3,6.12,6.12,0,0,1,2.16,2.73c-.1,0-.14,0-.14-.15s0-.14-.15-.14a8.08,8.08,0,0,1,.15,3.38c-.2,1.1-.44,2.15-.72,3.16a21.47,21.47,0,0,0-.65,3.09A7.88,7.88,0,0,0,516,436a8.54,8.54,0,0,0,5.53.5,29.84,29.84,0,0,0,6-1.94,46.53,46.53,0,0,0,5.54-2.87,45.56,45.56,0,0,0,3.88-2.59,37.38,37.38,0,0,0,7.9-5.53,88,88,0,0,1,7.76-6.25,6.36,6.36,0,0,1-1.51,4,4.62,4.62,0,0,1-3.09,2.08,1,1,0,0,1-.21,1,2.52,2.52,0,0,0-.65.86,2.38,2.38,0,0,0,1.51-.86c.24-.38.84-.62,1.79-.72a1.82,1.82,0,0,1-.86,1c-.38.19-.33.53.15,1A62.38,62.38,0,0,1,538.2,435,88,88,0,0,1,524.33,442a23.79,23.79,0,0,1-4.81.07,15.73,15.73,0,0,1-4.67-1.37,3.81,3.81,0,0,0-.65-.93l-.79-.79a22.77,22.77,0,0,1-2-12.79,25.11,25.11,0,0,1-4.53,3.52,19,19,0,0,0-4.67,4.1l-2.66,2.94a19.32,19.32,0,0,1-2.94,2.66,10.41,10.41,0,0,1-3.38,1.65,6.13,6.13,0,0,1-3.81-.21,5.82,5.82,0,0,1-1.22-1.94A5.87,5.87,0,0,0,487,437a22.14,22.14,0,0,1,.57-9.56q1.29-4.1,2.3-8.41a45.3,45.3,0,0,0-9,12.43Q477.34,438.56,474,446a1.36,1.36,0,0,0-1,.29c-.19.19-.53.19-1,0q-.42-.72-.93-1.44a2.84,2.84,0,0,1-.36-2,5,5,0,0,1-.58-4.1,45,45,0,0,1,1.3-4.38q2-5,4.09-10.49a66.92,66.92,0,0,0,3.09-10.35,3.15,3.15,0,0,1-.5-2.3,3.5,3.5,0,0,1,.93-1.86c1.92,0,3.19.64,3.81,1.94A31.59,31.59,0,0,1,484.52,415.55Zm3.88,14.95c0-.19.08-.29.22-.29s.17-.09.07-.29-.33,0-.43.22S488.21,430.5,488.4,430.5Zm.87-2.16c0-.19,0-.3.14-.35s0-.12-.14-.22Q489,428.21,489.27,428.34Zm.28-2.3c.2.29.29.27.29-.07S489.75,425.66,489.55,426Zm14.52,1,.29.29c0-.48-.1-.67-.29-.58Zm1-.43a4.34,4.34,0,0,0,1.15-1.58c-.48,0-.76.17-.86.5Zm1.44-1.44a1.32,1.32,0,0,0,1.44-.86,1.33,1.33,0,0,1,1.44-.86c0-.48-.2-.72-.58-.72a3.22,3.22,0,0,1-1.22,1.15A2.22,2.22,0,0,0,506.51,425.18Zm3.16-2.44c.19-.19.19-.33,0-.43a.22.22,0,0,1-.14.21C509.43,422.57,509.48,422.65,509.67,422.74Zm.29-.58c.29.29.67.29,1.15,0,0-.57-.24-.86-.72-.86.1.29,0,.41-.29.36S509.77,421.78,510,422.16Zm27.59,9.06h.29v-.29h-.29Zm3.59-4.46c-.19.1-.24.15-.14.15s.14-.05.14-.15c.19-.09.24-.14.15-.14S541.14,426.67,541.14,426.76Zm1,.58a1.18,1.18,0,0,0-.29-.86,3.12,3.12,0,0,1-.07.64C541.74,427.36,541.86,427.44,542.15,427.34Zm4.89-1.58c-.29.19-.51.21-.65.07a.89.89,0,0,0-.65-.22,4.66,4.66,0,0,1-2.37,1.44c-1,.29-1.46.86-1.36,1.73a22.87,22.87,0,0,0,2.08-1.66c.81-.72,1.51-.88,2.08-.5a4.11,4.11,0,0,1-.71-.07q-.44-.07-.15.36c.48,0,.77-.1.86-.29a1.32,1.32,0,0,1,.58-.36c.19-.05.29-.22.29-.5h.28v-.43C547.13,425.33,547,425.47,547,425.76Zm2.3-4c-.77.48-1.54.92-2.3,1.3a3.61,3.61,0,0,0-1.73,1.87q-.28,0-.21-.15a.25.25,0,0,0-.08-.29,3.74,3.74,0,0,0-1.58.87,16.84,16.84,0,0,1-1.29,1.15c.29.28.55.36.79.21s.5-.31.79-.5.55-.36.79-.5a.91.91,0,0,1,.79-.08v-.71c.19.19.34.19.43,0s.29-.2.58,0c-.1-.48,0-.75.28-.79a1.07,1.07,0,0,0,.72-.51c0,.39.1.58.29.58-.1-.77.12-1.25.65-1.44a1.77,1.77,0,0,0,1.08-1,.87.87,0,0,1,.64-.28c.24,0,.31-.15.22-.43a3.71,3.71,0,0,1-.58.21C549.43,421.28,549.34,421.45,549.34,421.73Zm1.72,1a.39.39,0,0,1,.07.57.37.37,0,0,1-.5.15q-.15-.43.21-.36C551.08,423.15,551.15,423,551.06,422.74Z"/><path class="b2939a9f-a233-458d-b87b-ad0d68491b3f" d="M569.31,412.39c-.19,1.25-.34,2.28-.43,3.09a3.24,3.24,0,0,1-1.87,2.23,11,11,0,0,1-4,5.17,56.77,56.77,0,0,0-5.1,4,37.43,37.43,0,0,0-4.32,1.22,4.5,4.5,0,0,1-4.31-.65,8.71,8.71,0,0,0-1.51,3.52c-.23,1.3-.55,2.76-.93,4.39a7.58,7.58,0,0,0,4.81,1.5,20.88,20.88,0,0,0,5.39-.86,43.43,43.43,0,0,0,5.39-1.94,52.74,52.74,0,0,1,5-1.87c1.63-1,3.33-1.89,5.1-2.8s3.62-1.74,5.53-2.51a1.72,1.72,0,0,1,.87-.65,2.38,2.38,0,0,0,.86-.5.88.88,0,0,1-.22.86,3.46,3.46,0,0,1-1,.79c-.43.24-.87.46-1.3.65a3.35,3.35,0,0,0-1.07.72c0,.09.19.14.57.14a29.54,29.54,0,0,1-6.39,4.45,63.54,63.54,0,0,1-7.4,3.17c.47,0,1.17,0,2.08-.08a5.2,5.2,0,0,0,2.37-.64,1,1,0,0,1-.5.72,3.92,3.92,0,0,0-.79.43c0,.19.14.24.43.14s.33,0,.14.29a7.82,7.82,0,0,0-2.37,1.29c-.72.58-1.32.72-1.8.43-.38.2-.5.36-.36.5s.12.32-.07.51a51.33,51.33,0,0,1-5.31,2.08,20.32,20.32,0,0,1-6.18.79,8.42,8.42,0,0,1-4.1-2,8.91,8.91,0,0,1-2.23-3.38,13.82,13.82,0,0,1-.79-4.31,31.5,31.5,0,0,1,.22-4.67,46.72,46.72,0,0,1,2.51-6,39.34,39.34,0,0,1,3.52-5.75,34.28,34.28,0,0,1,4.53-5,22.73,22.73,0,0,1,5.53-3.74,4.47,4.47,0,0,1,2.3-.5c.77.05,1.53.07,2.3.07a2.35,2.35,0,0,1,1.3.58,2.13,2.13,0,0,0,1.15.57,4.41,4.41,0,0,0,1,2.08C568.35,411.41,568.83,411.91,569.31,412.39ZM558.1,415c.29.1.55,0,.79-.36s.45-.36.65-.07a42.77,42.77,0,0,0-3.45,2.94,30.09,30.09,0,0,0-3,3.38,54.3,54.3,0,0,0,6.68-4.09,18.77,18.77,0,0,0,5.1-5.54l-3.73,1.44A6.54,6.54,0,0,0,558.1,415Zm-2,22.85a.92.92,0,0,0,.64.07c.24,0,.31.22.22.79.38-.19.69-.33.93-.43s.55.05.94.43a.4.4,0,0,0,.07-.57c-.14-.19-.07-.29.22-.29a5,5,0,0,0,1.79-.43,14,14,0,0,0,1.8-.86,6.1,6.1,0,0,1-3.45.71A5.55,5.55,0,0,0,556.09,437.83ZM567,436.68c.19-.29.29-.26.29.07S567.2,437.06,567,436.68Zm13.36-11.21c0,.19,0,.27-.14.22S580.18,425.57,580.37,425.47Zm0,0c0-.09,0-.12.15-.07S580.56,425.47,580.37,425.47Z"/></g></g></svg>