<svg xmlns="http://www.w3.org/2000/svg" xmlns:xlink="http://www.w3.org/1999/xlink" viewBox="0 0 1957.72 633"><defs><style>.a,.h,.i,.j,.k,.l,.m{fill:none;}.b{fill:#232628;}.c{clip-path:url(#a);}.d{fill:#00b9da;}.e{opacity:0.57;}.f{fill:#e1e1e1;}.g,.h,.i,.j,.k,.l,.m,.n,.o,.p,.q,.r,.s,.t{isolation:isolate;}.h,.i,.j,.k,.l,.m{font-size:166.64px;stroke:#fff;stroke-miterlimit:10;stroke-width:4px;}.h,.i,.j,.k,.l,.m,.n,.o,.p,.q,.r,.s,.t{font-family:GothamHTF-Bold, Gotham HTF;font-weight:700;}.h{letter-spacing:0.07em;}.i{letter-spacing:0.05em;}.j{letter-spacing:0.08em;}.k{letter-spacing:0.06em;}.l{letter-spacing:0.07em;}.m{letter-spacing:0.06em;}.n,.o,.p,.q,.r,.s,.t{font-size:100.62px;fill:#f9a23c;}.n{letter-spacing:0.17em;}.o{letter-spacing:0.18em;}.p{letter-spacing:0.19em;}.q{letter-spacing:0.22em;}.r{letter-spacing:0.12em;}.s{letter-spacing:0.19em;}.t{letter-spacing:0.2em;}.u{opacity:0.5;}</style><clipPath id="a"><rect class="a" width="1957.72" height="622"/></clipPath></defs><title>GiveHeader-01</title><polygon class="b" points="1957.72 633 0 633 -2.05 0 1955.67 0 1957.72 633"/><g class="c"><path class="d" d="M600.39-148.24S629.51,73.58,411.51,88.39,242.65,304.46,242.65,304.46,281.79,518.51,63.79,533.32-105.07,749.4-105.07,749.4s41.25,210.17-176.75,225L-148.42-4.31Z"/><path class="d" d="M1231-41s39.84,220.15,252,167.83,226.67,154.36,226.67,154.36,27.93,215.8,240.07,163.49S1978.87-35,1978.87-35L1256-63.13Z"/></g><g class="e"><path class="f" d="M110.1,123.13h-3.63a4.77,4.77,0,0,0-9.54,0H93.31a8.4,8.4,0,0,1,16.79-.58A5.61,5.61,0,0,1,110.1,123.13Z"/><path class="f" d="M136.43,123.13H132.8a4.77,4.77,0,0,0-9.54,0h-3.62a8.4,8.4,0,0,1,16.79-.58A5.61,5.61,0,0,1,136.43,123.13Z"/><path class="f" d="M162.76,123.13h-3.62a4.77,4.77,0,0,0-9.54,0H146a8.4,8.4,0,0,1,16.79-.58,5.61,5.61,0,0,1,0,.58Z"/><path class="f" d="M114.87,131.35a8.4,8.4,0,0,1-8.4-8.35h3.63a4.77,4.77,0,1,0,9.54,0h3.62A8.39,8.39,0,0,1,114.87,131.35Z"/><path class="f" d="M141.2,131.35a8.4,8.4,0,0,1-8.4-8.39h3.63a4.77,4.77,0,0,0,9.54,0h3.63A8.4,8.4,0,0,1,141.2,131.35Z"/><path class="f" d="M167.53,131.35a8.39,8.39,0,0,1-8.39-8.39h3.62a4.77,4.77,0,0,0,9.54,0h3.63A8.4,8.4,0,0,1,167.53,131.35Z"/><circle class="f" cx="1464.65" cy="508.01" r="13.81"/><rect class="f" x="1750.84" y="146.41" width="4.18" height="61.7" transform="translate(47.38 619.16) rotate(-20.3)"/><rect class="f" x="1724.7" y="167.1" width="50.53" height="4.18" transform="translate(50.39 619.12) rotate(-20.35)"/></g><g class="g"><text class="h" transform="translate(345.3 349.35)">G</text><text class="i" transform="translate(487.13 349.35)">I</text><text class="i" transform="translate(551.08 349.35)">V</text><text class="j" transform="translate(685.05 349.35)">E </text><text class="k" transform="translate(871.68 349.35)">O</text><text class="l" transform="translate(1023.32 349.35)">N</text><text class="i" transform="translate(1166.08 349.35)">L</text><text class="m" transform="translate(1276.75 349.35)">I</text><text class="l" transform="translate(1342.87 349.35)">N</text><text class="j" transform="translate(1485.63 349.35)">E</text></g><g class="g"><text class="n" transform="translate(600.99 396.79)">T</text><text class="o" transform="translate(683.59 396.79)">H</text><text class="o" transform="translate(778.01 396.79)">A</text><text class="p" transform="translate(875.5 396.79)">N</text><text class="q" transform="translate(974.28 396.79)">K</text><text class="r" transform="translate(1069.84 396.79)">Y</text><text class="s" transform="translate(1154.3 396.79)">O</text><text class="t" transform="translate(1258.56 396.79)">U</text></g><g class="u"><path class="f" d="M414,504.71a13.94,13.94,0,0,1,12.64-10.66c6.9-.59,17.29,11.35-2.66,37.4Z"/><path class="f" d="M414,504.71a13.94,13.94,0,0,0-16.54.23c-5.6,4.07-5.62,19.91,26.52,26.51Z"/></g><g class="u"><path class="f" d="M1112,108.27a13.94,13.94,0,0,1,16.48,1.41c5.3,4.45,4.2,20.25-28.33,24.56Z"/><path class="f" d="M1112,108.27a13.91,13.91,0,0,0-11.85-11.52c-6.84-1.09-18.06,10.09,0,37.49Z"/></g></svg>