<svg xmlns="http://www.w3.org/2000/svg" viewBox="0 0 192.9 43.95"><defs><style>.fc0c7b86-2d9a-49c2-ac3e-d607ca6c1106{fill:#fff;}.ec369017-c533-4595-9f0e-fcb7c642c170{fill:#00bada;}</style></defs><title>Asset 7FG_LogoFooter</title><g id="f151a30d-2e30-478b-97d0-811f8ced2c3f" data-name="Layer 2"><g id="bc4cbaf3-6303-4d46-b530-cb293f3427b2" data-name="Layer 1"><path class="fc0c7b86-2d9a-49c2-ac3e-d607ca6c1106" d="M189,16l-73.63-.11a7.47,7.47,0,0,0-4.92,1.82,18.62,18.62,0,0,0-4-6L95.85,1.11a4,4,0,0,0-5.57,0L79.72,11.73a18.83,18.83,0,0,0-3.6,5A3.88,3.88,0,0,0,73.78,16H3.93A3.93,3.93,0,0,0,0,19.91v6.68a3.93,3.93,0,0,0,3.93,3.93h69.9a3.74,3.74,0,0,0,1.11-.18,18.85,18.85,0,0,0,36.44-.8,7.45,7.45,0,0,0,3.9,1.1L189,30.52a3.93,3.93,0,0,0,3.93-3.93V19.91A3.93,3.93,0,0,0,189,16Z"/><path class="ec369017-c533-4595-9f0e-fcb7c642c170" d="M5.4,21.25v1.42H8.59V24H5.4v2.58H3.93V19.91H9v1.34Z"/><path class="ec369017-c533-4595-9f0e-fcb7c642c170" d="M11.32,26.59V19.91h1.46v5.35h3.33v1.33Z"/><path class="ec369017-c533-4595-9f0e-fcb7c642c170" d="M21.21,26.71a3.43,3.43,0,0,1-3.54-3.44v0a3.45,3.45,0,0,1,3.56-3.45,3.42,3.42,0,0,1,3.54,3.43v0A3.46,3.46,0,0,1,21.21,26.71Zm2-3.46a2,2,0,0,0-2-2.1,2,2,0,0,0-2,2.08v0a2,2,0,0,0,2,2.1,2,2,0,0,0,2-2.08Z"/><path class="ec369017-c533-4595-9f0e-fcb7c642c170" d="M30.44,26.71a3.42,3.42,0,0,1-3.53-3.44v0a3.55,3.55,0,0,1,7.09,0v0A3.46,3.46,0,0,1,30.44,26.71Zm2-3.46a2,2,0,0,0-2-2.1,2,2,0,0,0-2,2.08v0a2,2,0,0,0,2,2.1,2,2,0,0,0,2-2.08Z"/><path class="ec369017-c533-4595-9f0e-fcb7c642c170" d="M39,26.59h-2.6V19.91H39a3.33,3.33,0,0,1,3.55,3.32v0A3.34,3.34,0,0,1,39,26.59Zm2-3.34a1.92,1.92,0,0,0-2-2H37.91v4H39a1.9,1.9,0,0,0,2-2Z"/><path class="ec369017-c533-4595-9f0e-fcb7c642c170" d="M48.24,26.71a3.34,3.34,0,0,1-3.51-3.44v0a3.42,3.42,0,0,1,3.5-3.45,3.65,3.65,0,0,1,2.62.91l-.92,1.12a2.48,2.48,0,0,0-1.75-.68,2,2,0,0,0-1.92,2.08v0a2,2,0,0,0,2,2.12,2.32,2.32,0,0,0,1.38-.4V24H48.19V22.75h2.9v2.9A4.35,4.35,0,0,1,48.24,26.71Z"/><path class="ec369017-c533-4595-9f0e-fcb7c642c170" d="M58.6,26.59,58,25.09H55.17l-.61,1.5h-1.5l2.86-6.72h1.35l2.87,6.72Zm-2-5-.89,2.17h1.78Z"/><path class="ec369017-c533-4595-9f0e-fcb7c642c170" d="M64.46,21.27v5.32H63V21.27H61V19.91h5.53v1.36Z"/><path class="ec369017-c533-4595-9f0e-fcb7c642c170" d="M68.74,26.59V19.91h5v1.31H70.2v1.36h3.15v1.3H70.2v1.4h3.63v1.31Z"/><path class="ec369017-c533-4595-9f0e-fcb7c642c170" d="M115.28,26.71a3.37,3.37,0,0,1-3.42-3.44v0a3.39,3.39,0,0,1,3.48-3.45,3.44,3.44,0,0,1,2.63,1L117,21.91a2.47,2.47,0,0,0-1.71-.76,2,2,0,0,0-1.94,2.08v0a2,2,0,0,0,1.94,2.1,2.42,2.42,0,0,0,1.76-.78l.93.94A3.41,3.41,0,0,1,115.28,26.71Z"/><path class="ec369017-c533-4595-9f0e-fcb7c642c170" d="M124.5,26.59V23.91h-2.71v2.68h-1.47V19.91h1.47v2.65h2.71V19.91H126v6.68Z"/><path class="ec369017-c533-4595-9f0e-fcb7c642c170" d="M131.48,26.7a2.66,2.66,0,0,1-2.89-3V19.91h1.47v3.78c0,1.09.55,1.65,1.44,1.65s1.44-.54,1.44-1.6V19.91h1.47v3.77A2.69,2.69,0,0,1,131.48,26.7Z"/><path class="ec369017-c533-4595-9f0e-fcb7c642c170" d="M141.09,26.59l-1.43-2.14h-1.15v2.14H137V19.91h3.05c1.57,0,2.52.83,2.52,2.21v0a2.08,2.08,0,0,1-1.43,2.07l1.63,2.38Zm0-4.4c0-.63-.44-1-1.15-1h-1.46v1.92H140c.72,0,1.13-.38,1.13-.95Z"/><path class="ec369017-c533-4595-9f0e-fcb7c642c170" d="M148.19,26.71a3.37,3.37,0,0,1-3.42-3.44v0a3.39,3.39,0,0,1,3.48-3.45,3.44,3.44,0,0,1,2.63,1L150,21.91a2.47,2.47,0,0,0-1.71-.76,2,2,0,0,0-1.94,2.08v0a2,2,0,0,0,1.94,2.1,2.38,2.38,0,0,0,1.75-.78l.94.94A3.41,3.41,0,0,1,148.19,26.71Z"/><path class="ec369017-c533-4595-9f0e-fcb7c642c170" d="M157.41,26.59V23.91H154.7v2.68h-1.47V19.91h1.47v2.65h2.71V19.91h1.47v6.68Z"/><path class="ec369017-c533-4595-9f0e-fcb7c642c170" d="M161.4,26.59V25.06h1.54v1.53Z"/><path class="ec369017-c533-4595-9f0e-fcb7c642c170" d="M168.21,26.71a3.38,3.38,0,0,1-3.43-3.44v0a3.39,3.39,0,0,1,3.48-3.45,3.46,3.46,0,0,1,2.64,1L170,21.91a2.45,2.45,0,0,0-1.7-.76,2,2,0,0,0-1.94,2.08v0a2,2,0,0,0,1.94,2.1,2.38,2.38,0,0,0,1.75-.78l.94.94A3.41,3.41,0,0,1,168.21,26.71Z"/><path class="ec369017-c533-4595-9f0e-fcb7c642c170" d="M176.3,26.71a3.43,3.43,0,0,1-3.54-3.44v0a3.55,3.55,0,0,1,7.1,0v0A3.46,3.46,0,0,1,176.3,26.71Zm2-3.46a2,2,0,0,0-2-2.1,2,2,0,0,0-2,2.08v0a2,2,0,0,0,2,2.1,2,2,0,0,0,2-2.08Z"/><path class="ec369017-c533-4595-9f0e-fcb7c642c170" d="M187.51,26.59V22.23l-1.88,2.85h0l-1.86-2.82v4.33h-1.44V19.91h1.58l1.76,2.83,1.75-2.83H189v6.68Z"/><path class="ec369017-c533-4595-9f0e-fcb7c642c170" d="M103.63,14.51,93.06,3.89,82.5,14.51a14.94,14.94,0,0,0,0,21.14h0a15,15,0,0,0,21.13,0h0A14.94,14.94,0,0,0,103.63,14.51ZM89.79,23.85a6.63,6.63,0,0,0-.07,1v0a7.78,7.78,0,0,0,.17,1.61H86.43V30.6H83.25V19.1h9.14a5.34,5.34,0,0,0-.44.39,7.38,7.38,0,0,0-1.64,2.4H86.43v2Zm12.74,5.21a7.8,7.8,0,0,1-5,1.77,5.91,5.91,0,0,1-6.26-5.95v0a6,6,0,0,1,6.2-6,6.69,6.69,0,0,1,4.66,1.67l-1.87,2.25a4,4,0,0,0-2.78-1.08,3,3,0,0,0-2.94,3.16v0a3,3,0,0,0,3.12,3.19,3.23,3.23,0,0,0,1.84-.48v-1.4H97.24V23.88h5.29Z"/></g></g></svg>